<?xml version="1.0" encoding="UTF-8" standalone="no"?>
<svg
   xmlns:dc="http://purl.org/dc/elements/1.1/"
   xmlns:cc="http://creativecommons.org/ns#"
   xmlns:rdf="http://www.w3.org/1999/02/22-rdf-syntax-ns#"
   xmlns:svg="http://www.w3.org/2000/svg"
   xmlns="http://www.w3.org/2000/svg"
   xmlns:sodipodi="http://sodipodi.sourceforge.net/DTD/sodipodi-0.dtd"
   xmlns:inkscape="http://www.inkscape.org/namespaces/inkscape"
   version="1.1"
   id="body"
   width="8in"
   height="8in"
   viewBox="0 0 1 1"
   preserveAspectRatio="none"
   inkscape:version="0.48.2 r9819"
   sodipodi:docname="Euler03.svg">
  <metadata
     id="metadata5756">
    <rdf:RDF>
      <cc:Work
         rdf:about="">
        <dc:format>image/svg+xml</dc:format>
        <dc:type
           rdf:resource="http://purl.org/dc/dcmitype/StillImage" />
      </cc:Work>
    </rdf:RDF>
  </metadata>
  <defs
     id="defs5754" />
  <sodipodi:namedview
     pagecolor="#ffffff"
     bordercolor="#666666"
     borderopacity="1"
     objecttolerance="10"
     gridtolerance="10"
     guidetolerance="10"
     inkscape:pageopacity="0"
     inkscape:pageshadow="2"
     inkscape:window-width="1243"
     inkscape:window-height="957"
     id="namedview5752"
     showgrid="false"
     inkscape:zoom="1.3111111"
     inkscape:cx="360"
     inkscape:cy="360"
     inkscape:window-x="319"
     inkscape:window-y="114"
     inkscape:window-maximized="0"
     inkscape:current-layer="body" />
  <title
     id="title5464">SVG drawing</title>
  <desc
     id="desc5466">This was produced by version 4.4 of GNU libplot, a free library for exporting 2-D vector graphics.</desc>
  <g
     id="content"
     transform="matrix(0.0017361,0,0,-0.0017361,0.00688559,1.4883475)"
     xml:space="preserve"
     stroke-miterlimit="10.433"
     font-style="normal"
     font-variant="normal"
     font-weight="normal"
     font-stretch="normal"
     font-size-adjust="none"
     letter-spacing="normal"
     word-spacing="normal"
     style="font-style:normal;font-variant:normal;font-weight:normal;font-stretch:normal;letter-spacing:normal;word-spacing:normal;text-anchor:start;fill:none;stroke:#000000;stroke-width:1;stroke-linecap:butt;stroke-linejoin:miter;stroke-miterlimit:10.43299961;stroke-opacity:1;stroke-dasharray:none;stroke-dashoffset:0">
<path
   d="m 112.5,671.04 -0.01,-0.23 -0.01,-0.23 -0.03,-0.23 -0.04,-0.22 -0.05,-0.22 -0.06,-0.21 -0.07,-0.21 -0.08,-0.2 -0.09,-0.2 -0.1,-0.2 -0.11,-0.18 -0.12,-0.19 -0.12,-0.17 -0.14,-0.17 -0.14,-0.17 -0.15,-0.15 -0.15,-0.15 -0.17,-0.14 -0.17,-0.14 -0.17,-0.12 -0.19,-0.12 -0.19,-0.11 -0.19,-0.1 -0.2,-0.09 -0.2,-0.08 -0.21,-0.07 -0.22,-0.06 -0.21,-0.05 -0.22,-0.04 -0.23,-0.03 -0.23,-0.02 -0.23,0 c -2.48,0 -4.5,2.01 -4.5,4.5 0,2.48 2.02,4.5 4.5,4.5 2.48,0 4.5,-2.02 4.5,-4.5 z"
   id="path5470"
   inkscape:connector-curvature="0"
   style="fill:#000000;fill-rule:nonzero;stroke-width:0" />
<path
   d="m 112.5,671.04 -0.01,-0.23 -0.01,-0.23 -0.03,-0.23 -0.04,-0.22 -0.05,-0.22 -0.06,-0.21 -0.07,-0.21 -0.08,-0.2 -0.09,-0.2 -0.1,-0.2 -0.11,-0.18 -0.12,-0.19 -0.12,-0.17 -0.14,-0.17 -0.14,-0.17 -0.15,-0.15 -0.15,-0.15 -0.17,-0.14 -0.17,-0.14 -0.17,-0.12 -0.19,-0.12 -0.19,-0.11 -0.19,-0.1 -0.2,-0.09 -0.2,-0.08 -0.21,-0.07 -0.22,-0.06 -0.21,-0.05 -0.22,-0.04 -0.23,-0.03 -0.23,-0.02 -0.23,0 c -2.48,0 -4.5,2.01 -4.5,4.5 0,2.48 2.02,4.5 4.5,4.5 2.48,0 4.5,-2.02 4.5,-4.5 z"
   id="path5472"
   inkscape:connector-curvature="0"
   style="stroke-width:0.5625" />
<line
   x1="252"
   y1="621.53998"
   x2="317.25"
   y2="621.53998"
   id="line5474"
   style="stroke-width:1.6875" />
<polygon
   points="324,621.54 317.25,618.73 317.25,624.35 "
   id="polygon5476"
   style="fill:#ffffff;fill-rule:nonzero;stroke:#ffffff;stroke-width:0" />
<polygon
   points="324,621.54 317.25,618.73 317.25,624.35 "
   id="polygon5478"
   style="fill:#000000;fill-rule:nonzero;stroke-width:0" />
<line
   x1="324"
   y1="594.53998"
   x2="258.75"
   y2="594.53998"
   id="line5480"
   style="stroke-width:1.6875" />
<polygon
   points="252,594.54 258.75,597.35 258.75,591.73 "
   id="polygon5482"
   style="fill:#ffffff;fill-rule:nonzero;stroke:#ffffff;stroke-width:0" />
<polygon
   points="252,594.54 258.75,597.35 258.75,591.73 "
   id="polygon5484"
   style="fill:#000000;fill-rule:nonzero;stroke-width:0" />
<path
   d="m 184.5,671.04 -0.01,-0.23 -0.01,-0.23 -0.03,-0.23 -0.04,-0.22 -0.05,-0.22 -0.06,-0.21 -0.07,-0.21 -0.08,-0.2 -0.09,-0.2 -0.1,-0.2 -0.11,-0.18 -0.12,-0.19 -0.12,-0.17 -0.14,-0.17 -0.14,-0.17 -0.15,-0.15 -0.15,-0.15 -0.17,-0.14 -0.17,-0.14 -0.17,-0.12 -0.19,-0.12 -0.19,-0.11 -0.19,-0.1 -0.2,-0.09 -0.2,-0.08 -0.21,-0.07 -0.22,-0.06 -0.21,-0.05 -0.22,-0.04 -0.23,-0.03 -0.23,-0.02 -0.23,0 c -2.48,0 -4.5,2.01 -4.5,4.5 0,2.48 2.02,4.5 4.5,4.5 2.48,0 4.5,-2.02 4.5,-4.5 z"
   id="path5486"
   inkscape:connector-curvature="0"
   style="fill:#000000;fill-rule:nonzero;stroke-width:0" />
<path
   d="m 184.5,671.04 -0.01,-0.23 -0.01,-0.23 -0.03,-0.23 -0.04,-0.22 -0.05,-0.22 -0.06,-0.21 -0.07,-0.21 -0.08,-0.2 -0.09,-0.2 -0.1,-0.2 -0.11,-0.18 -0.12,-0.19 -0.12,-0.17 -0.14,-0.17 -0.14,-0.17 -0.15,-0.15 -0.15,-0.15 -0.17,-0.14 -0.17,-0.14 -0.17,-0.12 -0.19,-0.12 -0.19,-0.11 -0.19,-0.1 -0.2,-0.09 -0.2,-0.08 -0.21,-0.07 -0.22,-0.06 -0.21,-0.05 -0.22,-0.04 -0.23,-0.03 -0.23,-0.02 -0.23,0 c -2.48,0 -4.5,2.01 -4.5,4.5 0,2.48 2.02,4.5 4.5,4.5 2.48,0 4.5,-2.02 4.5,-4.5 z"
   id="path5488"
   inkscape:connector-curvature="0"
   style="stroke-width:0.5625" />
<path
   d="m 400.5,671.04 -0.01,-0.23 -0.01,-0.23 -0.03,-0.23 -0.04,-0.22 -0.05,-0.22 -0.06,-0.21 -0.07,-0.21 -0.08,-0.2 -0.09,-0.2 -0.1,-0.2 -0.11,-0.18 -0.12,-0.19 -0.12,-0.17 -0.14,-0.17 -0.14,-0.17 -0.15,-0.15 -0.15,-0.15 -0.17,-0.14 -0.17,-0.14 -0.17,-0.12 -0.19,-0.12 -0.19,-0.11 -0.19,-0.1 -0.2,-0.09 -0.2,-0.08 -0.21,-0.07 -0.22,-0.06 -0.21,-0.05 -0.22,-0.04 -0.23,-0.03 -0.23,-0.02 -0.23,0 c -2.48,0 -4.5,2.01 -4.5,4.5 0,2.48 2.02,4.5 4.5,4.5 2.48,0 4.5,-2.02 4.5,-4.5 z"
   id="path5490"
   inkscape:connector-curvature="0"
   style="fill:#000000;fill-rule:nonzero;stroke-width:0" />
<path
   d="m 400.5,671.04 -0.01,-0.23 -0.01,-0.23 -0.03,-0.23 -0.04,-0.22 -0.05,-0.22 -0.06,-0.21 -0.07,-0.21 -0.08,-0.2 -0.09,-0.2 -0.1,-0.2 -0.11,-0.18 -0.12,-0.19 -0.12,-0.17 -0.14,-0.17 -0.14,-0.17 -0.15,-0.15 -0.15,-0.15 -0.17,-0.14 -0.17,-0.14 -0.17,-0.12 -0.19,-0.12 -0.19,-0.11 -0.19,-0.1 -0.2,-0.09 -0.2,-0.08 -0.21,-0.07 -0.22,-0.06 -0.21,-0.05 -0.22,-0.04 -0.23,-0.03 -0.23,-0.02 -0.23,0 c -2.48,0 -4.5,2.01 -4.5,4.5 0,2.48 2.02,4.5 4.5,4.5 2.48,0 4.5,-2.02 4.5,-4.5 z"
   id="path5492"
   inkscape:connector-curvature="0"
   style="stroke-width:0.5625" />
<path
   d="m 472.5,671.04 -0.01,-0.23 -0.01,-0.23 -0.03,-0.23 -0.04,-0.22 -0.05,-0.22 -0.06,-0.21 -0.07,-0.21 -0.08,-0.2 -0.09,-0.2 -0.1,-0.2 -0.11,-0.18 -0.12,-0.19 -0.12,-0.17 -0.14,-0.17 -0.14,-0.17 -0.15,-0.15 -0.15,-0.15 -0.17,-0.14 -0.17,-0.14 -0.17,-0.12 -0.19,-0.12 -0.19,-0.11 -0.19,-0.1 -0.2,-0.09 -0.2,-0.08 -0.21,-0.07 -0.22,-0.06 -0.21,-0.05 -0.22,-0.04 -0.23,-0.03 -0.23,-0.02 -0.23,0 c -2.48,0 -4.5,2.01 -4.5,4.5 0,2.48 2.02,4.5 4.5,4.5 2.48,0 4.5,-2.02 4.5,-4.5 z"
   id="path5494"
   inkscape:connector-curvature="0"
   style="fill:#000000;fill-rule:nonzero;stroke-width:0" />
<path
   d="m 472.5,671.04 -0.01,-0.23 -0.01,-0.23 -0.03,-0.23 -0.04,-0.22 -0.05,-0.22 -0.06,-0.21 -0.07,-0.21 -0.08,-0.2 -0.09,-0.2 -0.1,-0.2 -0.11,-0.18 -0.12,-0.19 -0.12,-0.17 -0.14,-0.17 -0.14,-0.17 -0.15,-0.15 -0.15,-0.15 -0.17,-0.14 -0.17,-0.14 -0.17,-0.12 -0.19,-0.12 -0.19,-0.11 -0.19,-0.1 -0.2,-0.09 -0.2,-0.08 -0.21,-0.07 -0.22,-0.06 -0.21,-0.05 -0.22,-0.04 -0.23,-0.03 -0.23,-0.02 -0.23,0 c -2.48,0 -4.5,2.01 -4.5,4.5 0,2.48 2.02,4.5 4.5,4.5 2.48,0 4.5,-2.02 4.5,-4.5 z"
   id="path5496"
   inkscape:connector-curvature="0"
   style="stroke-width:0.5625" />
<line
   x1="396"
   y1="671.03998"
   x2="468"
   y2="671.03998"
   id="line5498"
   style="stroke-width:2.25" />
<line
   x1="423"
   y1="680.03998"
   x2="436.5"
   y2="680.03998"
   id="line5500"
   style="stroke-width:0.5625" />
<polygon
   points="441,680.04 436.5,678.35 436.5,681.73 "
   id="polygon5502"
   style="fill:#ffffff;fill-rule:nonzero;stroke:#ffffff;stroke-width:0" />
<polygon
   points="441,680.04 436.5,678.35 436.5,681.73 "
   id="polygon5504"
   style="fill:#000000;fill-rule:nonzero;stroke-width:0" />
<line
   x1="427.5"
   y1="662.03998"
   x2="441"
   y2="662.03998"
   id="line5506"
   style="stroke-width:0.5625" />
<polygon
   points="423,662.04 427.5,663.73 427.5,660.35 "
   id="polygon5508"
   style="fill:#ffffff;fill-rule:nonzero;stroke:#ffffff;stroke-width:0" />
<polygon
   points="423,662.04 427.5,663.73 427.5,660.35 "
   id="polygon5510"
   style="fill:#000000;fill-rule:nonzero;stroke-width:0" />
<path
   d="m 112.5,608.04 -0.01,-0.23 -0.01,-0.23 -0.03,-0.23 -0.04,-0.22 -0.05,-0.22 -0.06,-0.21 -0.07,-0.21 -0.08,-0.2 -0.09,-0.2 -0.1,-0.2 -0.11,-0.18 -0.12,-0.19 -0.12,-0.17 -0.14,-0.17 -0.14,-0.17 -0.15,-0.15 -0.15,-0.15 -0.17,-0.14 -0.17,-0.14 -0.17,-0.12 -0.19,-0.12 -0.19,-0.11 -0.19,-0.1 -0.2,-0.09 -0.2,-0.08 -0.21,-0.07 -0.22,-0.06 -0.21,-0.05 -0.22,-0.04 -0.23,-0.03 -0.23,-0.02 -0.23,0 c -2.48,0 -4.5,2.01 -4.5,4.5 0,2.48 2.02,4.5 4.5,4.5 2.48,0 4.5,-2.02 4.5,-4.5 z"
   id="path5512"
   inkscape:connector-curvature="0"
   style="fill:#000000;fill-rule:nonzero;stroke-width:0" />
<path
   d="m 112.5,608.04 -0.01,-0.23 -0.01,-0.23 -0.03,-0.23 -0.04,-0.22 -0.05,-0.22 -0.06,-0.21 -0.07,-0.21 -0.08,-0.2 -0.09,-0.2 -0.1,-0.2 -0.11,-0.18 -0.12,-0.19 -0.12,-0.17 -0.14,-0.17 -0.14,-0.17 -0.15,-0.15 -0.15,-0.15 -0.17,-0.14 -0.17,-0.14 -0.17,-0.12 -0.19,-0.12 -0.19,-0.11 -0.19,-0.1 -0.2,-0.09 -0.2,-0.08 -0.21,-0.07 -0.22,-0.06 -0.21,-0.05 -0.22,-0.04 -0.23,-0.03 -0.23,-0.02 -0.23,0 c -2.48,0 -4.5,2.01 -4.5,4.5 0,2.48 2.02,4.5 4.5,4.5 2.48,0 4.5,-2.02 4.5,-4.5 z"
   id="path5514"
   inkscape:connector-curvature="0"
   style="stroke-width:0.5625" />
<path
   d="m 184.5,608.04 -0.01,-0.23 -0.01,-0.23 -0.03,-0.23 -0.04,-0.22 -0.05,-0.22 -0.06,-0.21 -0.07,-0.21 -0.08,-0.2 -0.09,-0.2 -0.1,-0.2 -0.11,-0.18 -0.12,-0.19 -0.12,-0.17 -0.14,-0.17 -0.14,-0.17 -0.15,-0.15 -0.15,-0.15 -0.17,-0.14 -0.17,-0.14 -0.17,-0.12 -0.19,-0.12 -0.19,-0.11 -0.19,-0.1 -0.2,-0.09 -0.2,-0.08 -0.21,-0.07 -0.22,-0.06 -0.21,-0.05 -0.22,-0.04 -0.23,-0.03 -0.23,-0.02 -0.23,0 c -2.48,0 -4.5,2.01 -4.5,4.5 0,2.48 2.02,4.5 4.5,4.5 2.48,0 4.5,-2.02 4.5,-4.5 z"
   id="path5516"
   inkscape:connector-curvature="0"
   style="fill:#000000;fill-rule:nonzero;stroke-width:0" />
<path
   d="m 184.5,608.04 -0.01,-0.23 -0.01,-0.23 -0.03,-0.23 -0.04,-0.22 -0.05,-0.22 -0.06,-0.21 -0.07,-0.21 -0.08,-0.2 -0.09,-0.2 -0.1,-0.2 -0.11,-0.18 -0.12,-0.19 -0.12,-0.17 -0.14,-0.17 -0.14,-0.17 -0.15,-0.15 -0.15,-0.15 -0.17,-0.14 -0.17,-0.14 -0.17,-0.12 -0.19,-0.12 -0.19,-0.11 -0.19,-0.1 -0.2,-0.09 -0.2,-0.08 -0.21,-0.07 -0.22,-0.06 -0.21,-0.05 -0.22,-0.04 -0.23,-0.03 -0.23,-0.02 -0.23,0 c -2.48,0 -4.5,2.01 -4.5,4.5 0,2.48 2.02,4.5 4.5,4.5 2.48,0 4.5,-2.02 4.5,-4.5 z"
   id="path5518"
   inkscape:connector-curvature="0"
   style="stroke-width:0.5625" />
<polyline
   points="72,644.04 108,608.04 72,572.04 "
   id="polyline5520"
   style="stroke-width:1.125" />
<line
   x1="92.25"
   y1="630.53998"
   x2="100.32"
   y2="622.46997"
   id="line5522"
   style="stroke-width:0.5625" />
<polygon
   points="103.5,619.29 99.125,621.28 101.51,623.66 "
   id="polygon5524"
   style="fill:#ffffff;fill-rule:nonzero;stroke:#ffffff;stroke-width:0" />
<polygon
   points="103.5,619.29 99.125,621.28 101.51,623.66 "
   id="polygon5526"
   style="fill:#000000;fill-rule:nonzero;stroke-width:0" />
<line
   x1="94.5"
   y1="614.78998"
   x2="86.433998"
   y2="622.85999"
   id="line5528"
   style="stroke-width:0.5625" />
<polygon
   points="83.25,626.04 87.625,624.05 85.238,621.66 "
   id="polygon5530"
   style="fill:#ffffff;fill-rule:nonzero;stroke:#ffffff;stroke-width:0" />
<polygon
   points="83.25,626.04 87.625,624.05 85.238,621.66 "
   id="polygon5532"
   style="fill:#000000;fill-rule:nonzero;stroke-width:0" />
<line
   x1="81"
   y1="587.78998"
   x2="89.066002"
   y2="595.85999"
   id="line5534"
   style="stroke-width:0.5625" />
<polygon
   points="92.25,599.04 90.262,594.66 87.875,597.05 "
   id="polygon5536"
   style="fill:#ffffff;fill-rule:nonzero;stroke:#ffffff;stroke-width:0" />
<polygon
   points="92.25,599.04 90.262,594.66 87.875,597.05 "
   id="polygon5538"
   style="fill:#000000;fill-rule:nonzero;stroke-width:0" />
<line
   x1="101.25"
   y1="594.53998"
   x2="93.183998"
   y2="586.46997"
   id="line5540"
   style="stroke-width:0.5625" />
<polygon
   points="90,583.29 91.988,587.66 94.375,585.28 "
   id="polygon5542"
   style="fill:#ffffff;fill-rule:nonzero;stroke:#ffffff;stroke-width:0" />
<polygon
   points="90,583.29 91.988,587.66 94.375,585.28 "
   id="polygon5544"
   style="fill:#000000;fill-rule:nonzero;stroke-width:0" />
<path
   d="m 112.5,518.04 -0.01,-0.23 -0.01,-0.23 -0.03,-0.23 -0.04,-0.22 -0.05,-0.22 -0.06,-0.21 -0.07,-0.21 -0.08,-0.2 -0.09,-0.2 -0.1,-0.2 -0.11,-0.18 -0.12,-0.19 -0.12,-0.17 -0.14,-0.17 -0.14,-0.17 -0.15,-0.15 -0.15,-0.15 -0.17,-0.14 -0.17,-0.14 -0.17,-0.12 -0.19,-0.12 -0.19,-0.11 -0.19,-0.1 -0.2,-0.09 -0.2,-0.08 -0.21,-0.07 -0.22,-0.06 -0.21,-0.05 -0.22,-0.04 -0.23,-0.03 -0.23,-0.02 -0.23,0 c -2.48,0 -4.5,2.01 -4.5,4.5 0,2.48 2.02,4.5 4.5,4.5 2.48,0 4.5,-2.02 4.5,-4.5 z"
   id="path5546"
   inkscape:connector-curvature="0"
   style="fill:#000000;fill-rule:nonzero;stroke-width:0" />
<path
   d="m 112.5,518.04 -0.01,-0.23 -0.01,-0.23 -0.03,-0.23 -0.04,-0.22 -0.05,-0.22 -0.06,-0.21 -0.07,-0.21 -0.08,-0.2 -0.09,-0.2 -0.1,-0.2 -0.11,-0.18 -0.12,-0.19 -0.12,-0.17 -0.14,-0.17 -0.14,-0.17 -0.15,-0.15 -0.15,-0.15 -0.17,-0.14 -0.17,-0.14 -0.17,-0.12 -0.19,-0.12 -0.19,-0.11 -0.19,-0.1 -0.2,-0.09 -0.2,-0.08 -0.21,-0.07 -0.22,-0.06 -0.21,-0.05 -0.22,-0.04 -0.23,-0.03 -0.23,-0.02 -0.23,0 c -2.48,0 -4.5,2.01 -4.5,4.5 0,2.48 2.02,4.5 4.5,4.5 2.48,0 4.5,-2.02 4.5,-4.5 z"
   id="path5548"
   inkscape:connector-curvature="0"
   style="stroke-width:0.5625" />
<path
   d="m 184.5,518.04 -0.01,-0.23 -0.01,-0.23 -0.03,-0.23 -0.04,-0.22 -0.05,-0.22 -0.06,-0.21 -0.07,-0.21 -0.08,-0.2 -0.09,-0.2 -0.1,-0.2 -0.11,-0.18 -0.12,-0.19 -0.12,-0.17 -0.14,-0.17 -0.14,-0.17 -0.15,-0.15 -0.15,-0.15 -0.17,-0.14 -0.17,-0.14 -0.17,-0.12 -0.19,-0.12 -0.19,-0.11 -0.19,-0.1 -0.2,-0.09 -0.2,-0.08 -0.21,-0.07 -0.22,-0.06 -0.21,-0.05 -0.22,-0.04 -0.23,-0.03 -0.23,-0.02 -0.23,0 c -2.48,0 -4.5,2.01 -4.5,4.5 0,2.48 2.02,4.5 4.5,4.5 2.48,0 4.5,-2.02 4.5,-4.5 z"
   id="path5550"
   inkscape:connector-curvature="0"
   style="fill:#000000;fill-rule:nonzero;stroke-width:0" />
<path
   d="m 184.5,518.04 -0.01,-0.23 -0.01,-0.23 -0.03,-0.23 -0.04,-0.22 -0.05,-0.22 -0.06,-0.21 -0.07,-0.21 -0.08,-0.2 -0.09,-0.2 -0.1,-0.2 -0.11,-0.18 -0.12,-0.19 -0.12,-0.17 -0.14,-0.17 -0.14,-0.17 -0.15,-0.15 -0.15,-0.15 -0.17,-0.14 -0.17,-0.14 -0.17,-0.12 -0.19,-0.12 -0.19,-0.11 -0.19,-0.1 -0.2,-0.09 -0.2,-0.08 -0.21,-0.07 -0.22,-0.06 -0.21,-0.05 -0.22,-0.04 -0.23,-0.03 -0.23,-0.02 -0.23,0 c -2.48,0 -4.5,2.01 -4.5,4.5 0,2.48 2.02,4.5 4.5,4.5 2.48,0 4.5,-2.02 4.5,-4.5 z"
   id="path5552"
   inkscape:connector-curvature="0"
   style="stroke-width:0.5625" />
<polyline
   points="72,554.04 108,518.04 72,482.04 "
   id="polyline5554"
   style="stroke-width:1.125" />
<polyline
   points="216,554.04 180,518.04 216,482.04 "
   id="polyline5556"
   style="stroke-width:1.125" />
<line
   x1="92.25"
   y1="540.53998"
   x2="100.32"
   y2="532.46997"
   id="line5558"
   style="stroke-width:0.5625" />
<polygon
   points="103.5,529.29 99.125,531.28 101.51,533.66 "
   id="polygon5560"
   style="fill:#ffffff;fill-rule:nonzero;stroke:#ffffff;stroke-width:0" />
<polygon
   points="103.5,529.29 99.125,531.28 101.51,533.66 "
   id="polygon5562"
   style="fill:#000000;fill-rule:nonzero;stroke-width:0" />
<line
   x1="94.5"
   y1="524.78998"
   x2="86.433998"
   y2="532.85999"
   id="line5564"
   style="stroke-width:0.5625" />
<polygon
   points="83.25,536.04 87.625,534.05 85.238,531.66 "
   id="polygon5566"
   style="fill:#ffffff;fill-rule:nonzero;stroke:#ffffff;stroke-width:0" />
<polygon
   points="83.25,536.04 87.625,534.05 85.238,531.66 "
   id="polygon5568"
   style="fill:#000000;fill-rule:nonzero;stroke-width:0" />
<line
   x1="81"
   y1="497.79001"
   x2="89.066002"
   y2="505.85999"
   id="line5570"
   style="stroke-width:0.5625" />
<polygon
   points="92.25,509.04 90.262,504.66 87.875,507.05 "
   id="polygon5572"
   style="fill:#ffffff;fill-rule:nonzero;stroke:#ffffff;stroke-width:0" />
<polygon
   points="92.25,509.04 90.262,504.66 87.875,507.05 "
   id="polygon5574"
   style="fill:#000000;fill-rule:nonzero;stroke-width:0" />
<line
   x1="101.25"
   y1="504.54001"
   x2="93.183998"
   y2="496.47"
   id="line5576"
   style="stroke-width:0.5625" />
<polygon
   points="90,493.29 91.988,497.66 94.375,495.28 "
   id="polygon5578"
   style="fill:#ffffff;fill-rule:nonzero;stroke:#ffffff;stroke-width:0" />
<polygon
   points="90,493.29 91.988,497.66 94.375,495.28 "
   id="polygon5580"
   style="fill:#000000;fill-rule:nonzero;stroke-width:0" />
<line
   x1="207"
   y1="497.79001"
   x2="198.92999"
   y2="505.85999"
   id="line5582"
   style="stroke-width:0.5625" />
<polygon
   points="195.75,509.04 200.12,507.05 197.74,504.66 "
   id="polygon5584"
   style="fill:#ffffff;fill-rule:nonzero;stroke:#ffffff;stroke-width:0" />
<polygon
   points="195.75,509.04 200.12,507.05 197.74,504.66 "
   id="polygon5586"
   style="fill:#000000;fill-rule:nonzero;stroke-width:0" />
<line
   x1="189"
   y1="533.78998"
   x2="197.07001"
   y2="541.85999"
   id="line5588"
   style="stroke-width:0.5625" />
<polygon
   points="200.25,545.04 198.26,540.66 195.88,543.05 "
   id="polygon5590"
   style="fill:#ffffff;fill-rule:nonzero;stroke:#ffffff;stroke-width:0" />
<polygon
   points="200.25,545.04 198.26,540.66 195.88,543.05 "
   id="polygon5592"
   style="fill:#000000;fill-rule:nonzero;stroke-width:0" />
<line
   x1="207"
   y1="538.28998"
   x2="198.92999"
   y2="530.21997"
   id="line5594"
   style="stroke-width:0.5625" />
<polygon
   points="195.75,527.04 197.74,531.41 200.12,529.03 "
   id="polygon5596"
   style="fill:#ffffff;fill-rule:nonzero;stroke:#ffffff;stroke-width:0" />
<polygon
   points="195.75,527.04 197.74,531.41 200.12,529.03 "
   id="polygon5598"
   style="fill:#000000;fill-rule:nonzero;stroke-width:0" />
<line
   x1="189"
   y1="502.29001"
   x2="197.07001"
   y2="494.22"
   id="line5600"
   style="stroke-width:0.5625" />
<polygon
   points="200.25,491.04 195.88,493.03 198.26,495.41 "
   id="polygon5602"
   style="fill:#ffffff;fill-rule:nonzero;stroke:#ffffff;stroke-width:0" />
<polygon
   points="200.25,491.04 195.88,493.03 198.26,495.41 "
   id="polygon5604"
   style="fill:#000000;fill-rule:nonzero;stroke-width:0" />
<path
   d="m 400.5,608.04 -0.01,-0.23 -0.01,-0.23 -0.03,-0.23 -0.04,-0.22 -0.05,-0.22 -0.06,-0.21 -0.07,-0.21 -0.08,-0.2 -0.09,-0.2 -0.1,-0.2 -0.11,-0.18 -0.12,-0.19 -0.12,-0.17 -0.14,-0.17 -0.14,-0.17 -0.15,-0.15 -0.15,-0.15 -0.17,-0.14 -0.17,-0.14 -0.17,-0.12 -0.19,-0.12 -0.19,-0.11 -0.19,-0.1 -0.2,-0.09 -0.2,-0.08 -0.21,-0.07 -0.22,-0.06 -0.21,-0.05 -0.22,-0.04 -0.23,-0.03 -0.23,-0.02 -0.23,0 c -2.48,0 -4.5,2.01 -4.5,4.5 0,2.48 2.02,4.5 4.5,4.5 2.48,0 4.5,-2.02 4.5,-4.5 z"
   id="path5606"
   inkscape:connector-curvature="0"
   style="fill:#000000;fill-rule:nonzero;stroke-width:0" />
<path
   d="m 400.5,608.04 -0.01,-0.23 -0.01,-0.23 -0.03,-0.23 -0.04,-0.22 -0.05,-0.22 -0.06,-0.21 -0.07,-0.21 -0.08,-0.2 -0.09,-0.2 -0.1,-0.2 -0.11,-0.18 -0.12,-0.19 -0.12,-0.17 -0.14,-0.17 -0.14,-0.17 -0.15,-0.15 -0.15,-0.15 -0.17,-0.14 -0.17,-0.14 -0.17,-0.12 -0.19,-0.12 -0.19,-0.11 -0.19,-0.1 -0.2,-0.09 -0.2,-0.08 -0.21,-0.07 -0.22,-0.06 -0.21,-0.05 -0.22,-0.04 -0.23,-0.03 -0.23,-0.02 -0.23,0 c -2.48,0 -4.5,2.01 -4.5,4.5 0,2.48 2.02,4.5 4.5,4.5 2.48,0 4.5,-2.02 4.5,-4.5 z"
   id="path5608"
   inkscape:connector-curvature="0"
   style="stroke-width:0.5625" />
<path
   d="m 472.5,608.04 -0.01,-0.23 -0.01,-0.23 -0.03,-0.23 -0.04,-0.22 -0.05,-0.22 -0.06,-0.21 -0.07,-0.21 -0.08,-0.2 -0.09,-0.2 -0.1,-0.2 -0.11,-0.18 -0.12,-0.19 -0.12,-0.17 -0.14,-0.17 -0.14,-0.17 -0.15,-0.15 -0.15,-0.15 -0.17,-0.14 -0.17,-0.14 -0.17,-0.12 -0.19,-0.12 -0.19,-0.11 -0.19,-0.1 -0.2,-0.09 -0.2,-0.08 -0.21,-0.07 -0.22,-0.06 -0.21,-0.05 -0.22,-0.04 -0.23,-0.03 -0.23,-0.02 -0.23,0 c -2.48,0 -4.5,2.01 -4.5,4.5 0,2.48 2.02,4.5 4.5,4.5 2.48,0 4.5,-2.02 4.5,-4.5 z"
   id="path5610"
   inkscape:connector-curvature="0"
   style="fill:#000000;fill-rule:nonzero;stroke-width:0" />
<path
   d="m 472.5,608.04 -0.01,-0.23 -0.01,-0.23 -0.03,-0.23 -0.04,-0.22 -0.05,-0.22 -0.06,-0.21 -0.07,-0.21 -0.08,-0.2 -0.09,-0.2 -0.1,-0.2 -0.11,-0.18 -0.12,-0.19 -0.12,-0.17 -0.14,-0.17 -0.14,-0.17 -0.15,-0.15 -0.15,-0.15 -0.17,-0.14 -0.17,-0.14 -0.17,-0.12 -0.19,-0.12 -0.19,-0.11 -0.19,-0.1 -0.2,-0.09 -0.2,-0.08 -0.21,-0.07 -0.22,-0.06 -0.21,-0.05 -0.22,-0.04 -0.23,-0.03 -0.23,-0.02 -0.23,0 c -2.48,0 -4.5,2.01 -4.5,4.5 0,2.48 2.02,4.5 4.5,4.5 2.48,0 4.5,-2.02 4.5,-4.5 z"
   id="path5612"
   inkscape:connector-curvature="0"
   style="stroke-width:0.5625" />
<polyline
   points="360,644.04 396,608.04 360,572.04 "
   id="polyline5614"
   style="stroke-width:1.125" />
<line
   x1="380.25"
   y1="630.53998"
   x2="388.32001"
   y2="622.46997"
   id="line5616"
   style="stroke-width:0.5625" />
<polygon
   points="391.5,619.29 387.12,621.28 389.51,623.66 "
   id="polygon5618"
   style="fill:#ffffff;fill-rule:nonzero;stroke:#ffffff;stroke-width:0" />
<polygon
   points="391.5,619.29 387.12,621.28 389.51,623.66 "
   id="polygon5620"
   style="fill:#000000;fill-rule:nonzero;stroke-width:0" />
<line
   x1="382.5"
   y1="614.78998"
   x2="374.42999"
   y2="622.85999"
   id="line5622"
   style="stroke-width:0.5625" />
<polygon
   points="371.25,626.04 375.62,624.05 373.24,621.66 "
   id="polygon5624"
   style="fill:#ffffff;fill-rule:nonzero;stroke:#ffffff;stroke-width:0" />
<polygon
   points="371.25,626.04 375.62,624.05 373.24,621.66 "
   id="polygon5626"
   style="fill:#000000;fill-rule:nonzero;stroke-width:0" />
<line
   x1="369"
   y1="587.78998"
   x2="377.07001"
   y2="595.85999"
   id="line5628"
   style="stroke-width:0.5625" />
<polygon
   points="380.25,599.04 378.26,594.66 375.88,597.05 "
   id="polygon5630"
   style="fill:#ffffff;fill-rule:nonzero;stroke:#ffffff;stroke-width:0" />
<polygon
   points="380.25,599.04 378.26,594.66 375.88,597.05 "
   id="polygon5632"
   style="fill:#000000;fill-rule:nonzero;stroke-width:0" />
<line
   x1="389.25"
   y1="594.53998"
   x2="381.17999"
   y2="586.46997"
   id="line5634"
   style="stroke-width:0.5625" />
<polygon
   points="378,583.29 379.99,587.66 382.38,585.28 "
   id="polygon5636"
   style="fill:#ffffff;fill-rule:nonzero;stroke:#ffffff;stroke-width:0" />
<polygon
   points="378,583.29 379.99,587.66 382.38,585.28 "
   id="polygon5638"
   style="fill:#000000;fill-rule:nonzero;stroke-width:0" />
<line
   x1="396"
   y1="608.03998"
   x2="468"
   y2="608.03998"
   id="line5640"
   style="stroke-width:2.25" />
<line
   x1="423"
   y1="617.03998"
   x2="436.5"
   y2="617.03998"
   id="line5642"
   style="stroke-width:0.5625" />
<polygon
   points="441,617.04 436.5,615.35 436.5,618.73 "
   id="polygon5644"
   style="fill:#ffffff;fill-rule:nonzero;stroke:#ffffff;stroke-width:0" />
<polygon
   points="441,617.04 436.5,615.35 436.5,618.73 "
   id="polygon5646"
   style="fill:#000000;fill-rule:nonzero;stroke-width:0" />
<line
   x1="427.5"
   y1="599.03998"
   x2="441"
   y2="599.03998"
   id="line5648"
   style="stroke-width:0.5625" />
<polygon
   points="423,599.04 427.5,600.73 427.5,597.35 "
   id="polygon5650"
   style="fill:#ffffff;fill-rule:nonzero;stroke:#ffffff;stroke-width:0" />
<polygon
   points="423,599.04 427.5,600.73 427.5,597.35 "
   id="polygon5652"
   style="fill:#000000;fill-rule:nonzero;stroke-width:0" />
<path
   d="m 400.5,518.04 -0.01,-0.23 -0.01,-0.23 -0.03,-0.23 -0.04,-0.22 -0.05,-0.22 -0.06,-0.21 -0.07,-0.21 -0.08,-0.2 -0.09,-0.2 -0.1,-0.2 -0.11,-0.18 -0.12,-0.19 -0.12,-0.17 -0.14,-0.17 -0.14,-0.17 -0.15,-0.15 -0.15,-0.15 -0.17,-0.14 -0.17,-0.14 -0.17,-0.12 -0.19,-0.12 -0.19,-0.11 -0.19,-0.1 -0.2,-0.09 -0.2,-0.08 -0.21,-0.07 -0.22,-0.06 -0.21,-0.05 -0.22,-0.04 -0.23,-0.03 -0.23,-0.02 -0.23,0 c -2.48,0 -4.5,2.01 -4.5,4.5 0,2.48 2.02,4.5 4.5,4.5 2.48,0 4.5,-2.02 4.5,-4.5 z"
   id="path5654"
   inkscape:connector-curvature="0"
   style="fill:#000000;fill-rule:nonzero;stroke-width:0" />
<path
   d="m 400.5,518.04 -0.01,-0.23 -0.01,-0.23 -0.03,-0.23 -0.04,-0.22 -0.05,-0.22 -0.06,-0.21 -0.07,-0.21 -0.08,-0.2 -0.09,-0.2 -0.1,-0.2 -0.11,-0.18 -0.12,-0.19 -0.12,-0.17 -0.14,-0.17 -0.14,-0.17 -0.15,-0.15 -0.15,-0.15 -0.17,-0.14 -0.17,-0.14 -0.17,-0.12 -0.19,-0.12 -0.19,-0.11 -0.19,-0.1 -0.2,-0.09 -0.2,-0.08 -0.21,-0.07 -0.22,-0.06 -0.21,-0.05 -0.22,-0.04 -0.23,-0.03 -0.23,-0.02 -0.23,0 c -2.48,0 -4.5,2.01 -4.5,4.5 0,2.48 2.02,4.5 4.5,4.5 2.48,0 4.5,-2.02 4.5,-4.5 z"
   id="path5656"
   inkscape:connector-curvature="0"
   style="stroke-width:0.5625" />
<path
   d="m 472.5,518.04 -0.01,-0.23 -0.01,-0.23 -0.03,-0.23 -0.04,-0.22 -0.05,-0.22 -0.06,-0.21 -0.07,-0.21 -0.08,-0.2 -0.09,-0.2 -0.1,-0.2 -0.11,-0.18 -0.12,-0.19 -0.12,-0.17 -0.14,-0.17 -0.14,-0.17 -0.15,-0.15 -0.15,-0.15 -0.17,-0.14 -0.17,-0.14 -0.17,-0.12 -0.19,-0.12 -0.19,-0.11 -0.19,-0.1 -0.2,-0.09 -0.2,-0.08 -0.21,-0.07 -0.22,-0.06 -0.21,-0.05 -0.22,-0.04 -0.23,-0.03 -0.23,-0.02 -0.23,0 c -2.48,0 -4.5,2.01 -4.5,4.5 0,2.48 2.02,4.5 4.5,4.5 2.48,0 4.5,-2.02 4.5,-4.5 z"
   id="path5658"
   inkscape:connector-curvature="0"
   style="fill:#000000;fill-rule:nonzero;stroke-width:0" />
<path
   d="m 472.5,518.04 -0.01,-0.23 -0.01,-0.23 -0.03,-0.23 -0.04,-0.22 -0.05,-0.22 -0.06,-0.21 -0.07,-0.21 -0.08,-0.2 -0.09,-0.2 -0.1,-0.2 -0.11,-0.18 -0.12,-0.19 -0.12,-0.17 -0.14,-0.17 -0.14,-0.17 -0.15,-0.15 -0.15,-0.15 -0.17,-0.14 -0.17,-0.14 -0.17,-0.12 -0.19,-0.12 -0.19,-0.11 -0.19,-0.1 -0.2,-0.09 -0.2,-0.08 -0.21,-0.07 -0.22,-0.06 -0.21,-0.05 -0.22,-0.04 -0.23,-0.03 -0.23,-0.02 -0.23,0 c -2.48,0 -4.5,2.01 -4.5,4.5 0,2.48 2.02,4.5 4.5,4.5 2.48,0 4.5,-2.02 4.5,-4.5 z"
   id="path5660"
   inkscape:connector-curvature="0"
   style="stroke-width:0.5625" />
<polyline
   points="360,554.04 396,518.04 360,482.04 "
   id="polyline5662"
   style="stroke-width:1.125" />
<polyline
   points="504,554.04 468,518.04 504,482.04 "
   id="polyline5664"
   style="stroke-width:1.125" />
<line
   x1="380.25"
   y1="540.53998"
   x2="388.32001"
   y2="532.46997"
   id="line5666"
   style="stroke-width:0.5625" />
<polygon
   points="391.5,529.29 387.12,531.28 389.51,533.66 "
   id="polygon5668"
   style="fill:#ffffff;fill-rule:nonzero;stroke:#ffffff;stroke-width:0" />
<polygon
   points="391.5,529.29 387.12,531.28 389.51,533.66 "
   id="polygon5670"
   style="fill:#000000;fill-rule:nonzero;stroke-width:0" />
<line
   x1="382.5"
   y1="524.78998"
   x2="374.42999"
   y2="532.85999"
   id="line5672"
   style="stroke-width:0.5625" />
<polygon
   points="371.25,536.04 375.62,534.05 373.24,531.66 "
   id="polygon5674"
   style="fill:#ffffff;fill-rule:nonzero;stroke:#ffffff;stroke-width:0" />
<polygon
   points="371.25,536.04 375.62,534.05 373.24,531.66 "
   id="polygon5676"
   style="fill:#000000;fill-rule:nonzero;stroke-width:0" />
<line
   x1="369"
   y1="497.79001"
   x2="377.07001"
   y2="505.85999"
   id="line5678"
   style="stroke-width:0.5625" />
<polygon
   points="380.25,509.04 378.26,504.66 375.88,507.05 "
   id="polygon5680"
   style="fill:#ffffff;fill-rule:nonzero;stroke:#ffffff;stroke-width:0" />
<polygon
   points="380.25,509.04 378.26,504.66 375.88,507.05 "
   id="polygon5682"
   style="fill:#000000;fill-rule:nonzero;stroke-width:0" />
<line
   x1="389.25"
   y1="504.54001"
   x2="381.17999"
   y2="496.47"
   id="line5684"
   style="stroke-width:0.5625" />
<polygon
   points="378,493.29 379.99,497.66 382.38,495.28 "
   id="polygon5686"
   style="fill:#ffffff;fill-rule:nonzero;stroke:#ffffff;stroke-width:0" />
<polygon
   points="378,493.29 379.99,497.66 382.38,495.28 "
   id="polygon5688"
   style="fill:#000000;fill-rule:nonzero;stroke-width:0" />
<line
   x1="495"
   y1="497.79001"
   x2="486.92999"
   y2="505.85999"
   id="line5690"
   style="stroke-width:0.5625" />
<polygon
   points="483.75,509.04 488.12,507.05 485.74,504.66 "
   id="polygon5692"
   style="fill:#ffffff;fill-rule:nonzero;stroke:#ffffff;stroke-width:0" />
<polygon
   points="483.75,509.04 488.12,507.05 485.74,504.66 "
   id="polygon5694"
   style="fill:#000000;fill-rule:nonzero;stroke-width:0" />
<line
   x1="477"
   y1="533.78998"
   x2="485.07001"
   y2="541.85999"
   id="line5696"
   style="stroke-width:0.5625" />
<polygon
   points="488.25,545.04 486.26,540.66 483.88,543.05 "
   id="polygon5698"
   style="fill:#ffffff;fill-rule:nonzero;stroke:#ffffff;stroke-width:0" />
<polygon
   points="488.25,545.04 486.26,540.66 483.88,543.05 "
   id="polygon5700"
   style="fill:#000000;fill-rule:nonzero;stroke-width:0" />
<line
   x1="495"
   y1="538.28998"
   x2="486.92999"
   y2="530.21997"
   id="line5702"
   style="stroke-width:0.5625" />
<polygon
   points="483.75,527.04 485.74,531.41 488.12,529.03 "
   id="polygon5704"
   style="fill:#ffffff;fill-rule:nonzero;stroke:#ffffff;stroke-width:0" />
<polygon
   points="483.75,527.04 485.74,531.41 488.12,529.03 "
   id="polygon5706"
   style="fill:#000000;fill-rule:nonzero;stroke-width:0" />
<line
   x1="477"
   y1="502.29001"
   x2="485.07001"
   y2="494.22"
   id="line5708"
   style="stroke-width:0.5625" />
<polygon
   points="488.25,491.04 483.88,493.03 486.26,495.41 "
   id="polygon5710"
   style="fill:#ffffff;fill-rule:nonzero;stroke:#ffffff;stroke-width:0" />
<polygon
   points="488.25,491.04 483.88,493.03 486.26,495.41 "
   id="polygon5712"
   style="fill:#000000;fill-rule:nonzero;stroke-width:0" />
<line
   x1="396"
   y1="518.03998"
   x2="468"
   y2="518.03998"
   id="line5714"
   style="stroke-width:2.25" />
<line
   x1="423"
   y1="527.03998"
   x2="436.5"
   y2="527.03998"
   id="line5716"
   style="stroke-width:0.5625" />
<polygon
   points="441,527.04 436.5,525.35 436.5,528.73 "
   id="polygon5718"
   style="fill:#ffffff;fill-rule:nonzero;stroke:#ffffff;stroke-width:0" />
<polygon
   points="441,527.04 436.5,525.35 436.5,528.73 "
   id="polygon5720"
   style="fill:#000000;fill-rule:nonzero;stroke-width:0" />
<line
   x1="427.5"
   y1="509.04001"
   x2="441"
   y2="509.04001"
   id="line5722"
   style="stroke-width:0.5625" />
<polygon
   points="423,509.04 427.5,510.73 427.5,507.35 "
   id="polygon5724"
   style="fill:#ffffff;fill-rule:nonzero;stroke:#ffffff;stroke-width:0" />
<polygon
   points="423,509.04 427.5,510.73 427.5,507.35 "
   id="polygon5726"
   style="fill:#000000;fill-rule:nonzero;stroke-width:0" />
<line
   x1="252"
   y1="680.03998"
   x2="317.25"
   y2="680.03998"
   id="line5728"
   style="stroke-width:1.6875" />
<polygon
   points="324,680.04 317.25,677.23 317.25,682.85 "
   id="polygon5730"
   style="fill:#ffffff;fill-rule:nonzero;stroke:#ffffff;stroke-width:0" />
<polygon
   points="324,680.04 317.25,677.23 317.25,682.85 "
   id="polygon5732"
   style="fill:#000000;fill-rule:nonzero;stroke-width:0" />
<line
   x1="324"
   y1="662.03998"
   x2="258.75"
   y2="662.03998"
   id="line5734"
   style="stroke-width:1.6875" />
<polygon
   points="252,662.04 258.75,664.85 258.75,659.23 "
   id="polygon5736"
   style="fill:#ffffff;fill-rule:nonzero;stroke:#ffffff;stroke-width:0" />
<polygon
   points="252,662.04 258.75,664.85 258.75,659.23 "
   id="polygon5738"
   style="fill:#000000;fill-rule:nonzero;stroke-width:0" />
<line
   x1="252"
   y1="531.53998"
   x2="317.25"
   y2="531.53998"
   id="line5740"
   style="stroke-width:1.6875" />
<polygon
   points="324,531.54 317.25,528.73 317.25,534.35 "
   id="polygon5742"
   style="fill:#ffffff;fill-rule:nonzero;stroke:#ffffff;stroke-width:0" />
<polygon
   points="324,531.54 317.25,528.73 317.25,534.35 "
   id="polygon5744"
   style="fill:#000000;fill-rule:nonzero;stroke-width:0" />
<line
   x1="324"
   y1="504.54001"
   x2="258.75"
   y2="504.54001"
   id="line5746"
   style="stroke-width:1.6875" />
<polygon
   points="252,504.54 258.75,507.35 258.75,501.73 "
   id="polygon5748"
   style="fill:#ffffff;fill-rule:nonzero;stroke:#ffffff;stroke-width:0" />
<polygon
   points="252,504.54 258.75,507.35 258.75,501.73 "
   id="polygon5750"
   style="fill:#000000;fill-rule:nonzero;stroke-width:0" />
</g></svg>
