<?xml version="1.0" encoding="UTF-8" standalone="no"?>
<svg
   xmlns:dc="http://purl.org/dc/elements/1.1/"
   xmlns:cc="http://creativecommons.org/ns#"
   xmlns:rdf="http://www.w3.org/1999/02/22-rdf-syntax-ns#"
   xmlns:svg="http://www.w3.org/2000/svg"
   xmlns="http://www.w3.org/2000/svg"
   xmlns:sodipodi="http://sodipodi.sourceforge.net/DTD/sodipodi-0.dtd"
   xmlns:inkscape="http://www.inkscape.org/namespaces/inkscape"
   version="1.1"
   id="body"
   width="8in"
   height="8in"
   viewBox="0 0 1 1"
   preserveAspectRatio="none"
   inkscape:version="0.48.2 r9819"
   sodipodi:docname="Euler05.svg">
  <metadata
     id="metadata7744">
    <rdf:RDF>
      <cc:Work
         rdf:about="">
        <dc:format>image/svg+xml</dc:format>
        <dc:type
           rdf:resource="http://purl.org/dc/dcmitype/StillImage" />
      </cc:Work>
    </rdf:RDF>
  </metadata>
  <defs
     id="defs7742" />
  <sodipodi:namedview
     pagecolor="#ffffff"
     bordercolor="#666666"
     borderopacity="1"
     objecttolerance="10"
     gridtolerance="10"
     guidetolerance="10"
     inkscape:pageopacity="0"
     inkscape:pageshadow="2"
     inkscape:window-width="1233"
     inkscape:window-height="877"
     id="namedview7740"
     showgrid="false"
     inkscape:zoom="0.92709556"
     inkscape:cx="360"
     inkscape:cy="360"
     inkscape:window-x="0"
     inkscape:window-y="0"
     inkscape:window-maximized="0"
     inkscape:current-layer="body" />
  <title
     id="title7566">SVG drawing</title>
  <desc
     id="desc7568">This was produced by version 4.4 of GNU libplot, a free library for exporting 2-D vector graphics.</desc>
  <g
     id="content"
     transform="matrix(0.0017361,0,0,-0.0017361,0.00264831,1.5773305)"
     xml:space="preserve"
     stroke-miterlimit="10.433"
     font-style="normal"
     font-variant="normal"
     font-weight="normal"
     font-stretch="normal"
     font-size-adjust="none"
     letter-spacing="normal"
     word-spacing="normal"
     style="font-style:normal;font-variant:normal;font-weight:normal;font-stretch:normal;letter-spacing:normal;word-spacing:normal;text-anchor:start;fill:none;stroke:#000000;stroke-width:1;stroke-linecap:butt;stroke-linejoin:miter;stroke-miterlimit:10.43299961;stroke-opacity:1;stroke-dasharray:none;stroke-dashoffset:0">
<polygon
   points="468,680.04 360,572.04 468,572.04 "
   id="polygon7572"
   style="fill:#ffffff;stroke:#ffffff;stroke-width:0" />
<polygon
   points="468,680.04 360,572.04 468,572.04 "
   id="polygon7574"
   style="stroke-width:0.5625" />
<polygon
   points="360,680.04 360,572.04 468,680.04 "
   id="polygon7576"
   style="fill:#ffffff;stroke:#ffffff;stroke-width:0" />
<polygon
   points="360,680.04 360,572.04 468,680.04 "
   id="polygon7578"
   style="stroke-width:0.5625" />
<line
   x1="252"
   y1="639.53998"
   x2="317.25"
   y2="639.53998"
   id="line7580"
   style="stroke-width:1.6875" />
<polygon
   points="324,639.54 317.25,636.73 317.25,642.35 "
   id="polygon7582"
   style="fill:#ffffff;fill-rule:nonzero;stroke:#ffffff;stroke-width:0" />
<polygon
   points="324,639.54 317.25,636.73 317.25,642.35 "
   id="polygon7584"
   style="fill:#000000;fill-rule:nonzero;stroke-width:0" />
<line
   x1="324"
   y1="612.53998"
   x2="258.75"
   y2="612.53998"
   id="line7586"
   style="stroke-width:1.6875" />
<polygon
   points="252,612.54 258.75,615.35 258.75,609.73 "
   id="polygon7588"
   style="fill:#ffffff;fill-rule:nonzero;stroke:#ffffff;stroke-width:0" />
<polygon
   points="252,612.54 258.75,615.35 258.75,609.73 "
   id="polygon7590"
   style="fill:#000000;fill-rule:nonzero;stroke-width:0" />
<polygon
   points="108,680.04 108,572.04 216,572.04 216,680.04 "
   id="polygon7592"
   style="fill:#ffffff;fill-rule:nonzero;stroke:#ffffff;stroke-width:0" />
<polygon
   points="108,680.04 108,572.04 216,572.04 216,680.04 "
   id="polygon7594"
   style="stroke-width:1.125" />
<path
   d="m 112.5,680.04 -0.01,-0.23 -0.01,-0.23 -0.03,-0.23 -0.04,-0.22 -0.05,-0.22 -0.06,-0.21 -0.07,-0.21 -0.08,-0.2 -0.09,-0.2 -0.1,-0.2 -0.11,-0.18 -0.12,-0.19 -0.12,-0.17 -0.14,-0.17 -0.14,-0.17 -0.15,-0.15 -0.15,-0.15 -0.17,-0.14 -0.17,-0.14 -0.17,-0.12 -0.19,-0.12 -0.19,-0.11 -0.19,-0.1 -0.2,-0.09 -0.2,-0.08 -0.21,-0.07 -0.22,-0.06 -0.21,-0.05 -0.22,-0.04 -0.23,-0.03 -0.23,-0.02 -0.23,0 c -2.48,0 -4.5,2.01 -4.5,4.5 0,2.48 2.02,4.5 4.5,4.5 2.48,0 4.5,-2.02 4.5,-4.5 z"
   id="path7596"
   inkscape:connector-curvature="0"
   style="fill:#000000;fill-rule:nonzero;stroke-width:0" />
<path
   d="m 112.5,680.04 -0.01,-0.23 -0.01,-0.23 -0.03,-0.23 -0.04,-0.22 -0.05,-0.22 -0.06,-0.21 -0.07,-0.21 -0.08,-0.2 -0.09,-0.2 -0.1,-0.2 -0.11,-0.18 -0.12,-0.19 -0.12,-0.17 -0.14,-0.17 -0.14,-0.17 -0.15,-0.15 -0.15,-0.15 -0.17,-0.14 -0.17,-0.14 -0.17,-0.12 -0.19,-0.12 -0.19,-0.11 -0.19,-0.1 -0.2,-0.09 -0.2,-0.08 -0.21,-0.07 -0.22,-0.06 -0.21,-0.05 -0.22,-0.04 -0.23,-0.03 -0.23,-0.02 -0.23,0 c -2.48,0 -4.5,2.01 -4.5,4.5 0,2.48 2.02,4.5 4.5,4.5 2.48,0 4.5,-2.02 4.5,-4.5 z"
   id="path7598"
   inkscape:connector-curvature="0"
   style="stroke-width:0.5625" />
<path
   d="m 220.5,680.04 -0.01,-0.23 -0.01,-0.23 -0.03,-0.23 -0.04,-0.22 -0.05,-0.22 -0.06,-0.21 -0.07,-0.21 -0.08,-0.2 -0.09,-0.2 -0.1,-0.2 -0.11,-0.18 -0.12,-0.19 -0.12,-0.17 -0.14,-0.17 -0.14,-0.17 -0.15,-0.15 -0.15,-0.15 -0.17,-0.14 -0.17,-0.14 -0.17,-0.12 -0.19,-0.12 -0.19,-0.11 -0.19,-0.1 -0.2,-0.09 -0.2,-0.08 -0.21,-0.07 -0.22,-0.06 -0.21,-0.05 -0.22,-0.04 -0.23,-0.03 -0.23,-0.02 -0.23,0 c -2.48,0 -4.5,2.01 -4.5,4.5 0,2.48 2.02,4.5 4.5,4.5 2.48,0 4.5,-2.02 4.5,-4.5 z"
   id="path7600"
   inkscape:connector-curvature="0"
   style="fill:#000000;fill-rule:nonzero;stroke-width:0" />
<path
   d="m 220.5,680.04 -0.01,-0.23 -0.01,-0.23 -0.03,-0.23 -0.04,-0.22 -0.05,-0.22 -0.06,-0.21 -0.07,-0.21 -0.08,-0.2 -0.09,-0.2 -0.1,-0.2 -0.11,-0.18 -0.12,-0.19 -0.12,-0.17 -0.14,-0.17 -0.14,-0.17 -0.15,-0.15 -0.15,-0.15 -0.17,-0.14 -0.17,-0.14 -0.17,-0.12 -0.19,-0.12 -0.19,-0.11 -0.19,-0.1 -0.2,-0.09 -0.2,-0.08 -0.21,-0.07 -0.22,-0.06 -0.21,-0.05 -0.22,-0.04 -0.23,-0.03 -0.23,-0.02 -0.23,0 c -2.48,0 -4.5,2.01 -4.5,4.5 0,2.48 2.02,4.5 4.5,4.5 2.48,0 4.5,-2.02 4.5,-4.5 z"
   id="path7602"
   inkscape:connector-curvature="0"
   style="stroke-width:0.5625" />
<path
   d="m 112.5,572.04 -0.01,-0.23 -0.01,-0.23 -0.03,-0.23 -0.04,-0.22 -0.05,-0.22 -0.06,-0.21 -0.07,-0.21 -0.08,-0.2 -0.09,-0.2 -0.1,-0.2 -0.11,-0.18 -0.12,-0.19 -0.12,-0.17 -0.14,-0.17 -0.14,-0.17 -0.15,-0.15 -0.15,-0.15 -0.17,-0.14 -0.17,-0.14 -0.17,-0.12 -0.19,-0.12 -0.19,-0.11 -0.19,-0.1 -0.2,-0.09 -0.2,-0.08 -0.21,-0.07 -0.22,-0.06 -0.21,-0.05 -0.22,-0.04 -0.23,-0.03 -0.23,-0.02 -0.23,0 c -2.48,0 -4.5,2.01 -4.5,4.5 0,2.48 2.02,4.5 4.5,4.5 2.48,0 4.5,-2.02 4.5,-4.5 z"
   id="path7604"
   inkscape:connector-curvature="0"
   style="fill:#000000;fill-rule:nonzero;stroke-width:0" />
<path
   d="m 112.5,572.04 -0.01,-0.23 -0.01,-0.23 -0.03,-0.23 -0.04,-0.22 -0.05,-0.22 -0.06,-0.21 -0.07,-0.21 -0.08,-0.2 -0.09,-0.2 -0.1,-0.2 -0.11,-0.18 -0.12,-0.19 -0.12,-0.17 -0.14,-0.17 -0.14,-0.17 -0.15,-0.15 -0.15,-0.15 -0.17,-0.14 -0.17,-0.14 -0.17,-0.12 -0.19,-0.12 -0.19,-0.11 -0.19,-0.1 -0.2,-0.09 -0.2,-0.08 -0.21,-0.07 -0.22,-0.06 -0.21,-0.05 -0.22,-0.04 -0.23,-0.03 -0.23,-0.02 -0.23,0 c -2.48,0 -4.5,2.01 -4.5,4.5 0,2.48 2.02,4.5 4.5,4.5 2.48,0 4.5,-2.02 4.5,-4.5 z"
   id="path7606"
   inkscape:connector-curvature="0"
   style="stroke-width:0.5625" />
<path
   d="m 220.5,572.04 -0.01,-0.23 -0.01,-0.23 -0.03,-0.23 -0.04,-0.22 -0.05,-0.22 -0.06,-0.21 -0.07,-0.21 -0.08,-0.2 -0.09,-0.2 -0.1,-0.2 -0.11,-0.18 -0.12,-0.19 -0.12,-0.17 -0.14,-0.17 -0.14,-0.17 -0.15,-0.15 -0.15,-0.15 -0.17,-0.14 -0.17,-0.14 -0.17,-0.12 -0.19,-0.12 -0.19,-0.11 -0.19,-0.1 -0.2,-0.09 -0.2,-0.08 -0.21,-0.07 -0.22,-0.06 -0.21,-0.05 -0.22,-0.04 -0.23,-0.03 -0.23,-0.02 -0.23,0 c -2.48,0 -4.5,2.01 -4.5,4.5 0,2.48 2.02,4.5 4.5,4.5 2.48,0 4.5,-2.02 4.5,-4.5 z"
   id="path7608"
   inkscape:connector-curvature="0"
   style="fill:#000000;fill-rule:nonzero;stroke-width:0" />
<path
   d="m 220.5,572.04 -0.01,-0.23 -0.01,-0.23 -0.03,-0.23 -0.04,-0.22 -0.05,-0.22 -0.06,-0.21 -0.07,-0.21 -0.08,-0.2 -0.09,-0.2 -0.1,-0.2 -0.11,-0.18 -0.12,-0.19 -0.12,-0.17 -0.14,-0.17 -0.14,-0.17 -0.15,-0.15 -0.15,-0.15 -0.17,-0.14 -0.17,-0.14 -0.17,-0.12 -0.19,-0.12 -0.19,-0.11 -0.19,-0.1 -0.2,-0.09 -0.2,-0.08 -0.21,-0.07 -0.22,-0.06 -0.21,-0.05 -0.22,-0.04 -0.23,-0.03 -0.23,-0.02 -0.23,0 c -2.48,0 -4.5,2.01 -4.5,4.5 0,2.48 2.02,4.5 4.5,4.5 2.48,0 4.5,-2.02 4.5,-4.5 z"
   id="path7610"
   inkscape:connector-curvature="0"
   style="stroke-width:0.5625" />
<line
   x1="103.5"
   y1="630.53998"
   x2="103.5"
   y2="617.03998"
   id="line7612"
   style="stroke-width:0.5625" />
<polygon
   points="103.5,635.04 105.19,630.54 101.81,630.54 "
   id="polygon7614"
   style="fill:#ffffff;fill-rule:nonzero;stroke:#ffffff;stroke-width:0" />
<polygon
   points="103.5,635.04 105.19,630.54 101.81,630.54 "
   id="polygon7616"
   style="fill:#000000;fill-rule:nonzero;stroke-width:0" />
<line
   x1="112.5"
   y1="635.03998"
   x2="112.5"
   y2="621.53998"
   id="line7618"
   style="stroke-width:0.5625" />
<polygon
   points="112.5,617.04 110.81,621.54 114.19,621.54 "
   id="polygon7620"
   style="fill:#ffffff;fill-rule:nonzero;stroke:#ffffff;stroke-width:0" />
<polygon
   points="112.5,617.04 110.81,621.54 114.19,621.54 "
   id="polygon7622"
   style="fill:#000000;fill-rule:nonzero;stroke-width:0" />
<line
   x1="211.5"
   y1="630.53998"
   x2="211.5"
   y2="617.03998"
   id="line7624"
   style="stroke-width:0.5625" />
<polygon
   points="211.5,635.04 213.19,630.54 209.81,630.54 "
   id="polygon7626"
   style="fill:#ffffff;fill-rule:nonzero;stroke:#ffffff;stroke-width:0" />
<polygon
   points="211.5,635.04 213.19,630.54 209.81,630.54 "
   id="polygon7628"
   style="fill:#000000;fill-rule:nonzero;stroke-width:0" />
<line
   x1="220.5"
   y1="635.03998"
   x2="220.5"
   y2="621.53998"
   id="line7630"
   style="stroke-width:0.5625" />
<polygon
   points="220.5,617.04 218.81,621.54 222.19,621.54 "
   id="polygon7632"
   style="fill:#ffffff;fill-rule:nonzero;stroke:#ffffff;stroke-width:0" />
<polygon
   points="220.5,617.04 218.81,621.54 222.19,621.54 "
   id="polygon7634"
   style="fill:#000000;fill-rule:nonzero;stroke-width:0" />
<line
   x1="153"
   y1="684.53998"
   x2="166.5"
   y2="684.53998"
   id="line7636"
   style="stroke-width:0.5625" />
<polygon
   points="171,684.54 166.5,682.85 166.5,686.23 "
   id="polygon7638"
   style="fill:#ffffff;fill-rule:nonzero;stroke:#ffffff;stroke-width:0" />
<polygon
   points="171,684.54 166.5,682.85 166.5,686.23 "
   id="polygon7640"
   style="fill:#000000;fill-rule:nonzero;stroke-width:0" />
<line
   x1="157.5"
   y1="675.53998"
   x2="171"
   y2="675.53998"
   id="line7642"
   style="stroke-width:0.5625" />
<polygon
   points="153,675.54 157.5,677.23 157.5,673.85 "
   id="polygon7644"
   style="fill:#ffffff;fill-rule:nonzero;stroke:#ffffff;stroke-width:0" />
<polygon
   points="153,675.54 157.5,677.23 157.5,673.85 "
   id="polygon7646"
   style="fill:#000000;fill-rule:nonzero;stroke-width:0" />
<line
   x1="153"
   y1="576.53998"
   x2="166.5"
   y2="576.53998"
   id="line7648"
   style="stroke-width:0.5625" />
<polygon
   points="171,576.54 166.5,574.85 166.5,578.23 "
   id="polygon7650"
   style="fill:#ffffff;fill-rule:nonzero;stroke:#ffffff;stroke-width:0" />
<polygon
   points="171,576.54 166.5,574.85 166.5,578.23 "
   id="polygon7652"
   style="fill:#000000;fill-rule:nonzero;stroke-width:0" />
<line
   x1="157.5"
   y1="567.53998"
   x2="171"
   y2="567.53998"
   id="line7654"
   style="stroke-width:0.5625" />
<polygon
   points="153,567.54 157.5,569.23 157.5,565.85 "
   id="polygon7656"
   style="fill:#ffffff;fill-rule:nonzero;stroke:#ffffff;stroke-width:0" />
<polygon
   points="153,567.54 157.5,569.23 157.5,565.85 "
   id="polygon7658"
   style="fill:#000000;fill-rule:nonzero;stroke-width:0" />
<polygon
   points="360,680.04 360,572.04 468,572.04 468,680.04 "
   id="polygon7660"
   style="stroke-width:1.125" />
<path
   d="m 364.5,680.04 -0.01,-0.23 -0.01,-0.23 -0.03,-0.23 -0.04,-0.22 -0.05,-0.22 -0.06,-0.21 -0.07,-0.21 -0.08,-0.2 -0.09,-0.2 -0.1,-0.2 -0.11,-0.18 -0.12,-0.19 -0.12,-0.17 -0.14,-0.17 -0.14,-0.17 -0.15,-0.15 -0.15,-0.15 -0.17,-0.14 -0.17,-0.14 -0.17,-0.12 -0.19,-0.12 -0.19,-0.11 -0.19,-0.1 -0.2,-0.09 -0.2,-0.08 -0.21,-0.07 -0.22,-0.06 -0.21,-0.05 -0.22,-0.04 -0.23,-0.03 -0.23,-0.02 -0.23,0 c -2.48,0 -4.5,2.01 -4.5,4.5 0,2.48 2.02,4.5 4.5,4.5 2.48,0 4.5,-2.02 4.5,-4.5 z"
   id="path7662"
   inkscape:connector-curvature="0"
   style="fill:#000000;fill-rule:nonzero;stroke-width:0" />
<path
   d="m 364.5,680.04 -0.01,-0.23 -0.01,-0.23 -0.03,-0.23 -0.04,-0.22 -0.05,-0.22 -0.06,-0.21 -0.07,-0.21 -0.08,-0.2 -0.09,-0.2 -0.1,-0.2 -0.11,-0.18 -0.12,-0.19 -0.12,-0.17 -0.14,-0.17 -0.14,-0.17 -0.15,-0.15 -0.15,-0.15 -0.17,-0.14 -0.17,-0.14 -0.17,-0.12 -0.19,-0.12 -0.19,-0.11 -0.19,-0.1 -0.2,-0.09 -0.2,-0.08 -0.21,-0.07 -0.22,-0.06 -0.21,-0.05 -0.22,-0.04 -0.23,-0.03 -0.23,-0.02 -0.23,0 c -2.48,0 -4.5,2.01 -4.5,4.5 0,2.48 2.02,4.5 4.5,4.5 2.48,0 4.5,-2.02 4.5,-4.5 z"
   id="path7664"
   inkscape:connector-curvature="0"
   style="stroke-width:0.5625" />
<path
   d="m 472.5,680.04 -0.01,-0.23 -0.01,-0.23 -0.03,-0.23 -0.04,-0.22 -0.05,-0.22 -0.06,-0.21 -0.07,-0.21 -0.08,-0.2 -0.09,-0.2 -0.1,-0.2 -0.11,-0.18 -0.12,-0.19 -0.12,-0.17 -0.14,-0.17 -0.14,-0.17 -0.15,-0.15 -0.15,-0.15 -0.17,-0.14 -0.17,-0.14 -0.17,-0.12 -0.19,-0.12 -0.19,-0.11 -0.19,-0.1 -0.2,-0.09 -0.2,-0.08 -0.21,-0.07 -0.22,-0.06 -0.21,-0.05 -0.22,-0.04 -0.23,-0.03 -0.23,-0.02 -0.23,0 c -2.48,0 -4.5,2.01 -4.5,4.5 0,2.48 2.02,4.5 4.5,4.5 2.48,0 4.5,-2.02 4.5,-4.5 z"
   id="path7666"
   inkscape:connector-curvature="0"
   style="fill:#000000;fill-rule:nonzero;stroke-width:0" />
<path
   d="m 472.5,680.04 -0.01,-0.23 -0.01,-0.23 -0.03,-0.23 -0.04,-0.22 -0.05,-0.22 -0.06,-0.21 -0.07,-0.21 -0.08,-0.2 -0.09,-0.2 -0.1,-0.2 -0.11,-0.18 -0.12,-0.19 -0.12,-0.17 -0.14,-0.17 -0.14,-0.17 -0.15,-0.15 -0.15,-0.15 -0.17,-0.14 -0.17,-0.14 -0.17,-0.12 -0.19,-0.12 -0.19,-0.11 -0.19,-0.1 -0.2,-0.09 -0.2,-0.08 -0.21,-0.07 -0.22,-0.06 -0.21,-0.05 -0.22,-0.04 -0.23,-0.03 -0.23,-0.02 -0.23,0 c -2.48,0 -4.5,2.01 -4.5,4.5 0,2.48 2.02,4.5 4.5,4.5 2.48,0 4.5,-2.02 4.5,-4.5 z"
   id="path7668"
   inkscape:connector-curvature="0"
   style="stroke-width:0.5625" />
<path
   d="m 364.5,572.04 -0.01,-0.23 -0.01,-0.23 -0.03,-0.23 -0.04,-0.22 -0.05,-0.22 -0.06,-0.21 -0.07,-0.21 -0.08,-0.2 -0.09,-0.2 -0.1,-0.2 -0.11,-0.18 -0.12,-0.19 -0.12,-0.17 -0.14,-0.17 -0.14,-0.17 -0.15,-0.15 -0.15,-0.15 -0.17,-0.14 -0.17,-0.14 -0.17,-0.12 -0.19,-0.12 -0.19,-0.11 -0.19,-0.1 -0.2,-0.09 -0.2,-0.08 -0.21,-0.07 -0.22,-0.06 -0.21,-0.05 -0.22,-0.04 -0.23,-0.03 -0.23,-0.02 -0.23,0 c -2.48,0 -4.5,2.01 -4.5,4.5 0,2.48 2.02,4.5 4.5,4.5 2.48,0 4.5,-2.02 4.5,-4.5 z"
   id="path7670"
   inkscape:connector-curvature="0"
   style="fill:#000000;fill-rule:nonzero;stroke-width:0" />
<path
   d="m 364.5,572.04 -0.01,-0.23 -0.01,-0.23 -0.03,-0.23 -0.04,-0.22 -0.05,-0.22 -0.06,-0.21 -0.07,-0.21 -0.08,-0.2 -0.09,-0.2 -0.1,-0.2 -0.11,-0.18 -0.12,-0.19 -0.12,-0.17 -0.14,-0.17 -0.14,-0.17 -0.15,-0.15 -0.15,-0.15 -0.17,-0.14 -0.17,-0.14 -0.17,-0.12 -0.19,-0.12 -0.19,-0.11 -0.19,-0.1 -0.2,-0.09 -0.2,-0.08 -0.21,-0.07 -0.22,-0.06 -0.21,-0.05 -0.22,-0.04 -0.23,-0.03 -0.23,-0.02 -0.23,0 c -2.48,0 -4.5,2.01 -4.5,4.5 0,2.48 2.02,4.5 4.5,4.5 2.48,0 4.5,-2.02 4.5,-4.5 z"
   id="path7672"
   inkscape:connector-curvature="0"
   style="stroke-width:0.5625" />
<path
   d="m 472.5,572.04 -0.01,-0.23 -0.01,-0.23 -0.03,-0.23 -0.04,-0.22 -0.05,-0.22 -0.06,-0.21 -0.07,-0.21 -0.08,-0.2 -0.09,-0.2 -0.1,-0.2 -0.11,-0.18 -0.12,-0.19 -0.12,-0.17 -0.14,-0.17 -0.14,-0.17 -0.15,-0.15 -0.15,-0.15 -0.17,-0.14 -0.17,-0.14 -0.17,-0.12 -0.19,-0.12 -0.19,-0.11 -0.19,-0.1 -0.2,-0.09 -0.2,-0.08 -0.21,-0.07 -0.22,-0.06 -0.21,-0.05 -0.22,-0.04 -0.23,-0.03 -0.23,-0.02 -0.23,0 c -2.48,0 -4.5,2.01 -4.5,4.5 0,2.48 2.02,4.5 4.5,4.5 2.48,0 4.5,-2.02 4.5,-4.5 z"
   id="path7674"
   inkscape:connector-curvature="0"
   style="fill:#000000;fill-rule:nonzero;stroke-width:0" />
<path
   d="m 472.5,572.04 -0.01,-0.23 -0.01,-0.23 -0.03,-0.23 -0.04,-0.22 -0.05,-0.22 -0.06,-0.21 -0.07,-0.21 -0.08,-0.2 -0.09,-0.2 -0.1,-0.2 -0.11,-0.18 -0.12,-0.19 -0.12,-0.17 -0.14,-0.17 -0.14,-0.17 -0.15,-0.15 -0.15,-0.15 -0.17,-0.14 -0.17,-0.14 -0.17,-0.12 -0.19,-0.12 -0.19,-0.11 -0.19,-0.1 -0.2,-0.09 -0.2,-0.08 -0.21,-0.07 -0.22,-0.06 -0.21,-0.05 -0.22,-0.04 -0.23,-0.03 -0.23,-0.02 -0.23,0 c -2.48,0 -4.5,2.01 -4.5,4.5 0,2.48 2.02,4.5 4.5,4.5 2.48,0 4.5,-2.02 4.5,-4.5 z"
   id="path7676"
   inkscape:connector-curvature="0"
   style="stroke-width:0.5625" />
<line
   x1="355.5"
   y1="630.53998"
   x2="355.5"
   y2="617.03998"
   id="line7678"
   style="stroke-width:0.5625" />
<polygon
   points="355.5,635.04 357.19,630.54 353.81,630.54 "
   id="polygon7680"
   style="fill:#ffffff;fill-rule:nonzero;stroke:#ffffff;stroke-width:0" />
<polygon
   points="355.5,635.04 357.19,630.54 353.81,630.54 "
   id="polygon7682"
   style="fill:#000000;fill-rule:nonzero;stroke-width:0" />
<line
   x1="364.5"
   y1="635.03998"
   x2="364.5"
   y2="621.53998"
   id="line7684"
   style="stroke-width:0.5625" />
<polygon
   points="364.5,617.04 362.81,621.54 366.19,621.54 "
   id="polygon7686"
   style="fill:#ffffff;fill-rule:nonzero;stroke:#ffffff;stroke-width:0" />
<polygon
   points="364.5,617.04 362.81,621.54 366.19,621.54 "
   id="polygon7688"
   style="fill:#000000;fill-rule:nonzero;stroke-width:0" />
<line
   x1="463.5"
   y1="630.53998"
   x2="463.5"
   y2="617.03998"
   id="line7690"
   style="stroke-width:0.5625" />
<polygon
   points="463.5,635.04 465.19,630.54 461.81,630.54 "
   id="polygon7692"
   style="fill:#ffffff;fill-rule:nonzero;stroke:#ffffff;stroke-width:0" />
<polygon
   points="463.5,635.04 465.19,630.54 461.81,630.54 "
   id="polygon7694"
   style="fill:#000000;fill-rule:nonzero;stroke-width:0" />
<line
   x1="472.5"
   y1="635.03998"
   x2="472.5"
   y2="621.53998"
   id="line7696"
   style="stroke-width:0.5625" />
<polygon
   points="472.5,617.04 470.81,621.54 474.19,621.54 "
   id="polygon7698"
   style="fill:#ffffff;fill-rule:nonzero;stroke:#ffffff;stroke-width:0" />
<polygon
   points="472.5,617.04 470.81,621.54 474.19,621.54 "
   id="polygon7700"
   style="fill:#000000;fill-rule:nonzero;stroke-width:0" />
<line
   x1="405"
   y1="684.53998"
   x2="418.5"
   y2="684.53998"
   id="line7702"
   style="stroke-width:0.5625" />
<polygon
   points="423,684.54 418.5,682.85 418.5,686.23 "
   id="polygon7704"
   style="fill:#ffffff;fill-rule:nonzero;stroke:#ffffff;stroke-width:0" />
<polygon
   points="423,684.54 418.5,682.85 418.5,686.23 "
   id="polygon7706"
   style="fill:#000000;fill-rule:nonzero;stroke-width:0" />
<line
   x1="409.5"
   y1="675.53998"
   x2="423"
   y2="675.53998"
   id="line7708"
   style="stroke-width:0.5625" />
<polygon
   points="405,675.54 409.5,677.23 409.5,673.85 "
   id="polygon7710"
   style="fill:#ffffff;fill-rule:nonzero;stroke:#ffffff;stroke-width:0" />
<polygon
   points="405,675.54 409.5,677.23 409.5,673.85 "
   id="polygon7712"
   style="fill:#000000;fill-rule:nonzero;stroke-width:0" />
<line
   x1="405"
   y1="576.53998"
   x2="418.5"
   y2="576.53998"
   id="line7714"
   style="stroke-width:0.5625" />
<polygon
   points="423,576.54 418.5,574.85 418.5,578.23 "
   id="polygon7716"
   style="fill:#ffffff;fill-rule:nonzero;stroke:#ffffff;stroke-width:0" />
<polygon
   points="423,576.54 418.5,574.85 418.5,578.23 "
   id="polygon7718"
   style="fill:#000000;fill-rule:nonzero;stroke-width:0" />
<line
   x1="409.5"
   y1="567.53998"
   x2="423"
   y2="567.53998"
   id="line7720"
   style="stroke-width:0.5625" />
<polygon
   points="405,567.54 409.5,569.23 409.5,565.85 "
   id="polygon7722"
   style="fill:#ffffff;fill-rule:nonzero;stroke:#ffffff;stroke-width:0" />
<polygon
   points="405,567.54 409.5,569.23 409.5,565.85 "
   id="polygon7724"
   style="fill:#000000;fill-rule:nonzero;stroke-width:0" />
<line
   x1="360"
   y1="572.03998"
   x2="468"
   y2="680.03998"
   id="line7726"
   style="stroke-width:1.125" />
<line
   x1="405"
   y1="623.78998"
   x2="413.07001"
   y2="631.85999"
   id="line7728"
   style="stroke-width:0.5625" />
<polygon
   points="416.25,635.04 414.26,630.66 411.88,633.05 "
   id="polygon7730"
   style="fill:#ffffff;fill-rule:nonzero;stroke:#ffffff;stroke-width:0" />
<polygon
   points="416.25,635.04 414.26,630.66 411.88,633.05 "
   id="polygon7732"
   style="fill:#000000;fill-rule:nonzero;stroke-width:0" />
<line
   x1="414.92999"
   y1="620.21997"
   x2="423"
   y2="628.28998"
   id="line7734"
   style="stroke-width:0.5625" />
<polygon
   points="411.75,617.04 413.74,621.41 416.12,619.03 "
   id="polygon7736"
   style="fill:#ffffff;fill-rule:nonzero;stroke:#ffffff;stroke-width:0" />
<polygon
   points="411.75,617.04 413.74,621.41 416.12,619.03 "
   id="polygon7738"
   style="fill:#000000;fill-rule:nonzero;stroke-width:0" />
</g></svg>
