<?xml version="1.0" encoding="UTF-8" standalone="no"?>
<svg
   xmlns:dc="http://purl.org/dc/elements/1.1/"
   xmlns:cc="http://creativecommons.org/ns#"
   xmlns:rdf="http://www.w3.org/1999/02/22-rdf-syntax-ns#"
   xmlns:svg="http://www.w3.org/2000/svg"
   xmlns="http://www.w3.org/2000/svg"
   xmlns:sodipodi="http://sodipodi.sourceforge.net/DTD/sodipodi-0.dtd"
   xmlns:inkscape="http://www.inkscape.org/namespaces/inkscape"
   version="1.1"
   id="body"
   width="8in"
   height="8in"
   viewBox="0 0 1 1"
   preserveAspectRatio="none"
   inkscape:version="0.48.2 r9819"
   sodipodi:docname="Euler02.svg">
  <metadata
     id="metadata4512">
    <rdf:RDF>
      <cc:Work
         rdf:about="">
        <dc:format>image/svg+xml</dc:format>
        <dc:type
           rdf:resource="http://purl.org/dc/dcmitype/StillImage" />
      </cc:Work>
    </rdf:RDF>
  </metadata>
  <defs
     id="defs4510" />
  <sodipodi:namedview
     pagecolor="#ffffff"
     bordercolor="#666666"
     borderopacity="1"
     objecttolerance="10"
     gridtolerance="10"
     guidetolerance="10"
     inkscape:pageopacity="0"
     inkscape:pageshadow="2"
     inkscape:window-width="1086"
     inkscape:window-height="896"
     id="namedview4508"
     showgrid="false"
     inkscape:zoom="0.92709556"
     inkscape:cx="360"
     inkscape:cy="360"
     inkscape:window-x="302"
     inkscape:window-y="83"
     inkscape:window-maximized="0"
     inkscape:current-layer="body" />
  <title
     id="title4468">SVG drawing</title>
  <desc
     id="desc4470">This was produced by version 4.4 of GNU libplot, a free library for exporting 2-D vector graphics.</desc>
  <g
     id="content"
     transform="matrix(0.0017361,0,0,-0.0017361,-0.00158898,1.5349576)"
     xml:space="preserve"
     stroke-miterlimit="10.433"
     font-style="normal"
     font-variant="normal"
     font-weight="normal"
     font-stretch="normal"
     font-size-adjust="none"
     letter-spacing="normal"
     word-spacing="normal"
     style="font-style:normal;font-variant:normal;font-weight:normal;font-stretch:normal;letter-spacing:normal;word-spacing:normal;text-anchor:start;fill:none;stroke:#000000;stroke-width:1;stroke-linecap:butt;stroke-linejoin:miter;stroke-miterlimit:10.43299961;stroke-opacity:1;stroke-dasharray:none;stroke-dashoffset:0">
<path
   d="m 112.5,626.04 -0.01,-0.23 -0.01,-0.23 -0.03,-0.23 -0.04,-0.22 -0.05,-0.22 -0.06,-0.21 -0.07,-0.21 -0.08,-0.2 -0.09,-0.2 -0.1,-0.2 -0.11,-0.18 -0.12,-0.19 -0.12,-0.17 -0.14,-0.17 -0.14,-0.17 -0.15,-0.15 -0.15,-0.15 -0.17,-0.14 -0.17,-0.14 -0.17,-0.12 -0.19,-0.12 -0.19,-0.11 -0.19,-0.1 -0.2,-0.09 -0.2,-0.08 -0.21,-0.07 -0.22,-0.06 -0.21,-0.05 -0.22,-0.04 -0.23,-0.03 -0.23,-0.02 -0.23,0 c -2.48,0 -4.5,2.01 -4.5,4.5 0,2.48 2.02,4.5 4.5,4.5 2.48,0 4.5,-2.02 4.5,-4.5 z"
   id="path4474"
   inkscape:connector-curvature="0"
   style="fill:#000000;fill-rule:nonzero;stroke-width:0" />
<path
   d="m 112.5,626.04 -0.01,-0.23 -0.01,-0.23 -0.03,-0.23 -0.04,-0.22 -0.05,-0.22 -0.06,-0.21 -0.07,-0.21 -0.08,-0.2 -0.09,-0.2 -0.1,-0.2 -0.11,-0.18 -0.12,-0.19 -0.12,-0.17 -0.14,-0.17 -0.14,-0.17 -0.15,-0.15 -0.15,-0.15 -0.17,-0.14 -0.17,-0.14 -0.17,-0.12 -0.19,-0.12 -0.19,-0.11 -0.19,-0.1 -0.2,-0.09 -0.2,-0.08 -0.21,-0.07 -0.22,-0.06 -0.21,-0.05 -0.22,-0.04 -0.23,-0.03 -0.23,-0.02 -0.23,0 c -2.48,0 -4.5,2.01 -4.5,4.5 0,2.48 2.02,4.5 4.5,4.5 2.48,0 4.5,-2.02 4.5,-4.5 z"
   id="path4476"
   inkscape:connector-curvature="0"
   style="stroke-width:0.5625" />
<line
   x1="252"
   y1="639.53998"
   x2="317.25"
   y2="639.53998"
   id="line4478"
   style="stroke-width:1.6875" />
<polygon
   points="324,639.54 317.25,636.73 317.25,642.35 "
   id="polygon4480"
   style="fill:#ffffff;fill-rule:nonzero;stroke:#ffffff;stroke-width:0" />
<polygon
   points="324,639.54 317.25,636.73 317.25,642.35 "
   id="polygon4482"
   style="fill:#000000;fill-rule:nonzero;stroke-width:0" />
<path
   d="m 166.5,626.04 -0.01,-0.23 -0.01,-0.23 -0.03,-0.23 -0.04,-0.22 -0.05,-0.22 -0.06,-0.21 -0.07,-0.21 -0.08,-0.2 -0.09,-0.2 -0.1,-0.2 -0.11,-0.18 -0.12,-0.19 -0.12,-0.17 -0.14,-0.17 -0.14,-0.17 -0.15,-0.15 -0.15,-0.15 -0.17,-0.14 -0.17,-0.14 -0.17,-0.12 -0.19,-0.12 -0.19,-0.11 -0.19,-0.1 -0.2,-0.09 -0.2,-0.08 -0.21,-0.07 -0.22,-0.06 -0.21,-0.05 -0.22,-0.04 -0.23,-0.03 -0.23,-0.02 -0.23,0 c -2.48,0 -4.5,2.01 -4.5,4.5 0,2.48 2.02,4.5 4.5,4.5 2.48,0 4.5,-2.02 4.5,-4.5 z"
   id="path4484"
   inkscape:connector-curvature="0"
   style="fill:#000000;fill-rule:nonzero;stroke-width:0" />
<path
   d="m 166.5,626.04 -0.01,-0.23 -0.01,-0.23 -0.03,-0.23 -0.04,-0.22 -0.05,-0.22 -0.06,-0.21 -0.07,-0.21 -0.08,-0.2 -0.09,-0.2 -0.1,-0.2 -0.11,-0.18 -0.12,-0.19 -0.12,-0.17 -0.14,-0.17 -0.14,-0.17 -0.15,-0.15 -0.15,-0.15 -0.17,-0.14 -0.17,-0.14 -0.17,-0.12 -0.19,-0.12 -0.19,-0.11 -0.19,-0.1 -0.2,-0.09 -0.2,-0.08 -0.21,-0.07 -0.22,-0.06 -0.21,-0.05 -0.22,-0.04 -0.23,-0.03 -0.23,-0.02 -0.23,0 c -2.48,0 -4.5,2.01 -4.5,4.5 0,2.48 2.02,4.5 4.5,4.5 2.48,0 4.5,-2.02 4.5,-4.5 z"
   id="path4486"
   inkscape:connector-curvature="0"
   style="stroke-width:0.5625" />
<path
   d="m 220.5,626.04 -0.01,-0.23 -0.01,-0.23 -0.03,-0.23 -0.04,-0.22 -0.05,-0.22 -0.06,-0.21 -0.07,-0.21 -0.08,-0.2 -0.09,-0.2 -0.1,-0.2 -0.11,-0.18 -0.12,-0.19 -0.12,-0.17 -0.14,-0.17 -0.14,-0.17 -0.15,-0.15 -0.15,-0.15 -0.17,-0.14 -0.17,-0.14 -0.17,-0.12 -0.19,-0.12 -0.19,-0.11 -0.19,-0.1 -0.2,-0.09 -0.2,-0.08 -0.21,-0.07 -0.22,-0.06 -0.21,-0.05 -0.22,-0.04 -0.23,-0.03 -0.23,-0.02 -0.23,0 c -2.48,0 -4.5,2.01 -4.5,4.5 0,2.48 2.02,4.5 4.5,4.5 2.48,0 4.5,-2.02 4.5,-4.5 z"
   id="path4488"
   inkscape:connector-curvature="0"
   style="fill:#000000;fill-rule:nonzero;stroke-width:0" />
<path
   d="m 220.5,626.04 -0.01,-0.23 -0.01,-0.23 -0.03,-0.23 -0.04,-0.22 -0.05,-0.22 -0.06,-0.21 -0.07,-0.21 -0.08,-0.2 -0.09,-0.2 -0.1,-0.2 -0.11,-0.18 -0.12,-0.19 -0.12,-0.17 -0.14,-0.17 -0.14,-0.17 -0.15,-0.15 -0.15,-0.15 -0.17,-0.14 -0.17,-0.14 -0.17,-0.12 -0.19,-0.12 -0.19,-0.11 -0.19,-0.1 -0.2,-0.09 -0.2,-0.08 -0.21,-0.07 -0.22,-0.06 -0.21,-0.05 -0.22,-0.04 -0.23,-0.03 -0.23,-0.02 -0.23,0 c -2.48,0 -4.5,2.01 -4.5,4.5 0,2.48 2.02,4.5 4.5,4.5 2.48,0 4.5,-2.02 4.5,-4.5 z"
   id="path4490"
   inkscape:connector-curvature="0"
   style="stroke-width:0.5625" />
<polyline
   points="108,626.04 162,626.04 216,626.04 "
   id="polyline4492"
   style="stroke-width:1.6875" />
<path
   d="m 364.5,626.04 -0.01,-0.23 -0.01,-0.23 -0.03,-0.23 -0.04,-0.22 -0.05,-0.22 -0.06,-0.21 -0.07,-0.21 -0.08,-0.2 -0.09,-0.2 -0.1,-0.2 -0.11,-0.18 -0.12,-0.19 -0.12,-0.17 -0.14,-0.17 -0.14,-0.17 -0.15,-0.15 -0.15,-0.15 -0.17,-0.14 -0.17,-0.14 -0.17,-0.12 -0.19,-0.12 -0.19,-0.11 -0.19,-0.1 -0.2,-0.09 -0.2,-0.08 -0.21,-0.07 -0.22,-0.06 -0.21,-0.05 -0.22,-0.04 -0.23,-0.03 -0.23,-0.02 -0.23,0 c -2.48,0 -4.5,2.01 -4.5,4.5 0,2.48 2.02,4.5 4.5,4.5 2.48,0 4.5,-2.02 4.5,-4.5 z"
   id="path4494"
   inkscape:connector-curvature="0"
   style="fill:#000000;fill-rule:nonzero;stroke-width:0" />
<path
   d="m 364.5,626.04 -0.01,-0.23 -0.01,-0.23 -0.03,-0.23 -0.04,-0.22 -0.05,-0.22 -0.06,-0.21 -0.07,-0.21 -0.08,-0.2 -0.09,-0.2 -0.1,-0.2 -0.11,-0.18 -0.12,-0.19 -0.12,-0.17 -0.14,-0.17 -0.14,-0.17 -0.15,-0.15 -0.15,-0.15 -0.17,-0.14 -0.17,-0.14 -0.17,-0.12 -0.19,-0.12 -0.19,-0.11 -0.19,-0.1 -0.2,-0.09 -0.2,-0.08 -0.21,-0.07 -0.22,-0.06 -0.21,-0.05 -0.22,-0.04 -0.23,-0.03 -0.23,-0.02 -0.23,0 c -2.48,0 -4.5,2.01 -4.5,4.5 0,2.48 2.02,4.5 4.5,4.5 2.48,0 4.5,-2.02 4.5,-4.5 z"
   id="path4496"
   inkscape:connector-curvature="0"
   style="stroke-width:0.5625" />
<path
   d="m 427.5,650.79 -0.01,-0.23 -0.01,-0.23 -0.03,-0.23 -0.04,-0.22 -0.05,-0.22 -0.06,-0.21 -0.07,-0.21 -0.08,-0.2 -0.09,-0.2 -0.1,-0.2 -0.11,-0.18 -0.12,-0.19 -0.12,-0.17 -0.14,-0.17 -0.14,-0.17 -0.15,-0.15 -0.15,-0.15 -0.17,-0.14 -0.17,-0.14 -0.17,-0.12 -0.19,-0.12 -0.19,-0.11 -0.19,-0.1 -0.2,-0.09 -0.2,-0.08 -0.21,-0.07 -0.22,-0.06 -0.21,-0.05 -0.22,-0.04 -0.23,-0.03 -0.23,-0.02 -0.23,0 c -2.48,0 -4.5,2.01 -4.5,4.5 0,2.48 2.02,4.5 4.5,4.5 2.48,0 4.5,-2.02 4.5,-4.5 z"
   id="path4498"
   inkscape:connector-curvature="0"
   style="fill:#000000;fill-rule:nonzero;stroke-width:0" />
<path
   d="m 427.5,650.79 -0.01,-0.23 -0.01,-0.23 -0.03,-0.23 -0.04,-0.22 -0.05,-0.22 -0.06,-0.21 -0.07,-0.21 -0.08,-0.2 -0.09,-0.2 -0.1,-0.2 -0.11,-0.18 -0.12,-0.19 -0.12,-0.17 -0.14,-0.17 -0.14,-0.17 -0.15,-0.15 -0.15,-0.15 -0.17,-0.14 -0.17,-0.14 -0.17,-0.12 -0.19,-0.12 -0.19,-0.11 -0.19,-0.1 -0.2,-0.09 -0.2,-0.08 -0.21,-0.07 -0.22,-0.06 -0.21,-0.05 -0.22,-0.04 -0.23,-0.03 -0.23,-0.02 -0.23,0 c -2.48,0 -4.5,2.01 -4.5,4.5 0,2.48 2.02,4.5 4.5,4.5 2.48,0 4.5,-2.02 4.5,-4.5 z"
   id="path4500"
   inkscape:connector-curvature="0"
   style="stroke-width:0.5625" />
<path
   d="m 472.5,626.04 -0.01,-0.23 -0.01,-0.23 -0.03,-0.23 -0.04,-0.22 -0.05,-0.22 -0.06,-0.21 -0.07,-0.21 -0.08,-0.2 -0.09,-0.2 -0.1,-0.2 -0.11,-0.18 -0.12,-0.19 -0.12,-0.17 -0.14,-0.17 -0.14,-0.17 -0.15,-0.15 -0.15,-0.15 -0.17,-0.14 -0.17,-0.14 -0.17,-0.12 -0.19,-0.12 -0.19,-0.11 -0.19,-0.1 -0.2,-0.09 -0.2,-0.08 -0.21,-0.07 -0.22,-0.06 -0.21,-0.05 -0.22,-0.04 -0.23,-0.03 -0.23,-0.02 -0.23,0 c -2.48,0 -4.5,2.01 -4.5,4.5 0,2.48 2.02,4.5 4.5,4.5 2.48,0 4.5,-2.02 4.5,-4.5 z"
   id="path4502"
   inkscape:connector-curvature="0"
   style="fill:#000000;fill-rule:nonzero;stroke-width:0" />
<path
   d="m 472.5,626.04 -0.01,-0.23 -0.01,-0.23 -0.03,-0.23 -0.04,-0.22 -0.05,-0.22 -0.06,-0.21 -0.07,-0.21 -0.08,-0.2 -0.09,-0.2 -0.1,-0.2 -0.11,-0.18 -0.12,-0.19 -0.12,-0.17 -0.14,-0.17 -0.14,-0.17 -0.15,-0.15 -0.15,-0.15 -0.17,-0.14 -0.17,-0.14 -0.17,-0.12 -0.19,-0.12 -0.19,-0.11 -0.19,-0.1 -0.2,-0.09 -0.2,-0.08 -0.21,-0.07 -0.22,-0.06 -0.21,-0.05 -0.22,-0.04 -0.23,-0.03 -0.23,-0.02 -0.23,0 c -2.48,0 -4.5,2.01 -4.5,4.5 0,2.48 2.02,4.5 4.5,4.5 2.48,0 4.5,-2.02 4.5,-4.5 z"
   id="path4504"
   inkscape:connector-curvature="0"
   style="stroke-width:0.5625" />
<polyline
   points="360,626.04 423,650.79 468,626.04 "
   id="polyline4506"
   style="stroke-width:1.6875" />
</g></svg>
