<?xml version="1.0" encoding="UTF-8" standalone="no"?>
<svg
   xmlns:dc="http://purl.org/dc/elements/1.1/"
   xmlns:cc="http://creativecommons.org/ns#"
   xmlns:rdf="http://www.w3.org/1999/02/22-rdf-syntax-ns#"
   xmlns:svg="http://www.w3.org/2000/svg"
   xmlns="http://www.w3.org/2000/svg"
   xmlns:sodipodi="http://sodipodi.sourceforge.net/DTD/sodipodi-0.dtd"
   xmlns:inkscape="http://www.inkscape.org/namespaces/inkscape"
   version="1.1"
   id="body"
   width="8in"
   height="8in"
   viewBox="0 0 1 1"
   preserveAspectRatio="none"
   inkscape:version="0.48.2 r9819"
   sodipodi:docname="Prism.svg">
  <metadata
     id="metadata3687">
    <rdf:RDF>
      <cc:Work
         rdf:about="">
        <dc:format>image/svg+xml</dc:format>
        <dc:type
           rdf:resource="http://purl.org/dc/dcmitype/StillImage" />
      </cc:Work>
    </rdf:RDF>
  </metadata>
  <defs
     id="defs3685" />
  <sodipodi:namedview
     pagecolor="#ffffff"
     bordercolor="#666666"
     borderopacity="1"
     objecttolerance="10"
     gridtolerance="10"
     guidetolerance="10"
     inkscape:pageopacity="0"
     inkscape:pageshadow="2"
     inkscape:window-width="855"
     inkscape:window-height="480"
     id="namedview3683"
     showgrid="false"
     inkscape:zoom="0.92709556"
     inkscape:cx="360"
     inkscape:cy="302.04931"
     inkscape:window-x="0"
     inkscape:window-y="0"
     inkscape:window-maximized="0"
     inkscape:current-layer="body" />
  <title
     id="title3665">SVG drawing</title>
  <desc
     id="desc3667">This was produced by version 4.4 of GNU libplot, a free library for exporting 2-D vector graphics.</desc>
  <g
     id="content"
     transform="matrix(0.0017361,0,0,-0.0017361,0.24417373,1.7595339)"
     xml:space="preserve"
     stroke-miterlimit="10.433"
     font-style="normal"
     font-variant="normal"
     font-weight="normal"
     font-stretch="normal"
     font-size-adjust="none"
     letter-spacing="normal"
     word-spacing="normal"
     style="font-style:normal;font-variant:normal;font-weight:normal;font-stretch:normal;letter-spacing:normal;word-spacing:normal;text-anchor:start;fill:none;stroke:#000000;stroke-width:1;stroke-linecap:butt;stroke-linejoin:miter;stroke-miterlimit:10.43299961;stroke-opacity:1;stroke-dasharray:none;stroke-dashoffset:0">
<polygon
   points="144,806.04 81.562,698.04 206.44,698.04 "
   id="polygon3671"
   style="stroke-width:1.125" />
<path
   d="m 216,734.04 -0.09,-3.71 -0.28,-3.65 -0.46,-3.61 -0.63,-3.54 -0.81,-3.48 -0.97,-3.42 -1.13,-3.35 -1.29,-3.27 -1.44,-3.18 -1.59,-3.11 -1.73,-3.01 -1.88,-2.93 -2,-2.82 -2.14,-2.72 -2.27,-2.61 -2.38,-2.5 -2.5,-2.39 -2.61,-2.26 -2.72,-2.14 -2.83,-2 -2.92,-1.88 -3.01,-1.73 -3.11,-1.59 -3.19,-1.44 -3.26,-1.29 -3.35,-1.13 -3.42,-0.97 -3.48,-0.81 -3.55,-0.63 -3.6,-0.46 -3.66,-0.28 -3.7,-0.09 c -39.76,0 -72,32.24 -72,72 0,39.76 32.24,72 72,72 39.76,0 72,-32.24 72,-72 z"
   id="path3673"
   inkscape:connector-curvature="0"
   style="stroke-width:0.5625;stroke-dasharray:2.25, 2.25" />
<line
   x1="144"
   y1="734.03998"
   x2="81.561996"
   y2="698.03998"
   id="line3675"
   style="stroke-width:0.5625" />
<path
   d="m 144,734.04 c -4.88,-7.88 -10.5,-13.88 -16.88,-18"
   id="path3677"
   inkscape:connector-curvature="0"
   style="stroke-width:0.5625;stroke-dasharray:11.25, 2.25, 2.25, 2.25" />
<path
   d="m 81.562,698.04 c 11.626,1.87 21.748,5.06 30.378,9.56"
   id="path3679"
   inkscape:connector-curvature="0"
   style="stroke-width:0.5625;stroke-dasharray:11.25, 2.25, 2.25, 2.25" />
<text
   transform="matrix(0.5625,0,0,-0.5625,117.56,708.16)"
   font-style="italic"
   font-weight="bold"
   font-size="20px"
   id="text3681"
   style="font-size:20px;font-style:italic;font-weight:bold;fill:#000000;stroke:none;font-family:'Times-BoldItalic,Times,serif'">r</text>

</g></svg>
