<?xml version="1.0" encoding="UTF-8" standalone="no"?>
<svg
   xmlns:dc="http://purl.org/dc/elements/1.1/"
   xmlns:cc="http://creativecommons.org/ns#"
   xmlns:rdf="http://www.w3.org/1999/02/22-rdf-syntax-ns#"
   xmlns:svg="http://www.w3.org/2000/svg"
   xmlns="http://www.w3.org/2000/svg"
   xmlns:sodipodi="http://sodipodi.sourceforge.net/DTD/sodipodi-0.dtd"
   xmlns:inkscape="http://www.inkscape.org/namespaces/inkscape"
   version="1.1"
   id="body"
   width="8in"
   height="8in"
   viewBox="0 0 1 1"
   preserveAspectRatio="none"
   inkscape:version="0.92.2 5c3e80d, 2017-08-06"
   sodipodi:docname="Euler05.svg">
  <metadata
     id="metadata7744">
    <rdf:RDF>
      <cc:Work
         rdf:about="">
        <dc:format>image/svg+xml</dc:format>
        <dc:type
           rdf:resource="http://purl.org/dc/dcmitype/StillImage" />
      </cc:Work>
    </rdf:RDF>
  </metadata>
  <defs
     id="defs7742" />
  <sodipodi:namedview
     pagecolor="#ffffff"
     bordercolor="#666666"
     borderopacity="1"
     objecttolerance="10"
     gridtolerance="10"
     guidetolerance="10"
     inkscape:pageopacity="0"
     inkscape:pageshadow="2"
     inkscape:window-width="1233"
     inkscape:window-height="877"
     id="namedview7740"
     showgrid="false"
     inkscape:zoom="0.82942708"
     inkscape:cx="384"
     inkscape:cy="384"
     inkscape:window-x="0"
     inkscape:window-y="0"
     inkscape:window-maximized="0"
     inkscape:current-layer="body" />
  <title
     id="title7566">SVG drawing</title>
  <desc
     id="desc7568">This was produced by version 4.4 of GNU libplot, a free library for exporting 2-D vector graphics.</desc>
  <g
     id="g7425"
     transform="matrix(0.5,0,0,0.5,0.25132255,0.24523123)">
    <g
       style="font-style:normal;font-variant:normal;font-weight:normal;font-stretch:normal;letter-spacing:normal;word-spacing:normal;text-anchor:start;fill:none;stroke:#000000;stroke-width:1;stroke-linecap:butt;stroke-linejoin:miter;stroke-miterlimit:10.43299961;stroke-dasharray:none;stroke-dashoffset:0;stroke-opacity:1"
       word-spacing="normal"
       letter-spacing="normal"
       font-size-adjust="none"
       font-stretch="normal"
       font-weight="normal"
       font-variant="normal"
       font-style="normal"
       stroke-miterlimit="10.433"
       xml:space="preserve"
       transform="matrix(0.0017361,0,0,-0.0017361,0.00264831,1.5773305)"
       id="content"><polygon
         style="fill:#ffffff;stroke:#ffffff;stroke-width:0"
         id="polygon7572"
         points="360,572.04 468,572.04 468,680.04 " /><polygon
         style="stroke-width:0.5625"
         id="polygon7574"
         points="360,572.04 468,572.04 468,680.04 " /><polygon
         style="fill:#ffffff;stroke:#ffffff;stroke-width:0"
         id="polygon7576"
         points="360,572.04 468,680.04 360,680.04 " /><polygon
         style="stroke-width:0.5625"
         id="polygon7578"
         points="360,572.04 468,680.04 360,680.04 " /><line
         style="stroke-width:1.6875"
         id="line7580"
         y2="639.53998"
         x2="317.25"
         y1="639.53998"
         x1="252" /><polygon
         style="fill:#ffffff;fill-rule:nonzero;stroke:#ffffff;stroke-width:0"
         id="polygon7582"
         points="317.25,636.73 317.25,642.35 324,639.54 " /><polygon
         style="fill:#000000;fill-rule:nonzero;stroke-width:0"
         id="polygon7584"
         points="317.25,636.73 317.25,642.35 324,639.54 " /><line
         style="stroke-width:1.6875"
         id="line7586"
         y2="612.53998"
         x2="258.75"
         y1="612.53998"
         x1="324" /><polygon
         style="fill:#ffffff;fill-rule:nonzero;stroke:#ffffff;stroke-width:0"
         id="polygon7588"
         points="258.75,615.35 258.75,609.73 252,612.54 " /><polygon
         style="fill:#000000;fill-rule:nonzero;stroke-width:0"
         id="polygon7590"
         points="258.75,615.35 258.75,609.73 252,612.54 " /><polygon
         style="fill:#ffffff;fill-rule:nonzero;stroke:#ffffff;stroke-width:0"
         id="polygon7592"
         points="108,572.04 216,572.04 216,680.04 108,680.04 " /><polygon
         style="stroke-width:1.125"
         id="polygon7594"
         points="108,572.04 216,572.04 216,680.04 108,680.04 " /><path
         style="fill:#000000;fill-rule:nonzero;stroke-width:0"
         inkscape:connector-curvature="0"
         id="path7596"
         d="m 112.5,680.04 -0.01,-0.23 -0.01,-0.23 -0.03,-0.23 -0.04,-0.22 -0.05,-0.22 -0.06,-0.21 -0.07,-0.21 -0.08,-0.2 -0.09,-0.2 -0.1,-0.2 -0.11,-0.18 -0.12,-0.19 -0.12,-0.17 -0.14,-0.17 -0.14,-0.17 -0.15,-0.15 -0.15,-0.15 -0.17,-0.14 -0.17,-0.14 -0.17,-0.12 -0.19,-0.12 -0.19,-0.11 -0.19,-0.1 -0.2,-0.09 -0.2,-0.08 -0.21,-0.07 -0.22,-0.06 -0.21,-0.05 -0.22,-0.04 -0.23,-0.03 -0.23,-0.02 H 108 c -2.48,0 -4.5,2.01 -4.5,4.5 0,2.48 2.02,4.5 4.5,4.5 2.48,0 4.5,-2.02 4.5,-4.5 z" /><path
         style="stroke-width:0.5625"
         inkscape:connector-curvature="0"
         id="path7598"
         d="m 112.5,680.04 -0.01,-0.23 -0.01,-0.23 -0.03,-0.23 -0.04,-0.22 -0.05,-0.22 -0.06,-0.21 -0.07,-0.21 -0.08,-0.2 -0.09,-0.2 -0.1,-0.2 -0.11,-0.18 -0.12,-0.19 -0.12,-0.17 -0.14,-0.17 -0.14,-0.17 -0.15,-0.15 -0.15,-0.15 -0.17,-0.14 -0.17,-0.14 -0.17,-0.12 -0.19,-0.12 -0.19,-0.11 -0.19,-0.1 -0.2,-0.09 -0.2,-0.08 -0.21,-0.07 -0.22,-0.06 -0.21,-0.05 -0.22,-0.04 -0.23,-0.03 -0.23,-0.02 H 108 c -2.48,0 -4.5,2.01 -4.5,4.5 0,2.48 2.02,4.5 4.5,4.5 2.48,0 4.5,-2.02 4.5,-4.5 z" /><path
         style="fill:#000000;fill-rule:nonzero;stroke-width:0"
         inkscape:connector-curvature="0"
         id="path7600"
         d="m 220.5,680.04 -0.01,-0.23 -0.01,-0.23 -0.03,-0.23 -0.04,-0.22 -0.05,-0.22 -0.06,-0.21 -0.07,-0.21 -0.08,-0.2 -0.09,-0.2 -0.1,-0.2 -0.11,-0.18 -0.12,-0.19 -0.12,-0.17 -0.14,-0.17 -0.14,-0.17 -0.15,-0.15 -0.15,-0.15 -0.17,-0.14 -0.17,-0.14 -0.17,-0.12 -0.19,-0.12 -0.19,-0.11 -0.19,-0.1 -0.2,-0.09 -0.2,-0.08 -0.21,-0.07 -0.22,-0.06 -0.21,-0.05 -0.22,-0.04 -0.23,-0.03 -0.23,-0.02 H 216 c -2.48,0 -4.5,2.01 -4.5,4.5 0,2.48 2.02,4.5 4.5,4.5 2.48,0 4.5,-2.02 4.5,-4.5 z" /><path
         style="stroke-width:0.5625"
         inkscape:connector-curvature="0"
         id="path7602"
         d="m 220.5,680.04 -0.01,-0.23 -0.01,-0.23 -0.03,-0.23 -0.04,-0.22 -0.05,-0.22 -0.06,-0.21 -0.07,-0.21 -0.08,-0.2 -0.09,-0.2 -0.1,-0.2 -0.11,-0.18 -0.12,-0.19 -0.12,-0.17 -0.14,-0.17 -0.14,-0.17 -0.15,-0.15 -0.15,-0.15 -0.17,-0.14 -0.17,-0.14 -0.17,-0.12 -0.19,-0.12 -0.19,-0.11 -0.19,-0.1 -0.2,-0.09 -0.2,-0.08 -0.21,-0.07 -0.22,-0.06 -0.21,-0.05 -0.22,-0.04 -0.23,-0.03 -0.23,-0.02 H 216 c -2.48,0 -4.5,2.01 -4.5,4.5 0,2.48 2.02,4.5 4.5,4.5 2.48,0 4.5,-2.02 4.5,-4.5 z" /><path
         style="fill:#000000;fill-rule:nonzero;stroke-width:0"
         inkscape:connector-curvature="0"
         id="path7604"
         d="m 112.5,572.04 -0.01,-0.23 -0.01,-0.23 -0.03,-0.23 -0.04,-0.22 -0.05,-0.22 -0.06,-0.21 -0.07,-0.21 -0.08,-0.2 -0.09,-0.2 -0.1,-0.2 -0.11,-0.18 -0.12,-0.19 -0.12,-0.17 -0.14,-0.17 -0.14,-0.17 -0.15,-0.15 -0.15,-0.15 -0.17,-0.14 -0.17,-0.14 -0.17,-0.12 -0.19,-0.12 -0.19,-0.11 -0.19,-0.1 -0.2,-0.09 -0.2,-0.08 -0.21,-0.07 -0.22,-0.06 -0.21,-0.05 -0.22,-0.04 -0.23,-0.03 -0.23,-0.02 H 108 c -2.48,0 -4.5,2.01 -4.5,4.5 0,2.48 2.02,4.5 4.5,4.5 2.48,0 4.5,-2.02 4.5,-4.5 z" /><path
         style="stroke-width:0.5625"
         inkscape:connector-curvature="0"
         id="path7606"
         d="m 112.5,572.04 -0.01,-0.23 -0.01,-0.23 -0.03,-0.23 -0.04,-0.22 -0.05,-0.22 -0.06,-0.21 -0.07,-0.21 -0.08,-0.2 -0.09,-0.2 -0.1,-0.2 -0.11,-0.18 -0.12,-0.19 -0.12,-0.17 -0.14,-0.17 -0.14,-0.17 -0.15,-0.15 -0.15,-0.15 -0.17,-0.14 -0.17,-0.14 -0.17,-0.12 -0.19,-0.12 -0.19,-0.11 -0.19,-0.1 -0.2,-0.09 -0.2,-0.08 -0.21,-0.07 -0.22,-0.06 -0.21,-0.05 -0.22,-0.04 -0.23,-0.03 -0.23,-0.02 H 108 c -2.48,0 -4.5,2.01 -4.5,4.5 0,2.48 2.02,4.5 4.5,4.5 2.48,0 4.5,-2.02 4.5,-4.5 z" /><path
         style="fill:#000000;fill-rule:nonzero;stroke-width:0"
         inkscape:connector-curvature="0"
         id="path7608"
         d="m 220.5,572.04 -0.01,-0.23 -0.01,-0.23 -0.03,-0.23 -0.04,-0.22 -0.05,-0.22 -0.06,-0.21 -0.07,-0.21 -0.08,-0.2 -0.09,-0.2 -0.1,-0.2 -0.11,-0.18 -0.12,-0.19 -0.12,-0.17 -0.14,-0.17 -0.14,-0.17 -0.15,-0.15 -0.15,-0.15 -0.17,-0.14 -0.17,-0.14 -0.17,-0.12 -0.19,-0.12 -0.19,-0.11 -0.19,-0.1 -0.2,-0.09 -0.2,-0.08 -0.21,-0.07 -0.22,-0.06 -0.21,-0.05 -0.22,-0.04 -0.23,-0.03 -0.23,-0.02 H 216 c -2.48,0 -4.5,2.01 -4.5,4.5 0,2.48 2.02,4.5 4.5,4.5 2.48,0 4.5,-2.02 4.5,-4.5 z" /><path
         style="stroke-width:0.5625"
         inkscape:connector-curvature="0"
         id="path7610"
         d="m 220.5,572.04 -0.01,-0.23 -0.01,-0.23 -0.03,-0.23 -0.04,-0.22 -0.05,-0.22 -0.06,-0.21 -0.07,-0.21 -0.08,-0.2 -0.09,-0.2 -0.1,-0.2 -0.11,-0.18 -0.12,-0.19 -0.12,-0.17 -0.14,-0.17 -0.14,-0.17 -0.15,-0.15 -0.15,-0.15 -0.17,-0.14 -0.17,-0.14 -0.17,-0.12 -0.19,-0.12 -0.19,-0.11 -0.19,-0.1 -0.2,-0.09 -0.2,-0.08 -0.21,-0.07 -0.22,-0.06 -0.21,-0.05 -0.22,-0.04 -0.23,-0.03 -0.23,-0.02 H 216 c -2.48,0 -4.5,2.01 -4.5,4.5 0,2.48 2.02,4.5 4.5,4.5 2.48,0 4.5,-2.02 4.5,-4.5 z" /><line
         style="stroke-width:0.5625"
         id="line7612"
         y2="617.03998"
         x2="103.5"
         y1="630.53998"
         x1="103.5" /><polygon
         style="fill:#ffffff;fill-rule:nonzero;stroke:#ffffff;stroke-width:0"
         id="polygon7614"
         points="105.19,630.54 101.81,630.54 103.5,635.04 " /><polygon
         style="fill:#000000;fill-rule:nonzero;stroke-width:0"
         id="polygon7616"
         points="105.19,630.54 101.81,630.54 103.5,635.04 " /><line
         style="stroke-width:0.5625"
         id="line7618"
         y2="621.53998"
         x2="112.5"
         y1="635.03998"
         x1="112.5" /><polygon
         style="fill:#ffffff;fill-rule:nonzero;stroke:#ffffff;stroke-width:0"
         id="polygon7620"
         points="110.81,621.54 114.19,621.54 112.5,617.04 " /><polygon
         style="fill:#000000;fill-rule:nonzero;stroke-width:0"
         id="polygon7622"
         points="110.81,621.54 114.19,621.54 112.5,617.04 " /><line
         style="stroke-width:0.5625"
         id="line7624"
         y2="617.03998"
         x2="211.5"
         y1="630.53998"
         x1="211.5" /><polygon
         style="fill:#ffffff;fill-rule:nonzero;stroke:#ffffff;stroke-width:0"
         id="polygon7626"
         points="213.19,630.54 209.81,630.54 211.5,635.04 " /><polygon
         style="fill:#000000;fill-rule:nonzero;stroke-width:0"
         id="polygon7628"
         points="213.19,630.54 209.81,630.54 211.5,635.04 " /><line
         style="stroke-width:0.5625"
         id="line7630"
         y2="621.53998"
         x2="220.5"
         y1="635.03998"
         x1="220.5" /><polygon
         style="fill:#ffffff;fill-rule:nonzero;stroke:#ffffff;stroke-width:0"
         id="polygon7632"
         points="218.81,621.54 222.19,621.54 220.5,617.04 " /><polygon
         style="fill:#000000;fill-rule:nonzero;stroke-width:0"
         id="polygon7634"
         points="218.81,621.54 222.19,621.54 220.5,617.04 " /><line
         style="stroke-width:0.5625"
         id="line7636"
         y2="684.53998"
         x2="166.5"
         y1="684.53998"
         x1="153" /><polygon
         style="fill:#ffffff;fill-rule:nonzero;stroke:#ffffff;stroke-width:0"
         id="polygon7638"
         points="166.5,682.85 166.5,686.23 171,684.54 " /><polygon
         style="fill:#000000;fill-rule:nonzero;stroke-width:0"
         id="polygon7640"
         points="166.5,682.85 166.5,686.23 171,684.54 " /><line
         style="stroke-width:0.5625"
         id="line7642"
         y2="675.53998"
         x2="171"
         y1="675.53998"
         x1="157.5" /><polygon
         style="fill:#ffffff;fill-rule:nonzero;stroke:#ffffff;stroke-width:0"
         id="polygon7644"
         points="157.5,677.23 157.5,673.85 153,675.54 " /><polygon
         style="fill:#000000;fill-rule:nonzero;stroke-width:0"
         id="polygon7646"
         points="157.5,677.23 157.5,673.85 153,675.54 " /><line
         style="stroke-width:0.5625"
         id="line7648"
         y2="576.53998"
         x2="166.5"
         y1="576.53998"
         x1="153" /><polygon
         style="fill:#ffffff;fill-rule:nonzero;stroke:#ffffff;stroke-width:0"
         id="polygon7650"
         points="166.5,574.85 166.5,578.23 171,576.54 " /><polygon
         style="fill:#000000;fill-rule:nonzero;stroke-width:0"
         id="polygon7652"
         points="166.5,574.85 166.5,578.23 171,576.54 " /><line
         style="stroke-width:0.5625"
         id="line7654"
         y2="567.53998"
         x2="171"
         y1="567.53998"
         x1="157.5" /><polygon
         style="fill:#ffffff;fill-rule:nonzero;stroke:#ffffff;stroke-width:0"
         id="polygon7656"
         points="157.5,569.23 157.5,565.85 153,567.54 " /><polygon
         style="fill:#000000;fill-rule:nonzero;stroke-width:0"
         id="polygon7658"
         points="157.5,569.23 157.5,565.85 153,567.54 " /><polygon
         style="stroke-width:1.125"
         id="polygon7660"
         points="360,572.04 468,572.04 468,680.04 360,680.04 " /><path
         style="fill:#000000;fill-rule:nonzero;stroke-width:0"
         inkscape:connector-curvature="0"
         id="path7662"
         d="m 364.5,680.04 -0.01,-0.23 -0.01,-0.23 -0.03,-0.23 -0.04,-0.22 -0.05,-0.22 -0.06,-0.21 -0.07,-0.21 -0.08,-0.2 -0.09,-0.2 -0.1,-0.2 -0.11,-0.18 -0.12,-0.19 -0.12,-0.17 -0.14,-0.17 -0.14,-0.17 -0.15,-0.15 -0.15,-0.15 -0.17,-0.14 -0.17,-0.14 -0.17,-0.12 -0.19,-0.12 -0.19,-0.11 -0.19,-0.1 -0.2,-0.09 -0.2,-0.08 -0.21,-0.07 -0.22,-0.06 -0.21,-0.05 -0.22,-0.04 -0.23,-0.03 -0.23,-0.02 H 360 c -2.48,0 -4.5,2.01 -4.5,4.5 0,2.48 2.02,4.5 4.5,4.5 2.48,0 4.5,-2.02 4.5,-4.5 z" /><path
         style="stroke-width:0.5625"
         inkscape:connector-curvature="0"
         id="path7664"
         d="m 364.5,680.04 -0.01,-0.23 -0.01,-0.23 -0.03,-0.23 -0.04,-0.22 -0.05,-0.22 -0.06,-0.21 -0.07,-0.21 -0.08,-0.2 -0.09,-0.2 -0.1,-0.2 -0.11,-0.18 -0.12,-0.19 -0.12,-0.17 -0.14,-0.17 -0.14,-0.17 -0.15,-0.15 -0.15,-0.15 -0.17,-0.14 -0.17,-0.14 -0.17,-0.12 -0.19,-0.12 -0.19,-0.11 -0.19,-0.1 -0.2,-0.09 -0.2,-0.08 -0.21,-0.07 -0.22,-0.06 -0.21,-0.05 -0.22,-0.04 -0.23,-0.03 -0.23,-0.02 H 360 c -2.48,0 -4.5,2.01 -4.5,4.5 0,2.48 2.02,4.5 4.5,4.5 2.48,0 4.5,-2.02 4.5,-4.5 z" /><path
         style="fill:#000000;fill-rule:nonzero;stroke-width:0"
         inkscape:connector-curvature="0"
         id="path7666"
         d="m 472.5,680.04 -0.01,-0.23 -0.01,-0.23 -0.03,-0.23 -0.04,-0.22 -0.05,-0.22 -0.06,-0.21 -0.07,-0.21 -0.08,-0.2 -0.09,-0.2 -0.1,-0.2 -0.11,-0.18 -0.12,-0.19 -0.12,-0.17 -0.14,-0.17 -0.14,-0.17 -0.15,-0.15 -0.15,-0.15 -0.17,-0.14 -0.17,-0.14 -0.17,-0.12 -0.19,-0.12 -0.19,-0.11 -0.19,-0.1 -0.2,-0.09 -0.2,-0.08 -0.21,-0.07 -0.22,-0.06 -0.21,-0.05 -0.22,-0.04 -0.23,-0.03 -0.23,-0.02 H 468 c -2.48,0 -4.5,2.01 -4.5,4.5 0,2.48 2.02,4.5 4.5,4.5 2.48,0 4.5,-2.02 4.5,-4.5 z" /><path
         style="stroke-width:0.5625"
         inkscape:connector-curvature="0"
         id="path7668"
         d="m 472.5,680.04 -0.01,-0.23 -0.01,-0.23 -0.03,-0.23 -0.04,-0.22 -0.05,-0.22 -0.06,-0.21 -0.07,-0.21 -0.08,-0.2 -0.09,-0.2 -0.1,-0.2 -0.11,-0.18 -0.12,-0.19 -0.12,-0.17 -0.14,-0.17 -0.14,-0.17 -0.15,-0.15 -0.15,-0.15 -0.17,-0.14 -0.17,-0.14 -0.17,-0.12 -0.19,-0.12 -0.19,-0.11 -0.19,-0.1 -0.2,-0.09 -0.2,-0.08 -0.21,-0.07 -0.22,-0.06 -0.21,-0.05 -0.22,-0.04 -0.23,-0.03 -0.23,-0.02 H 468 c -2.48,0 -4.5,2.01 -4.5,4.5 0,2.48 2.02,4.5 4.5,4.5 2.48,0 4.5,-2.02 4.5,-4.5 z" /><path
         style="fill:#000000;fill-rule:nonzero;stroke-width:0"
         inkscape:connector-curvature="0"
         id="path7670"
         d="m 364.5,572.04 -0.01,-0.23 -0.01,-0.23 -0.03,-0.23 -0.04,-0.22 -0.05,-0.22 -0.06,-0.21 -0.07,-0.21 -0.08,-0.2 -0.09,-0.2 -0.1,-0.2 -0.11,-0.18 -0.12,-0.19 -0.12,-0.17 -0.14,-0.17 -0.14,-0.17 -0.15,-0.15 -0.15,-0.15 -0.17,-0.14 -0.17,-0.14 -0.17,-0.12 -0.19,-0.12 -0.19,-0.11 -0.19,-0.1 -0.2,-0.09 -0.2,-0.08 -0.21,-0.07 -0.22,-0.06 -0.21,-0.05 -0.22,-0.04 -0.23,-0.03 -0.23,-0.02 H 360 c -2.48,0 -4.5,2.01 -4.5,4.5 0,2.48 2.02,4.5 4.5,4.5 2.48,0 4.5,-2.02 4.5,-4.5 z" /><path
         style="stroke-width:0.5625"
         inkscape:connector-curvature="0"
         id="path7672"
         d="m 364.5,572.04 -0.01,-0.23 -0.01,-0.23 -0.03,-0.23 -0.04,-0.22 -0.05,-0.22 -0.06,-0.21 -0.07,-0.21 -0.08,-0.2 -0.09,-0.2 -0.1,-0.2 -0.11,-0.18 -0.12,-0.19 -0.12,-0.17 -0.14,-0.17 -0.14,-0.17 -0.15,-0.15 -0.15,-0.15 -0.17,-0.14 -0.17,-0.14 -0.17,-0.12 -0.19,-0.12 -0.19,-0.11 -0.19,-0.1 -0.2,-0.09 -0.2,-0.08 -0.21,-0.07 -0.22,-0.06 -0.21,-0.05 -0.22,-0.04 -0.23,-0.03 -0.23,-0.02 H 360 c -2.48,0 -4.5,2.01 -4.5,4.5 0,2.48 2.02,4.5 4.5,4.5 2.48,0 4.5,-2.02 4.5,-4.5 z" /><path
         style="fill:#000000;fill-rule:nonzero;stroke-width:0"
         inkscape:connector-curvature="0"
         id="path7674"
         d="m 472.5,572.04 -0.01,-0.23 -0.01,-0.23 -0.03,-0.23 -0.04,-0.22 -0.05,-0.22 -0.06,-0.21 -0.07,-0.21 -0.08,-0.2 -0.09,-0.2 -0.1,-0.2 -0.11,-0.18 -0.12,-0.19 -0.12,-0.17 -0.14,-0.17 -0.14,-0.17 -0.15,-0.15 -0.15,-0.15 -0.17,-0.14 -0.17,-0.14 -0.17,-0.12 -0.19,-0.12 -0.19,-0.11 -0.19,-0.1 -0.2,-0.09 -0.2,-0.08 -0.21,-0.07 -0.22,-0.06 -0.21,-0.05 -0.22,-0.04 -0.23,-0.03 -0.23,-0.02 H 468 c -2.48,0 -4.5,2.01 -4.5,4.5 0,2.48 2.02,4.5 4.5,4.5 2.48,0 4.5,-2.02 4.5,-4.5 z" /><path
         style="stroke-width:0.5625"
         inkscape:connector-curvature="0"
         id="path7676"
         d="m 472.5,572.04 -0.01,-0.23 -0.01,-0.23 -0.03,-0.23 -0.04,-0.22 -0.05,-0.22 -0.06,-0.21 -0.07,-0.21 -0.08,-0.2 -0.09,-0.2 -0.1,-0.2 -0.11,-0.18 -0.12,-0.19 -0.12,-0.17 -0.14,-0.17 -0.14,-0.17 -0.15,-0.15 -0.15,-0.15 -0.17,-0.14 -0.17,-0.14 -0.17,-0.12 -0.19,-0.12 -0.19,-0.11 -0.19,-0.1 -0.2,-0.09 -0.2,-0.08 -0.21,-0.07 -0.22,-0.06 -0.21,-0.05 -0.22,-0.04 -0.23,-0.03 -0.23,-0.02 H 468 c -2.48,0 -4.5,2.01 -4.5,4.5 0,2.48 2.02,4.5 4.5,4.5 2.48,0 4.5,-2.02 4.5,-4.5 z" /><line
         style="stroke-width:0.5625"
         id="line7678"
         y2="617.03998"
         x2="355.5"
         y1="630.53998"
         x1="355.5" /><polygon
         style="fill:#ffffff;fill-rule:nonzero;stroke:#ffffff;stroke-width:0"
         id="polygon7680"
         points="357.19,630.54 353.81,630.54 355.5,635.04 " /><polygon
         style="fill:#000000;fill-rule:nonzero;stroke-width:0"
         id="polygon7682"
         points="357.19,630.54 353.81,630.54 355.5,635.04 " /><line
         style="stroke-width:0.5625"
         id="line7684"
         y2="621.53998"
         x2="364.5"
         y1="635.03998"
         x1="364.5" /><polygon
         style="fill:#ffffff;fill-rule:nonzero;stroke:#ffffff;stroke-width:0"
         id="polygon7686"
         points="362.81,621.54 366.19,621.54 364.5,617.04 " /><polygon
         style="fill:#000000;fill-rule:nonzero;stroke-width:0"
         id="polygon7688"
         points="362.81,621.54 366.19,621.54 364.5,617.04 " /><line
         style="stroke-width:0.5625"
         id="line7690"
         y2="617.03998"
         x2="463.5"
         y1="630.53998"
         x1="463.5" /><polygon
         style="fill:#ffffff;fill-rule:nonzero;stroke:#ffffff;stroke-width:0"
         id="polygon7692"
         points="465.19,630.54 461.81,630.54 463.5,635.04 " /><polygon
         style="fill:#000000;fill-rule:nonzero;stroke-width:0"
         id="polygon7694"
         points="465.19,630.54 461.81,630.54 463.5,635.04 " /><line
         style="stroke-width:0.5625"
         id="line7696"
         y2="621.53998"
         x2="472.5"
         y1="635.03998"
         x1="472.5" /><polygon
         style="fill:#ffffff;fill-rule:nonzero;stroke:#ffffff;stroke-width:0"
         id="polygon7698"
         points="470.81,621.54 474.19,621.54 472.5,617.04 " /><polygon
         style="fill:#000000;fill-rule:nonzero;stroke-width:0"
         id="polygon7700"
         points="470.81,621.54 474.19,621.54 472.5,617.04 " /><line
         style="stroke-width:0.5625"
         id="line7702"
         y2="684.53998"
         x2="418.5"
         y1="684.53998"
         x1="405" /><polygon
         style="fill:#ffffff;fill-rule:nonzero;stroke:#ffffff;stroke-width:0"
         id="polygon7704"
         points="418.5,682.85 418.5,686.23 423,684.54 " /><polygon
         style="fill:#000000;fill-rule:nonzero;stroke-width:0"
         id="polygon7706"
         points="418.5,682.85 418.5,686.23 423,684.54 " /><line
         style="stroke-width:0.5625"
         id="line7708"
         y2="675.53998"
         x2="423"
         y1="675.53998"
         x1="409.5" /><polygon
         style="fill:#ffffff;fill-rule:nonzero;stroke:#ffffff;stroke-width:0"
         id="polygon7710"
         points="409.5,677.23 409.5,673.85 405,675.54 " /><polygon
         style="fill:#000000;fill-rule:nonzero;stroke-width:0"
         id="polygon7712"
         points="409.5,677.23 409.5,673.85 405,675.54 " /><line
         style="stroke-width:0.5625"
         id="line7714"
         y2="576.53998"
         x2="418.5"
         y1="576.53998"
         x1="405" /><polygon
         style="fill:#ffffff;fill-rule:nonzero;stroke:#ffffff;stroke-width:0"
         id="polygon7716"
         points="418.5,574.85 418.5,578.23 423,576.54 " /><polygon
         style="fill:#000000;fill-rule:nonzero;stroke-width:0"
         id="polygon7718"
         points="418.5,574.85 418.5,578.23 423,576.54 " /><line
         style="stroke-width:0.5625"
         id="line7720"
         y2="567.53998"
         x2="423"
         y1="567.53998"
         x1="409.5" /><polygon
         style="fill:#ffffff;fill-rule:nonzero;stroke:#ffffff;stroke-width:0"
         id="polygon7722"
         points="409.5,569.23 409.5,565.85 405,567.54 " /><polygon
         style="fill:#000000;fill-rule:nonzero;stroke-width:0"
         id="polygon7724"
         points="409.5,569.23 409.5,565.85 405,567.54 " /><line
         style="stroke-width:1.125"
         id="line7726"
         y2="680.03998"
         x2="468"
         y1="572.03998"
         x1="360" /><line
         style="stroke-width:0.5625"
         id="line7728"
         y2="631.85999"
         x2="413.07001"
         y1="623.78998"
         x1="405" /><polygon
         style="fill:#ffffff;fill-rule:nonzero;stroke:#ffffff;stroke-width:0"
         id="polygon7730"
         points="414.26,630.66 411.88,633.05 416.25,635.04 " /><polygon
         style="fill:#000000;fill-rule:nonzero;stroke-width:0"
         id="polygon7732"
         points="414.26,630.66 411.88,633.05 416.25,635.04 " /><line
         style="stroke-width:0.5625"
         id="line7734"
         y2="628.28998"
         x2="423"
         y1="620.21997"
         x1="414.92999" /><polygon
         style="fill:#ffffff;fill-rule:nonzero;stroke:#ffffff;stroke-width:0"
         id="polygon7736"
         points="413.74,621.41 416.12,619.03 411.75,617.04 " /><polygon
         style="fill:#000000;fill-rule:nonzero;stroke-width:0"
         id="polygon7738"
         points="413.74,621.41 416.12,619.03 411.75,617.04 " /></g>  </g>
</svg>
