<?xml version="1.0" encoding="UTF-8" standalone="no"?>
<svg
   xmlns:dc="http://purl.org/dc/elements/1.1/"
   xmlns:cc="http://creativecommons.org/ns#"
   xmlns:rdf="http://www.w3.org/1999/02/22-rdf-syntax-ns#"
   xmlns:svg="http://www.w3.org/2000/svg"
   xmlns="http://www.w3.org/2000/svg"
   xmlns:sodipodi="http://sodipodi.sourceforge.net/DTD/sodipodi-0.dtd"
   xmlns:inkscape="http://www.inkscape.org/namespaces/inkscape"
   version="1.1"
   id="body"
   width="8in"
   height="8in"
   viewBox="0 0 1 1"
   preserveAspectRatio="none"
   inkscape:version="0.92.2 5c3e80d, 2017-08-06"
   sodipodi:docname="Euler02.svg">
  <metadata
     id="metadata4512">
    <rdf:RDF>
      <cc:Work
         rdf:about="">
        <dc:format>image/svg+xml</dc:format>
        <dc:type
           rdf:resource="http://purl.org/dc/dcmitype/StillImage" />
      </cc:Work>
    </rdf:RDF>
  </metadata>
  <defs
     id="defs4510" />
  <sodipodi:namedview
     pagecolor="#ffffff"
     bordercolor="#666666"
     borderopacity="1"
     objecttolerance="10"
     gridtolerance="10"
     guidetolerance="10"
     inkscape:pageopacity="0"
     inkscape:pageshadow="2"
     inkscape:window-width="1086"
     inkscape:window-height="896"
     id="namedview4508"
     showgrid="false"
     inkscape:zoom="0.92709556"
     inkscape:cx="135.64341"
     inkscape:cy="360"
     inkscape:window-x="302"
     inkscape:window-y="83"
     inkscape:window-maximized="0"
     inkscape:current-layer="body" />
  <title
     id="title4468">SVG drawing</title>
  <desc
     id="desc4470">This was produced by version 4.4 of GNU libplot, a free library for exporting 2-D vector graphics.</desc>
  <g
     id="g1550"
     transform="matrix(0.5,0,0,0.5,0.24920391,0.21330266)">
    <g
       style="font-style:normal;font-variant:normal;font-weight:normal;font-stretch:normal;letter-spacing:normal;word-spacing:normal;text-anchor:start;fill:none;stroke:#000000;stroke-width:1;stroke-linecap:butt;stroke-linejoin:miter;stroke-miterlimit:10.43299961;stroke-dasharray:none;stroke-dashoffset:0;stroke-opacity:1"
       word-spacing="normal"
       letter-spacing="normal"
       font-size-adjust="none"
       font-stretch="normal"
       font-weight="normal"
       font-variant="normal"
       font-style="normal"
       stroke-miterlimit="10.433"
       xml:space="preserve"
       transform="matrix(0.0017361,0,0,-0.0017361,-0.00158898,1.5349576)"
       id="content"><path
         style="fill:#000000;fill-rule:nonzero;stroke-width:0"
         inkscape:connector-curvature="0"
         id="path4474"
         d="m 112.5,626.04 -0.01,-0.23 -0.01,-0.23 -0.03,-0.23 -0.04,-0.22 -0.05,-0.22 -0.06,-0.21 -0.07,-0.21 -0.08,-0.2 -0.09,-0.2 -0.1,-0.2 -0.11,-0.18 -0.12,-0.19 -0.12,-0.17 -0.14,-0.17 -0.14,-0.17 -0.15,-0.15 -0.15,-0.15 -0.17,-0.14 -0.17,-0.14 -0.17,-0.12 -0.19,-0.12 -0.19,-0.11 -0.19,-0.1 -0.2,-0.09 -0.2,-0.08 -0.21,-0.07 -0.22,-0.06 -0.21,-0.05 -0.22,-0.04 -0.23,-0.03 -0.23,-0.02 H 108 c -2.48,0 -4.5,2.01 -4.5,4.5 0,2.48 2.02,4.5 4.5,4.5 2.48,0 4.5,-2.02 4.5,-4.5 z" /><path
         style="stroke-width:0.5625"
         inkscape:connector-curvature="0"
         id="path4476"
         d="m 112.5,626.04 -0.01,-0.23 -0.01,-0.23 -0.03,-0.23 -0.04,-0.22 -0.05,-0.22 -0.06,-0.21 -0.07,-0.21 -0.08,-0.2 -0.09,-0.2 -0.1,-0.2 -0.11,-0.18 -0.12,-0.19 -0.12,-0.17 -0.14,-0.17 -0.14,-0.17 -0.15,-0.15 -0.15,-0.15 -0.17,-0.14 -0.17,-0.14 -0.17,-0.12 -0.19,-0.12 -0.19,-0.11 -0.19,-0.1 -0.2,-0.09 -0.2,-0.08 -0.21,-0.07 -0.22,-0.06 -0.21,-0.05 -0.22,-0.04 -0.23,-0.03 -0.23,-0.02 H 108 c -2.48,0 -4.5,2.01 -4.5,4.5 0,2.48 2.02,4.5 4.5,4.5 2.48,0 4.5,-2.02 4.5,-4.5 z" /><line
         style="stroke-width:1.6875"
         id="line4478"
         y2="639.53998"
         x2="317.25"
         y1="639.53998"
         x1="252" /><polygon
         style="fill:#ffffff;fill-rule:nonzero;stroke:#ffffff;stroke-width:0"
         id="polygon4480"
         points="317.25,636.73 317.25,642.35 324,639.54 " /><polygon
         style="fill:#000000;fill-rule:nonzero;stroke-width:0"
         id="polygon4482"
         points="317.25,636.73 317.25,642.35 324,639.54 " /><path
         style="fill:#000000;fill-rule:nonzero;stroke-width:0"
         inkscape:connector-curvature="0"
         id="path4484"
         d="m 166.5,626.04 -0.01,-0.23 -0.01,-0.23 -0.03,-0.23 -0.04,-0.22 -0.05,-0.22 -0.06,-0.21 -0.07,-0.21 -0.08,-0.2 -0.09,-0.2 -0.1,-0.2 -0.11,-0.18 -0.12,-0.19 -0.12,-0.17 -0.14,-0.17 -0.14,-0.17 -0.15,-0.15 -0.15,-0.15 -0.17,-0.14 -0.17,-0.14 -0.17,-0.12 -0.19,-0.12 -0.19,-0.11 -0.19,-0.1 -0.2,-0.09 -0.2,-0.08 -0.21,-0.07 -0.22,-0.06 -0.21,-0.05 -0.22,-0.04 -0.23,-0.03 -0.23,-0.02 H 162 c -2.48,0 -4.5,2.01 -4.5,4.5 0,2.48 2.02,4.5 4.5,4.5 2.48,0 4.5,-2.02 4.5,-4.5 z" /><path
         style="stroke-width:0.5625"
         inkscape:connector-curvature="0"
         id="path4486"
         d="m 166.5,626.04 -0.01,-0.23 -0.01,-0.23 -0.03,-0.23 -0.04,-0.22 -0.05,-0.22 -0.06,-0.21 -0.07,-0.21 -0.08,-0.2 -0.09,-0.2 -0.1,-0.2 -0.11,-0.18 -0.12,-0.19 -0.12,-0.17 -0.14,-0.17 -0.14,-0.17 -0.15,-0.15 -0.15,-0.15 -0.17,-0.14 -0.17,-0.14 -0.17,-0.12 -0.19,-0.12 -0.19,-0.11 -0.19,-0.1 -0.2,-0.09 -0.2,-0.08 -0.21,-0.07 -0.22,-0.06 -0.21,-0.05 -0.22,-0.04 -0.23,-0.03 -0.23,-0.02 H 162 c -2.48,0 -4.5,2.01 -4.5,4.5 0,2.48 2.02,4.5 4.5,4.5 2.48,0 4.5,-2.02 4.5,-4.5 z" /><path
         style="fill:#000000;fill-rule:nonzero;stroke-width:0"
         inkscape:connector-curvature="0"
         id="path4488"
         d="m 220.5,626.04 -0.01,-0.23 -0.01,-0.23 -0.03,-0.23 -0.04,-0.22 -0.05,-0.22 -0.06,-0.21 -0.07,-0.21 -0.08,-0.2 -0.09,-0.2 -0.1,-0.2 -0.11,-0.18 -0.12,-0.19 -0.12,-0.17 -0.14,-0.17 -0.14,-0.17 -0.15,-0.15 -0.15,-0.15 -0.17,-0.14 -0.17,-0.14 -0.17,-0.12 -0.19,-0.12 -0.19,-0.11 -0.19,-0.1 -0.2,-0.09 -0.2,-0.08 -0.21,-0.07 -0.22,-0.06 -0.21,-0.05 -0.22,-0.04 -0.23,-0.03 -0.23,-0.02 H 216 c -2.48,0 -4.5,2.01 -4.5,4.5 0,2.48 2.02,4.5 4.5,4.5 2.48,0 4.5,-2.02 4.5,-4.5 z" /><path
         style="stroke-width:0.5625"
         inkscape:connector-curvature="0"
         id="path4490"
         d="m 220.5,626.04 -0.01,-0.23 -0.01,-0.23 -0.03,-0.23 -0.04,-0.22 -0.05,-0.22 -0.06,-0.21 -0.07,-0.21 -0.08,-0.2 -0.09,-0.2 -0.1,-0.2 -0.11,-0.18 -0.12,-0.19 -0.12,-0.17 -0.14,-0.17 -0.14,-0.17 -0.15,-0.15 -0.15,-0.15 -0.17,-0.14 -0.17,-0.14 -0.17,-0.12 -0.19,-0.12 -0.19,-0.11 -0.19,-0.1 -0.2,-0.09 -0.2,-0.08 -0.21,-0.07 -0.22,-0.06 -0.21,-0.05 -0.22,-0.04 -0.23,-0.03 -0.23,-0.02 H 216 c -2.48,0 -4.5,2.01 -4.5,4.5 0,2.48 2.02,4.5 4.5,4.5 2.48,0 4.5,-2.02 4.5,-4.5 z" /><polyline
         style="stroke-width:1.6875"
         id="polyline4492"
         points="108,626.04 162,626.04 216,626.04 " /><path
         style="fill:#000000;fill-rule:nonzero;stroke-width:0"
         inkscape:connector-curvature="0"
         id="path4494"
         d="m 364.5,626.04 -0.01,-0.23 -0.01,-0.23 -0.03,-0.23 -0.04,-0.22 -0.05,-0.22 -0.06,-0.21 -0.07,-0.21 -0.08,-0.2 -0.09,-0.2 -0.1,-0.2 -0.11,-0.18 -0.12,-0.19 -0.12,-0.17 -0.14,-0.17 -0.14,-0.17 -0.15,-0.15 -0.15,-0.15 -0.17,-0.14 -0.17,-0.14 -0.17,-0.12 -0.19,-0.12 -0.19,-0.11 -0.19,-0.1 -0.2,-0.09 -0.2,-0.08 -0.21,-0.07 -0.22,-0.06 -0.21,-0.05 -0.22,-0.04 -0.23,-0.03 -0.23,-0.02 H 360 c -2.48,0 -4.5,2.01 -4.5,4.5 0,2.48 2.02,4.5 4.5,4.5 2.48,0 4.5,-2.02 4.5,-4.5 z" /><path
         style="stroke-width:0.5625"
         inkscape:connector-curvature="0"
         id="path4496"
         d="m 364.5,626.04 -0.01,-0.23 -0.01,-0.23 -0.03,-0.23 -0.04,-0.22 -0.05,-0.22 -0.06,-0.21 -0.07,-0.21 -0.08,-0.2 -0.09,-0.2 -0.1,-0.2 -0.11,-0.18 -0.12,-0.19 -0.12,-0.17 -0.14,-0.17 -0.14,-0.17 -0.15,-0.15 -0.15,-0.15 -0.17,-0.14 -0.17,-0.14 -0.17,-0.12 -0.19,-0.12 -0.19,-0.11 -0.19,-0.1 -0.2,-0.09 -0.2,-0.08 -0.21,-0.07 -0.22,-0.06 -0.21,-0.05 -0.22,-0.04 -0.23,-0.03 -0.23,-0.02 H 360 c -2.48,0 -4.5,2.01 -4.5,4.5 0,2.48 2.02,4.5 4.5,4.5 2.48,0 4.5,-2.02 4.5,-4.5 z" /><path
         style="fill:#000000;fill-rule:nonzero;stroke-width:0"
         inkscape:connector-curvature="0"
         id="path4498"
         d="m 427.5,650.79 -0.01,-0.23 -0.01,-0.23 -0.03,-0.23 -0.04,-0.22 -0.05,-0.22 -0.06,-0.21 -0.07,-0.21 -0.08,-0.2 -0.09,-0.2 -0.1,-0.2 -0.11,-0.18 -0.12,-0.19 -0.12,-0.17 -0.14,-0.17 -0.14,-0.17 -0.15,-0.15 -0.15,-0.15 -0.17,-0.14 -0.17,-0.14 -0.17,-0.12 -0.19,-0.12 -0.19,-0.11 -0.19,-0.1 -0.2,-0.09 -0.2,-0.08 -0.21,-0.07 -0.22,-0.06 -0.21,-0.05 -0.22,-0.04 -0.23,-0.03 -0.23,-0.02 H 423 c -2.48,0 -4.5,2.01 -4.5,4.5 0,2.48 2.02,4.5 4.5,4.5 2.48,0 4.5,-2.02 4.5,-4.5 z" /><path
         style="stroke-width:0.5625"
         inkscape:connector-curvature="0"
         id="path4500"
         d="m 427.5,650.79 -0.01,-0.23 -0.01,-0.23 -0.03,-0.23 -0.04,-0.22 -0.05,-0.22 -0.06,-0.21 -0.07,-0.21 -0.08,-0.2 -0.09,-0.2 -0.1,-0.2 -0.11,-0.18 -0.12,-0.19 -0.12,-0.17 -0.14,-0.17 -0.14,-0.17 -0.15,-0.15 -0.15,-0.15 -0.17,-0.14 -0.17,-0.14 -0.17,-0.12 -0.19,-0.12 -0.19,-0.11 -0.19,-0.1 -0.2,-0.09 -0.2,-0.08 -0.21,-0.07 -0.22,-0.06 -0.21,-0.05 -0.22,-0.04 -0.23,-0.03 -0.23,-0.02 H 423 c -2.48,0 -4.5,2.01 -4.5,4.5 0,2.48 2.02,4.5 4.5,4.5 2.48,0 4.5,-2.02 4.5,-4.5 z" /><path
         style="fill:#000000;fill-rule:nonzero;stroke-width:0"
         inkscape:connector-curvature="0"
         id="path4502"
         d="m 472.5,626.04 -0.01,-0.23 -0.01,-0.23 -0.03,-0.23 -0.04,-0.22 -0.05,-0.22 -0.06,-0.21 -0.07,-0.21 -0.08,-0.2 -0.09,-0.2 -0.1,-0.2 -0.11,-0.18 -0.12,-0.19 -0.12,-0.17 -0.14,-0.17 -0.14,-0.17 -0.15,-0.15 -0.15,-0.15 -0.17,-0.14 -0.17,-0.14 -0.17,-0.12 -0.19,-0.12 -0.19,-0.11 -0.19,-0.1 -0.2,-0.09 -0.2,-0.08 -0.21,-0.07 -0.22,-0.06 -0.21,-0.05 -0.22,-0.04 -0.23,-0.03 -0.23,-0.02 H 468 c -2.48,0 -4.5,2.01 -4.5,4.5 0,2.48 2.02,4.5 4.5,4.5 2.48,0 4.5,-2.02 4.5,-4.5 z" /><path
         style="stroke-width:0.5625"
         inkscape:connector-curvature="0"
         id="path4504"
         d="m 472.5,626.04 -0.01,-0.23 -0.01,-0.23 -0.03,-0.23 -0.04,-0.22 -0.05,-0.22 -0.06,-0.21 -0.07,-0.21 -0.08,-0.2 -0.09,-0.2 -0.1,-0.2 -0.11,-0.18 -0.12,-0.19 -0.12,-0.17 -0.14,-0.17 -0.14,-0.17 -0.15,-0.15 -0.15,-0.15 -0.17,-0.14 -0.17,-0.14 -0.17,-0.12 -0.19,-0.12 -0.19,-0.11 -0.19,-0.1 -0.2,-0.09 -0.2,-0.08 -0.21,-0.07 -0.22,-0.06 -0.21,-0.05 -0.22,-0.04 -0.23,-0.03 -0.23,-0.02 H 468 c -2.48,0 -4.5,2.01 -4.5,4.5 0,2.48 2.02,4.5 4.5,4.5 2.48,0 4.5,-2.02 4.5,-4.5 z" /><polyline
         style="stroke-width:1.6875"
         id="polyline4506"
         points="360,626.04 423,650.79 468,626.04 " /></g>  </g>
</svg>
