<?xml version="1.0" encoding="UTF-8" standalone="no"?>
<svg
   xmlns:dc="http://purl.org/dc/elements/1.1/"
   xmlns:cc="http://creativecommons.org/ns#"
   xmlns:rdf="http://www.w3.org/1999/02/22-rdf-syntax-ns#"
   xmlns:svg="http://www.w3.org/2000/svg"
   xmlns="http://www.w3.org/2000/svg"
   xmlns:sodipodi="http://sodipodi.sourceforge.net/DTD/sodipodi-0.dtd"
   xmlns:inkscape="http://www.inkscape.org/namespaces/inkscape"
   version="1.1"
   id="body"
   width="8in"
   height="8in"
   viewBox="0 0 1 1"
   preserveAspectRatio="none"
   inkscape:version="0.92.2 5c3e80d, 2017-08-06"
   sodipodi:docname="Euler07.svg">
  <metadata
     id="metadata9376">
    <rdf:RDF>
      <cc:Work
         rdf:about="">
        <dc:format>image/svg+xml</dc:format>
        <dc:type
           rdf:resource="http://purl.org/dc/dcmitype/StillImage" />
      </cc:Work>
    </rdf:RDF>
  </metadata>
  <defs
     id="defs9374" />
  <sodipodi:namedview
     pagecolor="#ffffff"
     bordercolor="#666666"
     borderopacity="1"
     objecttolerance="10"
     gridtolerance="10"
     guidetolerance="10"
     inkscape:pageopacity="0"
     inkscape:pageshadow="2"
     inkscape:window-width="1120"
     inkscape:window-height="863"
     id="namedview9372"
     showgrid="false"
     inkscape:zoom="0.32777778"
     inkscape:cx="-274.57627"
     inkscape:cy="360"
     inkscape:window-x="0"
     inkscape:window-y="0"
     inkscape:window-maximized="0"
     inkscape:current-layer="body" />
  <title
     id="title9302">SVG drawing</title>
  <desc
     id="desc9304">This was produced by version 4.4 of GNU libplot, a free library for exporting 2-D vector graphics.</desc>
  <g
     id="g8835"
     transform="matrix(0.5,0,0,0.5,0.25572537,0.23627668)">
    <g
       style="font-style:normal;font-variant:normal;font-weight:normal;font-stretch:normal;letter-spacing:normal;word-spacing:normal;text-anchor:start;fill:none;stroke:#000000;stroke-width:1;stroke-linecap:butt;stroke-linejoin:miter;stroke-miterlimit:10.43299961;stroke-dasharray:none;stroke-dashoffset:0;stroke-opacity:1"
       word-spacing="normal"
       letter-spacing="normal"
       font-size-adjust="none"
       font-stretch="normal"
       font-weight="normal"
       font-variant="normal"
       font-style="normal"
       stroke-miterlimit="10.433"
       xml:space="preserve"
       transform="matrix(0.0017361,0,0,-0.0017361,0.01536017,1.5730932)"
       id="content"><line
         style="stroke-width:1.6875"
         id="line9308"
         y2="630.53998"
         x2="317.25"
         y1="630.53998"
         x1="252" /><polygon
         style="fill:#ffffff;fill-rule:nonzero;stroke:#ffffff;stroke-width:0"
         id="polygon9310"
         points="317.25,627.73 317.25,633.35 324,630.54 " /><polygon
         style="fill:#000000;fill-rule:nonzero;stroke-width:0"
         id="polygon9312"
         points="317.25,627.73 317.25,633.35 324,630.54 " /><polygon
         style="stroke-width:0.5625"
         id="polygon9314"
         points="240.75,659.79 180,698.04 108,648.54 144,572.04 220.5,574.29 " /><line
         style="stroke-width:0.5625"
         id="line9316"
         y2="626.03998"
         x2="180"
         y1="698.03998"
         x1="180" /><line
         style="stroke-width:0.5625"
         id="line9318"
         y2="626.03998"
         x2="180"
         y1="648.53998"
         x1="108" /><line
         style="stroke-width:0.5625"
         id="line9320"
         y2="572.03998"
         x2="144"
         y1="626.03998"
         x1="180" /><line
         style="stroke-width:0.5625"
         id="line9322"
         y2="574.28998"
         x2="220.5"
         y1="626.03998"
         x1="180" /><line
         style="stroke-width:0.5625"
         id="line9324"
         y2="659.78998"
         x2="240.75"
         y1="626.03998"
         x1="180" /><path
         style="fill:#000000;fill-rule:nonzero;stroke-width:0"
         inkscape:connector-curvature="0"
         id="path9326"
         d="m 182.25,698.04 v -0.12 l -0.01,-0.11 -0.02,-0.11 -0.02,-0.11 -0.02,-0.11 -0.03,-0.11 -0.04,-0.1 -0.04,-0.11 -0.04,-0.1 -0.05,-0.09 -0.06,-0.1 -0.05,-0.09 -0.07,-0.09 -0.06,-0.08 -0.07,-0.08 -0.08,-0.08 -0.08,-0.08 -0.08,-0.07 -0.08,-0.06 -0.09,-0.07 -0.09,-0.06 -0.1,-0.05 -0.09,-0.05 -0.1,-0.04 -0.11,-0.04 -0.1,-0.04 -0.11,-0.03 -0.11,-0.03 -0.11,-0.02 -0.11,-0.01 -0.11,-0.01 H 180 c -1.24,0 -2.25,1.01 -2.25,2.25 0,1.24 1.01,2.25 2.25,2.25 1.24,0 2.25,-1.01 2.25,-2.25 z" /><path
         style="stroke-width:0.5625"
         inkscape:connector-curvature="0"
         id="path9328"
         d="m 182.25,698.04 v -0.12 l -0.01,-0.11 -0.02,-0.11 -0.02,-0.11 -0.02,-0.11 -0.03,-0.11 -0.04,-0.1 -0.04,-0.11 -0.04,-0.1 -0.05,-0.09 -0.06,-0.1 -0.05,-0.09 -0.07,-0.09 -0.06,-0.08 -0.07,-0.08 -0.08,-0.08 -0.08,-0.08 -0.08,-0.07 -0.08,-0.06 -0.09,-0.07 -0.09,-0.06 -0.1,-0.05 -0.09,-0.05 -0.1,-0.04 -0.11,-0.04 -0.1,-0.04 -0.11,-0.03 -0.11,-0.03 -0.11,-0.02 -0.11,-0.01 -0.11,-0.01 H 180 c -1.24,0 -2.25,1.01 -2.25,2.25 0,1.24 1.01,2.25 2.25,2.25 1.24,0 2.25,-1.01 2.25,-2.25 z" /><path
         style="fill:#000000;fill-rule:nonzero;stroke-width:0"
         inkscape:connector-curvature="0"
         id="path9330"
         d="m 110.25,648.54 v -0.12 l -0.01,-0.11 -0.02,-0.11 -0.02,-0.11 -0.02,-0.11 -0.03,-0.11 -0.04,-0.1 -0.04,-0.11 -0.04,-0.1 -0.05,-0.09 -0.06,-0.1 -0.05,-0.09 -0.07,-0.09 -0.06,-0.08 -0.07,-0.08 -0.08,-0.08 -0.08,-0.08 -0.08,-0.07 -0.08,-0.06 -0.09,-0.07 -0.09,-0.06 -0.1,-0.05 -0.09,-0.05 -0.1,-0.04 -0.11,-0.04 -0.1,-0.04 -0.11,-0.03 -0.11,-0.03 -0.11,-0.02 -0.11,-0.01 -0.11,-0.01 H 108 c -1.24,0 -2.25,1.01 -2.25,2.25 0,1.24 1.01,2.25 2.25,2.25 1.24,0 2.25,-1.01 2.25,-2.25 z" /><path
         style="stroke-width:0.5625"
         inkscape:connector-curvature="0"
         id="path9332"
         d="m 110.25,648.54 v -0.12 l -0.01,-0.11 -0.02,-0.11 -0.02,-0.11 -0.02,-0.11 -0.03,-0.11 -0.04,-0.1 -0.04,-0.11 -0.04,-0.1 -0.05,-0.09 -0.06,-0.1 -0.05,-0.09 -0.07,-0.09 -0.06,-0.08 -0.07,-0.08 -0.08,-0.08 -0.08,-0.08 -0.08,-0.07 -0.08,-0.06 -0.09,-0.07 -0.09,-0.06 -0.1,-0.05 -0.09,-0.05 -0.1,-0.04 -0.11,-0.04 -0.1,-0.04 -0.11,-0.03 -0.11,-0.03 -0.11,-0.02 -0.11,-0.01 -0.11,-0.01 H 108 c -1.24,0 -2.25,1.01 -2.25,2.25 0,1.24 1.01,2.25 2.25,2.25 1.24,0 2.25,-1.01 2.25,-2.25 z" /><path
         style="fill:#000000;fill-rule:nonzero;stroke-width:0"
         inkscape:connector-curvature="0"
         id="path9334"
         d="m 182.25,626.04 v -0.12 l -0.01,-0.11 -0.02,-0.11 -0.02,-0.11 -0.02,-0.11 -0.03,-0.11 -0.04,-0.1 -0.04,-0.11 -0.04,-0.1 -0.05,-0.09 -0.06,-0.1 -0.05,-0.09 -0.07,-0.09 -0.06,-0.08 -0.07,-0.08 -0.08,-0.08 -0.08,-0.08 -0.08,-0.07 -0.08,-0.06 -0.09,-0.07 -0.09,-0.06 -0.1,-0.05 -0.09,-0.05 -0.1,-0.04 -0.11,-0.04 -0.1,-0.04 -0.11,-0.03 -0.11,-0.03 -0.11,-0.02 -0.11,-0.01 -0.11,-0.01 H 180 c -1.24,0 -2.25,1.01 -2.25,2.25 0,1.24 1.01,2.25 2.25,2.25 1.24,0 2.25,-1.01 2.25,-2.25 z" /><path
         style="stroke-width:0.5625"
         inkscape:connector-curvature="0"
         id="path9336"
         d="m 182.25,626.04 v -0.12 l -0.01,-0.11 -0.02,-0.11 -0.02,-0.11 -0.02,-0.11 -0.03,-0.11 -0.04,-0.1 -0.04,-0.11 -0.04,-0.1 -0.05,-0.09 -0.06,-0.1 -0.05,-0.09 -0.07,-0.09 -0.06,-0.08 -0.07,-0.08 -0.08,-0.08 -0.08,-0.08 -0.08,-0.07 -0.08,-0.06 -0.09,-0.07 -0.09,-0.06 -0.1,-0.05 -0.09,-0.05 -0.1,-0.04 -0.11,-0.04 -0.1,-0.04 -0.11,-0.03 -0.11,-0.03 -0.11,-0.02 -0.11,-0.01 -0.11,-0.01 H 180 c -1.24,0 -2.25,1.01 -2.25,2.25 0,1.24 1.01,2.25 2.25,2.25 1.24,0 2.25,-1.01 2.25,-2.25 z" /><path
         style="fill:#000000;fill-rule:nonzero;stroke-width:0"
         inkscape:connector-curvature="0"
         id="path9338"
         d="m 146.25,572.04 v -0.12 l -0.01,-0.11 -0.02,-0.11 -0.02,-0.11 -0.02,-0.11 -0.03,-0.11 -0.04,-0.1 -0.04,-0.11 -0.04,-0.1 -0.05,-0.09 -0.06,-0.1 -0.05,-0.09 -0.07,-0.09 -0.06,-0.08 -0.07,-0.08 -0.08,-0.08 -0.08,-0.08 -0.08,-0.07 -0.08,-0.06 -0.09,-0.07 -0.09,-0.06 -0.1,-0.05 -0.09,-0.05 -0.1,-0.04 -0.11,-0.04 -0.1,-0.04 -0.11,-0.03 -0.11,-0.03 -0.11,-0.02 -0.11,-0.01 -0.11,-0.01 H 144 c -1.24,0 -2.25,1.01 -2.25,2.25 0,1.24 1.01,2.25 2.25,2.25 1.24,0 2.25,-1.01 2.25,-2.25 z" /><path
         style="stroke-width:0.5625"
         inkscape:connector-curvature="0"
         id="path9340"
         d="m 146.25,572.04 v -0.12 l -0.01,-0.11 -0.02,-0.11 -0.02,-0.11 -0.02,-0.11 -0.03,-0.11 -0.04,-0.1 -0.04,-0.11 -0.04,-0.1 -0.05,-0.09 -0.06,-0.1 -0.05,-0.09 -0.07,-0.09 -0.06,-0.08 -0.07,-0.08 -0.08,-0.08 -0.08,-0.08 -0.08,-0.07 -0.08,-0.06 -0.09,-0.07 -0.09,-0.06 -0.1,-0.05 -0.09,-0.05 -0.1,-0.04 -0.11,-0.04 -0.1,-0.04 -0.11,-0.03 -0.11,-0.03 -0.11,-0.02 -0.11,-0.01 -0.11,-0.01 H 144 c -1.24,0 -2.25,1.01 -2.25,2.25 0,1.24 1.01,2.25 2.25,2.25 1.24,0 2.25,-1.01 2.25,-2.25 z" /><path
         style="fill:#000000;fill-rule:nonzero;stroke-width:0"
         inkscape:connector-curvature="0"
         id="path9342"
         d="m 222.75,574.29 v -0.12 l -0.01,-0.11 -0.02,-0.11 -0.02,-0.11 -0.02,-0.11 -0.03,-0.11 -0.04,-0.1 -0.04,-0.11 -0.04,-0.1 -0.05,-0.09 -0.06,-0.1 -0.05,-0.09 -0.07,-0.09 -0.06,-0.08 -0.07,-0.08 -0.08,-0.08 -0.08,-0.08 -0.08,-0.07 -0.08,-0.06 -0.09,-0.07 -0.09,-0.06 -0.1,-0.05 -0.09,-0.05 -0.1,-0.04 -0.11,-0.04 -0.1,-0.04 -0.11,-0.03 -0.11,-0.03 -0.11,-0.02 -0.11,-0.01 -0.11,-0.01 h -0.12 c -1.24,0 -2.25,1.01 -2.25,2.25 0,1.24 1.01,2.25 2.25,2.25 1.24,0 2.25,-1.01 2.25,-2.25 z" /><path
         style="stroke-width:0.5625"
         inkscape:connector-curvature="0"
         id="path9344"
         d="m 222.75,574.29 v -0.12 l -0.01,-0.11 -0.02,-0.11 -0.02,-0.11 -0.02,-0.11 -0.03,-0.11 -0.04,-0.1 -0.04,-0.11 -0.04,-0.1 -0.05,-0.09 -0.06,-0.1 -0.05,-0.09 -0.07,-0.09 -0.06,-0.08 -0.07,-0.08 -0.08,-0.08 -0.08,-0.08 -0.08,-0.07 -0.08,-0.06 -0.09,-0.07 -0.09,-0.06 -0.1,-0.05 -0.09,-0.05 -0.1,-0.04 -0.11,-0.04 -0.1,-0.04 -0.11,-0.03 -0.11,-0.03 -0.11,-0.02 -0.11,-0.01 -0.11,-0.01 h -0.12 c -1.24,0 -2.25,1.01 -2.25,2.25 0,1.24 1.01,2.25 2.25,2.25 1.24,0 2.25,-1.01 2.25,-2.25 z" /><path
         style="fill:#000000;fill-rule:nonzero;stroke-width:0"
         inkscape:connector-curvature="0"
         id="path9346"
         d="m 243,659.79 v -0.12 l -0.01,-0.11 -0.02,-0.11 -0.02,-0.11 -0.02,-0.11 -0.03,-0.11 -0.04,-0.1 -0.04,-0.11 -0.04,-0.1 -0.05,-0.09 -0.06,-0.1 -0.05,-0.09 -0.07,-0.09 -0.06,-0.08 -0.07,-0.08 -0.08,-0.08 -0.08,-0.08 -0.08,-0.07 -0.08,-0.06 -0.09,-0.07 -0.09,-0.06 -0.1,-0.05 -0.09,-0.05 -0.1,-0.04 -0.11,-0.04 -0.1,-0.04 -0.11,-0.03 -0.11,-0.03 -0.11,-0.02 -0.11,-0.01 -0.11,-0.01 h -0.12 c -1.24,0 -2.25,1.01 -2.25,2.25 0,1.24 1.01,2.25 2.25,2.25 1.24,0 2.25,-1.01 2.25,-2.25 z" /><path
         style="stroke-width:0.5625"
         inkscape:connector-curvature="0"
         id="path9348"
         d="m 243,659.79 v -0.12 l -0.01,-0.11 -0.02,-0.11 -0.02,-0.11 -0.02,-0.11 -0.03,-0.11 -0.04,-0.1 -0.04,-0.11 -0.04,-0.1 -0.05,-0.09 -0.06,-0.1 -0.05,-0.09 -0.07,-0.09 -0.06,-0.08 -0.07,-0.08 -0.08,-0.08 -0.08,-0.08 -0.08,-0.07 -0.08,-0.06 -0.09,-0.07 -0.09,-0.06 -0.1,-0.05 -0.09,-0.05 -0.1,-0.04 -0.11,-0.04 -0.1,-0.04 -0.11,-0.03 -0.11,-0.03 -0.11,-0.02 -0.11,-0.01 -0.11,-0.01 h -0.12 c -1.24,0 -2.25,1.01 -2.25,2.25 0,1.24 1.01,2.25 2.25,2.25 1.24,0 2.25,-1.01 2.25,-2.25 z" /><polygon
         style="stroke-width:0.5625"
         id="polygon9350"
         points="463.5,657.54 402.75,695.79 330.75,646.29 366.75,569.79 443.25,572.04 " /><path
         style="fill:#000000;fill-rule:nonzero;stroke-width:0"
         inkscape:connector-curvature="0"
         id="path9352"
         d="m 405,695.79 v -0.12 l -0.01,-0.11 -0.02,-0.11 -0.02,-0.11 -0.02,-0.11 -0.03,-0.11 -0.04,-0.1 -0.04,-0.11 -0.04,-0.1 -0.05,-0.09 -0.06,-0.1 -0.05,-0.09 -0.07,-0.09 -0.06,-0.08 -0.07,-0.08 -0.08,-0.08 -0.08,-0.08 -0.08,-0.07 -0.08,-0.06 -0.09,-0.07 -0.09,-0.06 -0.1,-0.05 -0.09,-0.05 -0.1,-0.04 -0.11,-0.04 -0.1,-0.04 -0.11,-0.03 -0.11,-0.03 -0.11,-0.02 -0.11,-0.01 -0.11,-0.01 h -0.12 c -1.24,0 -2.25,1.01 -2.25,2.25 0,1.24 1.01,2.25 2.25,2.25 1.24,0 2.25,-1.01 2.25,-2.25 z" /><path
         style="stroke-width:0.5625"
         inkscape:connector-curvature="0"
         id="path9354"
         d="m 405,695.79 v -0.12 l -0.01,-0.11 -0.02,-0.11 -0.02,-0.11 -0.02,-0.11 -0.03,-0.11 -0.04,-0.1 -0.04,-0.11 -0.04,-0.1 -0.05,-0.09 -0.06,-0.1 -0.05,-0.09 -0.07,-0.09 -0.06,-0.08 -0.07,-0.08 -0.08,-0.08 -0.08,-0.08 -0.08,-0.07 -0.08,-0.06 -0.09,-0.07 -0.09,-0.06 -0.1,-0.05 -0.09,-0.05 -0.1,-0.04 -0.11,-0.04 -0.1,-0.04 -0.11,-0.03 -0.11,-0.03 -0.11,-0.02 -0.11,-0.01 -0.11,-0.01 h -0.12 c -1.24,0 -2.25,1.01 -2.25,2.25 0,1.24 1.01,2.25 2.25,2.25 1.24,0 2.25,-1.01 2.25,-2.25 z" /><path
         style="fill:#000000;fill-rule:nonzero;stroke-width:0"
         inkscape:connector-curvature="0"
         id="path9356"
         d="m 333,646.29 v -0.12 l -0.01,-0.11 -0.02,-0.11 -0.02,-0.11 -0.02,-0.11 -0.03,-0.11 -0.04,-0.1 -0.04,-0.11 -0.04,-0.1 -0.05,-0.09 -0.06,-0.1 -0.05,-0.09 -0.07,-0.09 -0.06,-0.08 -0.07,-0.08 -0.08,-0.08 -0.08,-0.08 -0.08,-0.07 -0.08,-0.06 -0.09,-0.07 -0.09,-0.06 -0.1,-0.05 -0.09,-0.05 -0.1,-0.04 -0.11,-0.04 -0.1,-0.04 -0.11,-0.03 -0.11,-0.03 -0.11,-0.02 -0.11,-0.01 -0.11,-0.01 h -0.12 c -1.24,0 -2.25,1.01 -2.25,2.25 0,1.24 1.01,2.25 2.25,2.25 1.24,0 2.25,-1.01 2.25,-2.25 z" /><path
         style="stroke-width:0.5625"
         inkscape:connector-curvature="0"
         id="path9358"
         d="m 333,646.29 v -0.12 l -0.01,-0.11 -0.02,-0.11 -0.02,-0.11 -0.02,-0.11 -0.03,-0.11 -0.04,-0.1 -0.04,-0.11 -0.04,-0.1 -0.05,-0.09 -0.06,-0.1 -0.05,-0.09 -0.07,-0.09 -0.06,-0.08 -0.07,-0.08 -0.08,-0.08 -0.08,-0.08 -0.08,-0.07 -0.08,-0.06 -0.09,-0.07 -0.09,-0.06 -0.1,-0.05 -0.09,-0.05 -0.1,-0.04 -0.11,-0.04 -0.1,-0.04 -0.11,-0.03 -0.11,-0.03 -0.11,-0.02 -0.11,-0.01 -0.11,-0.01 h -0.12 c -1.24,0 -2.25,1.01 -2.25,2.25 0,1.24 1.01,2.25 2.25,2.25 1.24,0 2.25,-1.01 2.25,-2.25 z" /><path
         style="fill:#000000;fill-rule:nonzero;stroke-width:0"
         inkscape:connector-curvature="0"
         id="path9360"
         d="m 369,569.79 v -0.12 l -0.01,-0.11 -0.02,-0.11 -0.02,-0.11 -0.02,-0.11 -0.03,-0.11 -0.04,-0.1 -0.04,-0.11 -0.04,-0.1 -0.05,-0.09 -0.06,-0.1 -0.05,-0.09 -0.07,-0.09 -0.06,-0.08 -0.07,-0.08 -0.08,-0.08 -0.08,-0.08 -0.08,-0.07 -0.08,-0.06 -0.09,-0.07 -0.09,-0.06 -0.1,-0.05 -0.09,-0.05 -0.1,-0.04 -0.11,-0.04 -0.1,-0.04 -0.11,-0.03 -0.11,-0.03 -0.11,-0.02 -0.11,-0.01 -0.11,-0.01 h -0.12 c -1.24,0 -2.25,1.01 -2.25,2.25 0,1.24 1.01,2.25 2.25,2.25 1.24,0 2.25,-1.01 2.25,-2.25 z" /><path
         style="stroke-width:0.5625"
         inkscape:connector-curvature="0"
         id="path9362"
         d="m 369,569.79 v -0.12 l -0.01,-0.11 -0.02,-0.11 -0.02,-0.11 -0.02,-0.11 -0.03,-0.11 -0.04,-0.1 -0.04,-0.11 -0.04,-0.1 -0.05,-0.09 -0.06,-0.1 -0.05,-0.09 -0.07,-0.09 -0.06,-0.08 -0.07,-0.08 -0.08,-0.08 -0.08,-0.08 -0.08,-0.07 -0.08,-0.06 -0.09,-0.07 -0.09,-0.06 -0.1,-0.05 -0.09,-0.05 -0.1,-0.04 -0.11,-0.04 -0.1,-0.04 -0.11,-0.03 -0.11,-0.03 -0.11,-0.02 -0.11,-0.01 -0.11,-0.01 h -0.12 c -1.24,0 -2.25,1.01 -2.25,2.25 0,1.24 1.01,2.25 2.25,2.25 1.24,0 2.25,-1.01 2.25,-2.25 z" /><path
         style="fill:#000000;fill-rule:nonzero;stroke-width:0"
         inkscape:connector-curvature="0"
         id="path9364"
         d="m 445.5,572.04 v -0.12 l -0.01,-0.11 -0.02,-0.11 -0.02,-0.11 -0.02,-0.11 -0.03,-0.11 -0.04,-0.1 -0.04,-0.11 -0.04,-0.1 -0.05,-0.09 -0.06,-0.1 -0.05,-0.09 -0.07,-0.09 -0.06,-0.08 -0.07,-0.08 -0.08,-0.08 -0.08,-0.08 -0.08,-0.07 -0.08,-0.06 -0.09,-0.07 -0.09,-0.06 -0.1,-0.05 -0.09,-0.05 -0.1,-0.04 -0.11,-0.04 -0.1,-0.04 -0.11,-0.03 -0.11,-0.03 -0.11,-0.02 -0.11,-0.01 -0.11,-0.01 h -0.12 c -1.24,0 -2.25,1.01 -2.25,2.25 0,1.24 1.01,2.25 2.25,2.25 1.24,0 2.25,-1.01 2.25,-2.25 z" /><path
         style="stroke-width:0.5625"
         inkscape:connector-curvature="0"
         id="path9366"
         d="m 445.5,572.04 v -0.12 l -0.01,-0.11 -0.02,-0.11 -0.02,-0.11 -0.02,-0.11 -0.03,-0.11 -0.04,-0.1 -0.04,-0.11 -0.04,-0.1 -0.05,-0.09 -0.06,-0.1 -0.05,-0.09 -0.07,-0.09 -0.06,-0.08 -0.07,-0.08 -0.08,-0.08 -0.08,-0.08 -0.08,-0.07 -0.08,-0.06 -0.09,-0.07 -0.09,-0.06 -0.1,-0.05 -0.09,-0.05 -0.1,-0.04 -0.11,-0.04 -0.1,-0.04 -0.11,-0.03 -0.11,-0.03 -0.11,-0.02 -0.11,-0.01 -0.11,-0.01 h -0.12 c -1.24,0 -2.25,1.01 -2.25,2.25 0,1.24 1.01,2.25 2.25,2.25 1.24,0 2.25,-1.01 2.25,-2.25 z" /><path
         style="fill:#000000;fill-rule:nonzero;stroke-width:0"
         inkscape:connector-curvature="0"
         id="path9368"
         d="m 465.75,657.54 v -0.12 l -0.01,-0.11 -0.02,-0.11 -0.02,-0.11 -0.02,-0.11 -0.03,-0.11 -0.04,-0.1 -0.04,-0.11 -0.04,-0.1 -0.05,-0.09 -0.06,-0.1 -0.05,-0.09 -0.07,-0.09 -0.06,-0.08 -0.07,-0.08 -0.08,-0.08 -0.08,-0.08 -0.08,-0.07 -0.08,-0.06 -0.09,-0.07 -0.09,-0.06 -0.1,-0.05 -0.09,-0.05 -0.1,-0.04 -0.11,-0.04 -0.1,-0.04 -0.11,-0.03 -0.11,-0.03 -0.11,-0.02 -0.11,-0.01 -0.11,-0.01 h -0.12 c -1.24,0 -2.25,1.01 -2.25,2.25 0,1.24 1.01,2.25 2.25,2.25 1.24,0 2.25,-1.01 2.25,-2.25 z" /><path
         style="stroke-width:0.5625"
         inkscape:connector-curvature="0"
         id="path9370"
         d="m 465.75,657.54 v -0.12 l -0.01,-0.11 -0.02,-0.11 -0.02,-0.11 -0.02,-0.11 -0.03,-0.11 -0.04,-0.1 -0.04,-0.11 -0.04,-0.1 -0.05,-0.09 -0.06,-0.1 -0.05,-0.09 -0.07,-0.09 -0.06,-0.08 -0.07,-0.08 -0.08,-0.08 -0.08,-0.08 -0.08,-0.07 -0.08,-0.06 -0.09,-0.07 -0.09,-0.06 -0.1,-0.05 -0.09,-0.05 -0.1,-0.04 -0.11,-0.04 -0.1,-0.04 -0.11,-0.03 -0.11,-0.03 -0.11,-0.02 -0.11,-0.01 -0.11,-0.01 h -0.12 c -1.24,0 -2.25,1.01 -2.25,2.25 0,1.24 1.01,2.25 2.25,2.25 1.24,0 2.25,-1.01 2.25,-2.25 z" /></g>  </g>
</svg>
