<?xml version="1.0" encoding="UTF-8" standalone="no"?>
<svg
   xmlns:dc="http://purl.org/dc/elements/1.1/"
   xmlns:cc="http://creativecommons.org/ns#"
   xmlns:rdf="http://www.w3.org/1999/02/22-rdf-syntax-ns#"
   xmlns:svg="http://www.w3.org/2000/svg"
   xmlns="http://www.w3.org/2000/svg"
   xmlns:sodipodi="http://sodipodi.sourceforge.net/DTD/sodipodi-0.dtd"
   xmlns:inkscape="http://www.inkscape.org/namespaces/inkscape"
   version="1.1"
   id="body"
   width="8in"
   height="8in"
   viewBox="0 0 1 1"
   preserveAspectRatio="none"
   inkscape:version="0.92.2 5c3e80d, 2017-08-06"
   sodipodi:docname="Euler08.svg">
  <metadata
     id="metadata10228">
    <rdf:RDF>
      <cc:Work
         rdf:about="">
        <dc:format>image/svg+xml</dc:format>
        <dc:type
           rdf:resource="http://purl.org/dc/dcmitype/StillImage" />
      </cc:Work>
    </rdf:RDF>
  </metadata>
  <defs
     id="defs10226" />
  <sodipodi:namedview
     pagecolor="#ffffff"
     bordercolor="#666666"
     borderopacity="1"
     objecttolerance="10"
     gridtolerance="10"
     guidetolerance="10"
     inkscape:pageopacity="0"
     inkscape:pageshadow="2"
     inkscape:window-width="1161"
     inkscape:window-height="728"
     id="namedview10224"
     showgrid="false"
     inkscape:zoom="0.92709556"
     inkscape:cx="135.64341"
     inkscape:cy="360"
     inkscape:window-x="0"
     inkscape:window-y="0"
     inkscape:window-maximized="0"
     inkscape:current-layer="body" />
  <title
     id="title10132">SVG drawing</title>
  <desc
     id="desc10134">This was produced by version 4.4 of GNU libplot, a free library for exporting 2-D vector graphics.</desc>
  <g
     id="content"
     transform="matrix(8.6805e-4,0,0,-8.6805e-4,0.26340546,0.98957047)"
     xml:space="preserve"
     stroke-miterlimit="10.433"
     font-style="normal"
     font-variant="normal"
     font-weight="normal"
     font-stretch="normal"
     font-size-adjust="none"
     letter-spacing="normal"
     word-spacing="normal"
     style="font-style:normal;font-variant:normal;font-weight:normal;font-stretch:normal;letter-spacing:normal;word-spacing:normal;text-anchor:start;fill:none;stroke:#000000;stroke-width:1;stroke-linecap:butt;stroke-linejoin:miter;stroke-miterlimit:10.43299961;stroke-dasharray:none;stroke-dashoffset:0;stroke-opacity:1"><line
       x1="252"
       y1="630.53998"
       x2="317.25"
       y2="630.53998"
       id="line10138"
       style="stroke-width:1.6875" /><polygon
       points="317.25,627.73 317.25,633.35 324,630.54 "
       id="polygon10140"
       style="fill:#ffffff;fill-rule:nonzero;stroke:#ffffff;stroke-width:0" /><polygon
       points="317.25,627.73 317.25,633.35 324,630.54 "
       id="polygon10142"
       style="fill:#000000;fill-rule:nonzero;stroke-width:0" /><polygon
       points="173.25,574.29 150.75,632.79 168.75,682.29 231.75,686.79 240.75,623.79 222.75,569.79 "
       id="polygon10144"
       style="stroke-width:0.5625" /><polyline
       points="168.75,682.29 198,648.54 231.75,686.79 "
       id="polyline10146"
       style="stroke-width:0.5625" /><polyline
       points="198,648.54 240.75,623.79 198,610.29 "
       id="polyline10148"
       style="stroke-width:0.5625" /><polyline
       points="173.25,574.29 198,610.29 222.75,569.79 "
       id="polyline10150"
       style="stroke-width:0.5625" /><path
       d="m 171,682.29 v -0.12 l -0.01,-0.11 -0.02,-0.11 -0.02,-0.11 -0.02,-0.11 -0.03,-0.11 -0.04,-0.1 -0.04,-0.11 -0.04,-0.1 -0.05,-0.09 -0.06,-0.1 -0.05,-0.09 -0.07,-0.09 -0.06,-0.08 -0.07,-0.08 -0.08,-0.08 -0.08,-0.08 -0.08,-0.07 -0.08,-0.06 -0.09,-0.07 -0.09,-0.06 -0.1,-0.05 -0.09,-0.05 -0.1,-0.04 -0.11,-0.04 -0.1,-0.04 -0.11,-0.03 -0.11,-0.03 -0.11,-0.02 -0.11,-0.01 -0.11,-0.01 h -0.12 c -1.24,0 -2.25,1.01 -2.25,2.25 0,1.24 1.01,2.25 2.25,2.25 1.24,0 2.25,-1.01 2.25,-2.25 z"
       id="path10152"
       inkscape:connector-curvature="0"
       style="fill:#000000;fill-rule:nonzero;stroke-width:0" /><path
       d="m 171,682.29 v -0.12 l -0.01,-0.11 -0.02,-0.11 -0.02,-0.11 -0.02,-0.11 -0.03,-0.11 -0.04,-0.1 -0.04,-0.11 -0.04,-0.1 -0.05,-0.09 -0.06,-0.1 -0.05,-0.09 -0.07,-0.09 -0.06,-0.08 -0.07,-0.08 -0.08,-0.08 -0.08,-0.08 -0.08,-0.07 -0.08,-0.06 -0.09,-0.07 -0.09,-0.06 -0.1,-0.05 -0.09,-0.05 -0.1,-0.04 -0.11,-0.04 -0.1,-0.04 -0.11,-0.03 -0.11,-0.03 -0.11,-0.02 -0.11,-0.01 -0.11,-0.01 h -0.12 c -1.24,0 -2.25,1.01 -2.25,2.25 0,1.24 1.01,2.25 2.25,2.25 1.24,0 2.25,-1.01 2.25,-2.25 z"
       id="path10154"
       inkscape:connector-curvature="0"
       style="stroke-width:0.5625" /><path
       d="m 234,686.79 v -0.12 l -0.01,-0.11 -0.02,-0.11 -0.02,-0.11 -0.02,-0.11 -0.03,-0.11 -0.04,-0.1 -0.04,-0.11 -0.04,-0.1 -0.05,-0.09 -0.06,-0.1 -0.05,-0.09 -0.07,-0.09 -0.06,-0.08 -0.07,-0.08 -0.08,-0.08 -0.08,-0.08 -0.08,-0.07 -0.08,-0.06 -0.09,-0.07 -0.09,-0.06 -0.1,-0.05 -0.09,-0.05 -0.1,-0.04 -0.11,-0.04 -0.1,-0.04 -0.11,-0.03 -0.11,-0.03 -0.11,-0.02 -0.11,-0.01 -0.11,-0.01 h -0.12 c -1.24,0 -2.25,1.01 -2.25,2.25 0,1.24 1.01,2.25 2.25,2.25 1.24,0 2.25,-1.01 2.25,-2.25 z"
       id="path10156"
       inkscape:connector-curvature="0"
       style="fill:#000000;fill-rule:nonzero;stroke-width:0" /><path
       d="m 234,686.79 v -0.12 l -0.01,-0.11 -0.02,-0.11 -0.02,-0.11 -0.02,-0.11 -0.03,-0.11 -0.04,-0.1 -0.04,-0.11 -0.04,-0.1 -0.05,-0.09 -0.06,-0.1 -0.05,-0.09 -0.07,-0.09 -0.06,-0.08 -0.07,-0.08 -0.08,-0.08 -0.08,-0.08 -0.08,-0.07 -0.08,-0.06 -0.09,-0.07 -0.09,-0.06 -0.1,-0.05 -0.09,-0.05 -0.1,-0.04 -0.11,-0.04 -0.1,-0.04 -0.11,-0.03 -0.11,-0.03 -0.11,-0.02 -0.11,-0.01 -0.11,-0.01 h -0.12 c -1.24,0 -2.25,1.01 -2.25,2.25 0,1.24 1.01,2.25 2.25,2.25 1.24,0 2.25,-1.01 2.25,-2.25 z"
       id="path10158"
       inkscape:connector-curvature="0"
       style="stroke-width:0.5625" /><path
       d="m 200.25,648.54 v -0.12 l -0.01,-0.11 -0.02,-0.11 -0.02,-0.11 -0.02,-0.11 -0.03,-0.11 -0.04,-0.1 -0.04,-0.11 -0.04,-0.1 -0.05,-0.09 -0.06,-0.1 -0.05,-0.09 -0.07,-0.09 -0.06,-0.08 -0.07,-0.08 -0.08,-0.08 -0.08,-0.08 -0.08,-0.07 -0.08,-0.06 -0.09,-0.07 -0.09,-0.06 -0.1,-0.05 -0.09,-0.05 -0.1,-0.04 -0.11,-0.04 -0.1,-0.04 -0.11,-0.03 -0.11,-0.03 -0.11,-0.02 -0.11,-0.01 -0.11,-0.01 H 198 c -1.24,0 -2.25,1.01 -2.25,2.25 0,1.24 1.01,2.25 2.25,2.25 1.24,0 2.25,-1.01 2.25,-2.25 z"
       id="path10160"
       inkscape:connector-curvature="0"
       style="fill:#000000;fill-rule:nonzero;stroke-width:0" /><path
       d="m 200.25,648.54 v -0.12 l -0.01,-0.11 -0.02,-0.11 -0.02,-0.11 -0.02,-0.11 -0.03,-0.11 -0.04,-0.1 -0.04,-0.11 -0.04,-0.1 -0.05,-0.09 -0.06,-0.1 -0.05,-0.09 -0.07,-0.09 -0.06,-0.08 -0.07,-0.08 -0.08,-0.08 -0.08,-0.08 -0.08,-0.07 -0.08,-0.06 -0.09,-0.07 -0.09,-0.06 -0.1,-0.05 -0.09,-0.05 -0.1,-0.04 -0.11,-0.04 -0.1,-0.04 -0.11,-0.03 -0.11,-0.03 -0.11,-0.02 -0.11,-0.01 -0.11,-0.01 H 198 c -1.24,0 -2.25,1.01 -2.25,2.25 0,1.24 1.01,2.25 2.25,2.25 1.24,0 2.25,-1.01 2.25,-2.25 z"
       id="path10162"
       inkscape:connector-curvature="0"
       style="stroke-width:0.5625" /><path
       d="m 153,632.79 v -0.12 l -0.01,-0.11 -0.02,-0.11 -0.02,-0.11 -0.02,-0.11 -0.03,-0.11 -0.04,-0.1 -0.04,-0.11 -0.04,-0.1 -0.05,-0.09 -0.06,-0.1 -0.05,-0.09 -0.07,-0.09 -0.06,-0.08 -0.07,-0.08 -0.08,-0.08 -0.08,-0.08 -0.08,-0.07 -0.08,-0.06 -0.09,-0.07 -0.09,-0.06 -0.1,-0.05 -0.09,-0.05 -0.1,-0.04 -0.11,-0.04 -0.1,-0.04 -0.11,-0.03 -0.11,-0.03 -0.11,-0.02 -0.11,-0.01 -0.11,-0.01 h -0.12 c -1.24,0 -2.25,1.01 -2.25,2.25 0,1.24 1.01,2.25 2.25,2.25 1.24,0 2.25,-1.01 2.25,-2.25 z"
       id="path10164"
       inkscape:connector-curvature="0"
       style="fill:#000000;fill-rule:nonzero;stroke-width:0" /><path
       d="m 153,632.79 v -0.12 l -0.01,-0.11 -0.02,-0.11 -0.02,-0.11 -0.02,-0.11 -0.03,-0.11 -0.04,-0.1 -0.04,-0.11 -0.04,-0.1 -0.05,-0.09 -0.06,-0.1 -0.05,-0.09 -0.07,-0.09 -0.06,-0.08 -0.07,-0.08 -0.08,-0.08 -0.08,-0.08 -0.08,-0.07 -0.08,-0.06 -0.09,-0.07 -0.09,-0.06 -0.1,-0.05 -0.09,-0.05 -0.1,-0.04 -0.11,-0.04 -0.1,-0.04 -0.11,-0.03 -0.11,-0.03 -0.11,-0.02 -0.11,-0.01 -0.11,-0.01 h -0.12 c -1.24,0 -2.25,1.01 -2.25,2.25 0,1.24 1.01,2.25 2.25,2.25 1.24,0 2.25,-1.01 2.25,-2.25 z"
       id="path10166"
       inkscape:connector-curvature="0"
       style="stroke-width:0.5625" /><path
       d="m 200.25,610.29 v -0.12 l -0.01,-0.11 -0.02,-0.11 -0.02,-0.11 -0.02,-0.11 -0.03,-0.11 -0.04,-0.1 -0.04,-0.11 -0.04,-0.1 -0.05,-0.09 -0.06,-0.1 -0.05,-0.09 -0.07,-0.09 -0.06,-0.08 -0.07,-0.08 -0.08,-0.08 -0.08,-0.08 -0.08,-0.07 -0.08,-0.06 -0.09,-0.07 -0.09,-0.06 -0.1,-0.05 -0.09,-0.05 -0.1,-0.04 -0.11,-0.04 -0.1,-0.04 -0.11,-0.03 -0.11,-0.03 -0.11,-0.02 -0.11,-0.01 -0.11,-0.01 H 198 c -1.24,0 -2.25,1.01 -2.25,2.25 0,1.24 1.01,2.25 2.25,2.25 1.24,0 2.25,-1.01 2.25,-2.25 z"
       id="path10168"
       inkscape:connector-curvature="0"
       style="fill:#000000;fill-rule:nonzero;stroke-width:0" /><path
       d="m 200.25,610.29 v -0.12 l -0.01,-0.11 -0.02,-0.11 -0.02,-0.11 -0.02,-0.11 -0.03,-0.11 -0.04,-0.1 -0.04,-0.11 -0.04,-0.1 -0.05,-0.09 -0.06,-0.1 -0.05,-0.09 -0.07,-0.09 -0.06,-0.08 -0.07,-0.08 -0.08,-0.08 -0.08,-0.08 -0.08,-0.07 -0.08,-0.06 -0.09,-0.07 -0.09,-0.06 -0.1,-0.05 -0.09,-0.05 -0.1,-0.04 -0.11,-0.04 -0.1,-0.04 -0.11,-0.03 -0.11,-0.03 -0.11,-0.02 -0.11,-0.01 -0.11,-0.01 H 198 c -1.24,0 -2.25,1.01 -2.25,2.25 0,1.24 1.01,2.25 2.25,2.25 1.24,0 2.25,-1.01 2.25,-2.25 z"
       id="path10170"
       inkscape:connector-curvature="0"
       style="stroke-width:0.5625" /><path
       d="m 243,623.79 v -0.12 l -0.01,-0.11 -0.02,-0.11 -0.02,-0.11 -0.02,-0.11 -0.03,-0.11 -0.04,-0.1 -0.04,-0.11 -0.04,-0.1 -0.05,-0.09 -0.06,-0.1 -0.05,-0.09 -0.07,-0.09 -0.06,-0.08 -0.07,-0.08 -0.08,-0.08 -0.08,-0.08 -0.08,-0.07 -0.08,-0.06 -0.09,-0.07 -0.09,-0.06 -0.1,-0.05 -0.09,-0.05 -0.1,-0.04 -0.11,-0.04 -0.1,-0.04 -0.11,-0.03 -0.11,-0.03 -0.11,-0.02 -0.11,-0.01 -0.11,-0.01 h -0.12 c -1.24,0 -2.25,1.01 -2.25,2.25 0,1.24 1.01,2.25 2.25,2.25 1.24,0 2.25,-1.01 2.25,-2.25 z"
       id="path10172"
       inkscape:connector-curvature="0"
       style="fill:#000000;fill-rule:nonzero;stroke-width:0" /><path
       d="m 243,623.79 v -0.12 l -0.01,-0.11 -0.02,-0.11 -0.02,-0.11 -0.02,-0.11 -0.03,-0.11 -0.04,-0.1 -0.04,-0.11 -0.04,-0.1 -0.05,-0.09 -0.06,-0.1 -0.05,-0.09 -0.07,-0.09 -0.06,-0.08 -0.07,-0.08 -0.08,-0.08 -0.08,-0.08 -0.08,-0.07 -0.08,-0.06 -0.09,-0.07 -0.09,-0.06 -0.1,-0.05 -0.09,-0.05 -0.1,-0.04 -0.11,-0.04 -0.1,-0.04 -0.11,-0.03 -0.11,-0.03 -0.11,-0.02 -0.11,-0.01 -0.11,-0.01 h -0.12 c -1.24,0 -2.25,1.01 -2.25,2.25 0,1.24 1.01,2.25 2.25,2.25 1.24,0 2.25,-1.01 2.25,-2.25 z"
       id="path10174"
       inkscape:connector-curvature="0"
       style="stroke-width:0.5625" /><path
       d="m 175.5,574.29 v -0.12 l -0.01,-0.11 -0.02,-0.11 -0.02,-0.11 -0.02,-0.11 -0.03,-0.11 -0.04,-0.1 -0.04,-0.11 -0.04,-0.1 -0.05,-0.09 -0.06,-0.1 -0.05,-0.09 -0.07,-0.09 -0.06,-0.08 -0.07,-0.08 -0.08,-0.08 -0.08,-0.08 -0.08,-0.07 -0.08,-0.06 -0.09,-0.07 -0.09,-0.06 -0.1,-0.05 -0.09,-0.05 -0.1,-0.04 -0.11,-0.04 -0.1,-0.04 -0.11,-0.03 -0.11,-0.03 -0.11,-0.02 -0.11,-0.01 -0.11,-0.01 h -0.12 c -1.24,0 -2.25,1.01 -2.25,2.25 0,1.24 1.01,2.25 2.25,2.25 1.24,0 2.25,-1.01 2.25,-2.25 z"
       id="path10176"
       inkscape:connector-curvature="0"
       style="fill:#000000;fill-rule:nonzero;stroke-width:0" /><path
       d="m 175.5,574.29 v -0.12 l -0.01,-0.11 -0.02,-0.11 -0.02,-0.11 -0.02,-0.11 -0.03,-0.11 -0.04,-0.1 -0.04,-0.11 -0.04,-0.1 -0.05,-0.09 -0.06,-0.1 -0.05,-0.09 -0.07,-0.09 -0.06,-0.08 -0.07,-0.08 -0.08,-0.08 -0.08,-0.08 -0.08,-0.07 -0.08,-0.06 -0.09,-0.07 -0.09,-0.06 -0.1,-0.05 -0.09,-0.05 -0.1,-0.04 -0.11,-0.04 -0.1,-0.04 -0.11,-0.03 -0.11,-0.03 -0.11,-0.02 -0.11,-0.01 -0.11,-0.01 h -0.12 c -1.24,0 -2.25,1.01 -2.25,2.25 0,1.24 1.01,2.25 2.25,2.25 1.24,0 2.25,-1.01 2.25,-2.25 z"
       id="path10178"
       inkscape:connector-curvature="0"
       style="stroke-width:0.5625" /><path
       d="m 225,569.79 v -0.12 l -0.01,-0.11 -0.02,-0.11 -0.02,-0.11 -0.02,-0.11 -0.03,-0.11 -0.04,-0.1 -0.04,-0.11 -0.04,-0.1 -0.05,-0.09 -0.06,-0.1 -0.05,-0.09 -0.07,-0.09 -0.06,-0.08 -0.07,-0.08 -0.08,-0.08 -0.08,-0.08 -0.08,-0.07 -0.08,-0.06 -0.09,-0.07 -0.09,-0.06 -0.1,-0.05 -0.09,-0.05 -0.1,-0.04 -0.11,-0.04 -0.1,-0.04 -0.11,-0.03 -0.11,-0.03 -0.11,-0.02 -0.11,-0.01 -0.11,-0.01 h -0.12 c -1.24,0 -2.25,1.01 -2.25,2.25 0,1.24 1.01,2.25 2.25,2.25 1.24,0 2.25,-1.01 2.25,-2.25 z"
       id="path10180"
       inkscape:connector-curvature="0"
       style="fill:#000000;fill-rule:nonzero;stroke-width:0" /><path
       d="m 225,569.79 v -0.12 l -0.01,-0.11 -0.02,-0.11 -0.02,-0.11 -0.02,-0.11 -0.03,-0.11 -0.04,-0.1 -0.04,-0.11 -0.04,-0.1 -0.05,-0.09 -0.06,-0.1 -0.05,-0.09 -0.07,-0.09 -0.06,-0.08 -0.07,-0.08 -0.08,-0.08 -0.08,-0.08 -0.08,-0.07 -0.08,-0.06 -0.09,-0.07 -0.09,-0.06 -0.1,-0.05 -0.09,-0.05 -0.1,-0.04 -0.11,-0.04 -0.1,-0.04 -0.11,-0.03 -0.11,-0.03 -0.11,-0.02 -0.11,-0.01 -0.11,-0.01 h -0.12 c -1.24,0 -2.25,1.01 -2.25,2.25 0,1.24 1.01,2.25 2.25,2.25 1.24,0 2.25,-1.01 2.25,-2.25 z"
       id="path10182"
       inkscape:connector-curvature="0"
       style="stroke-width:0.5625" /><polygon
       points="353.25,574.29 330.75,632.79 348.75,682.29 411.75,686.79 420.75,623.79 402.75,569.79 "
       id="polygon10184"
       style="stroke-width:0.5625" /><polyline
       points="348.75,682.29 378,630.54 411.75,686.79 "
       id="polyline10186"
       style="stroke-width:0.5625" /><polyline
       points="353.25,574.29 378,630.54 402.75,569.79 "
       id="polyline10188"
       style="stroke-width:0.5625" /><path
       d="m 351,682.29 v -0.12 l -0.01,-0.11 -0.02,-0.11 -0.02,-0.11 -0.02,-0.11 -0.03,-0.11 -0.04,-0.1 -0.04,-0.11 -0.04,-0.1 -0.05,-0.09 -0.06,-0.1 -0.05,-0.09 -0.07,-0.09 -0.06,-0.08 -0.07,-0.08 -0.08,-0.08 -0.08,-0.08 -0.08,-0.07 -0.08,-0.06 -0.09,-0.07 -0.09,-0.06 -0.1,-0.05 -0.09,-0.05 -0.1,-0.04 -0.11,-0.04 -0.1,-0.04 -0.11,-0.03 -0.11,-0.03 -0.11,-0.02 -0.11,-0.01 -0.11,-0.01 h -0.12 c -1.24,0 -2.25,1.01 -2.25,2.25 0,1.24 1.01,2.25 2.25,2.25 1.24,0 2.25,-1.01 2.25,-2.25 z"
       id="path10190"
       inkscape:connector-curvature="0"
       style="fill:#000000;fill-rule:nonzero;stroke-width:0" /><path
       d="m 351,682.29 v -0.12 l -0.01,-0.11 -0.02,-0.11 -0.02,-0.11 -0.02,-0.11 -0.03,-0.11 -0.04,-0.1 -0.04,-0.11 -0.04,-0.1 -0.05,-0.09 -0.06,-0.1 -0.05,-0.09 -0.07,-0.09 -0.06,-0.08 -0.07,-0.08 -0.08,-0.08 -0.08,-0.08 -0.08,-0.07 -0.08,-0.06 -0.09,-0.07 -0.09,-0.06 -0.1,-0.05 -0.09,-0.05 -0.1,-0.04 -0.11,-0.04 -0.1,-0.04 -0.11,-0.03 -0.11,-0.03 -0.11,-0.02 -0.11,-0.01 -0.11,-0.01 h -0.12 c -1.24,0 -2.25,1.01 -2.25,2.25 0,1.24 1.01,2.25 2.25,2.25 1.24,0 2.25,-1.01 2.25,-2.25 z"
       id="path10192"
       inkscape:connector-curvature="0"
       style="stroke-width:0.5625" /><path
       d="m 414,686.79 v -0.12 l -0.01,-0.11 -0.02,-0.11 -0.02,-0.11 -0.02,-0.11 -0.03,-0.11 -0.04,-0.1 -0.04,-0.11 -0.04,-0.1 -0.05,-0.09 -0.06,-0.1 -0.05,-0.09 -0.07,-0.09 -0.06,-0.08 -0.07,-0.08 -0.08,-0.08 -0.08,-0.08 -0.08,-0.07 -0.08,-0.06 -0.09,-0.07 -0.09,-0.06 -0.1,-0.05 -0.09,-0.05 -0.1,-0.04 -0.11,-0.04 -0.1,-0.04 -0.11,-0.03 -0.11,-0.03 -0.11,-0.02 -0.11,-0.01 -0.11,-0.01 h -0.12 c -1.24,0 -2.25,1.01 -2.25,2.25 0,1.24 1.01,2.25 2.25,2.25 1.24,0 2.25,-1.01 2.25,-2.25 z"
       id="path10194"
       inkscape:connector-curvature="0"
       style="fill:#000000;fill-rule:nonzero;stroke-width:0" /><path
       d="m 414,686.79 v -0.12 l -0.01,-0.11 -0.02,-0.11 -0.02,-0.11 -0.02,-0.11 -0.03,-0.11 -0.04,-0.1 -0.04,-0.11 -0.04,-0.1 -0.05,-0.09 -0.06,-0.1 -0.05,-0.09 -0.07,-0.09 -0.06,-0.08 -0.07,-0.08 -0.08,-0.08 -0.08,-0.08 -0.08,-0.07 -0.08,-0.06 -0.09,-0.07 -0.09,-0.06 -0.1,-0.05 -0.09,-0.05 -0.1,-0.04 -0.11,-0.04 -0.1,-0.04 -0.11,-0.03 -0.11,-0.03 -0.11,-0.02 -0.11,-0.01 -0.11,-0.01 h -0.12 c -1.24,0 -2.25,1.01 -2.25,2.25 0,1.24 1.01,2.25 2.25,2.25 1.24,0 2.25,-1.01 2.25,-2.25 z"
       id="path10196"
       inkscape:connector-curvature="0"
       style="stroke-width:0.5625" /><path
       d="m 333,632.79 v -0.12 l -0.01,-0.11 -0.02,-0.11 -0.02,-0.11 -0.02,-0.11 -0.03,-0.11 -0.04,-0.1 -0.04,-0.11 -0.04,-0.1 -0.05,-0.09 -0.06,-0.1 -0.05,-0.09 -0.07,-0.09 -0.06,-0.08 -0.07,-0.08 -0.08,-0.08 -0.08,-0.08 -0.08,-0.07 -0.08,-0.06 -0.09,-0.07 -0.09,-0.06 -0.1,-0.05 -0.09,-0.05 -0.1,-0.04 -0.11,-0.04 -0.1,-0.04 -0.11,-0.03 -0.11,-0.03 -0.11,-0.02 -0.11,-0.01 -0.11,-0.01 h -0.12 c -1.24,0 -2.25,1.01 -2.25,2.25 0,1.24 1.01,2.25 2.25,2.25 1.24,0 2.25,-1.01 2.25,-2.25 z"
       id="path10198"
       inkscape:connector-curvature="0"
       style="fill:#000000;fill-rule:nonzero;stroke-width:0" /><path
       d="m 333,632.79 v -0.12 l -0.01,-0.11 -0.02,-0.11 -0.02,-0.11 -0.02,-0.11 -0.03,-0.11 -0.04,-0.1 -0.04,-0.11 -0.04,-0.1 -0.05,-0.09 -0.06,-0.1 -0.05,-0.09 -0.07,-0.09 -0.06,-0.08 -0.07,-0.08 -0.08,-0.08 -0.08,-0.08 -0.08,-0.07 -0.08,-0.06 -0.09,-0.07 -0.09,-0.06 -0.1,-0.05 -0.09,-0.05 -0.1,-0.04 -0.11,-0.04 -0.1,-0.04 -0.11,-0.03 -0.11,-0.03 -0.11,-0.02 -0.11,-0.01 -0.11,-0.01 h -0.12 c -1.24,0 -2.25,1.01 -2.25,2.25 0,1.24 1.01,2.25 2.25,2.25 1.24,0 2.25,-1.01 2.25,-2.25 z"
       id="path10200"
       inkscape:connector-curvature="0"
       style="stroke-width:0.5625" /><path
       d="m 380.25,630.54 v -0.12 l -0.01,-0.11 -0.02,-0.11 -0.02,-0.11 -0.02,-0.11 -0.03,-0.11 -0.04,-0.1 -0.04,-0.11 -0.04,-0.1 -0.05,-0.09 -0.06,-0.1 -0.05,-0.09 -0.07,-0.09 -0.06,-0.08 -0.07,-0.08 -0.08,-0.08 -0.08,-0.08 -0.08,-0.07 -0.08,-0.06 -0.09,-0.07 -0.09,-0.06 -0.1,-0.05 -0.09,-0.05 -0.1,-0.04 -0.11,-0.04 -0.1,-0.04 -0.11,-0.03 -0.11,-0.03 -0.11,-0.02 -0.11,-0.01 -0.11,-0.01 H 378 c -1.24,0 -2.25,1.01 -2.25,2.25 0,1.24 1.01,2.25 2.25,2.25 1.24,0 2.25,-1.01 2.25,-2.25 z"
       id="path10202"
       inkscape:connector-curvature="0"
       style="fill:#000000;fill-rule:nonzero;stroke-width:0" /><path
       d="m 380.25,630.54 v -0.12 l -0.01,-0.11 -0.02,-0.11 -0.02,-0.11 -0.02,-0.11 -0.03,-0.11 -0.04,-0.1 -0.04,-0.11 -0.04,-0.1 -0.05,-0.09 -0.06,-0.1 -0.05,-0.09 -0.07,-0.09 -0.06,-0.08 -0.07,-0.08 -0.08,-0.08 -0.08,-0.08 -0.08,-0.07 -0.08,-0.06 -0.09,-0.07 -0.09,-0.06 -0.1,-0.05 -0.09,-0.05 -0.1,-0.04 -0.11,-0.04 -0.1,-0.04 -0.11,-0.03 -0.11,-0.03 -0.11,-0.02 -0.11,-0.01 -0.11,-0.01 H 378 c -1.24,0 -2.25,1.01 -2.25,2.25 0,1.24 1.01,2.25 2.25,2.25 1.24,0 2.25,-1.01 2.25,-2.25 z"
       id="path10204"
       inkscape:connector-curvature="0"
       style="stroke-width:0.5625" /><path
       d="m 423,623.79 v -0.12 l -0.01,-0.11 -0.02,-0.11 -0.02,-0.11 -0.02,-0.11 -0.03,-0.11 -0.04,-0.1 -0.04,-0.11 -0.04,-0.1 -0.05,-0.09 -0.06,-0.1 -0.05,-0.09 -0.07,-0.09 -0.06,-0.08 -0.07,-0.08 -0.08,-0.08 -0.08,-0.08 -0.08,-0.07 -0.08,-0.06 -0.09,-0.07 -0.09,-0.06 -0.1,-0.05 -0.09,-0.05 -0.1,-0.04 -0.11,-0.04 -0.1,-0.04 -0.11,-0.03 -0.11,-0.03 -0.11,-0.02 -0.11,-0.01 -0.11,-0.01 h -0.12 c -1.24,0 -2.25,1.01 -2.25,2.25 0,1.24 1.01,2.25 2.25,2.25 1.24,0 2.25,-1.01 2.25,-2.25 z"
       id="path10206"
       inkscape:connector-curvature="0"
       style="fill:#000000;fill-rule:nonzero;stroke-width:0" /><path
       d="m 423,623.79 v -0.12 l -0.01,-0.11 -0.02,-0.11 -0.02,-0.11 -0.02,-0.11 -0.03,-0.11 -0.04,-0.1 -0.04,-0.11 -0.04,-0.1 -0.05,-0.09 -0.06,-0.1 -0.05,-0.09 -0.07,-0.09 -0.06,-0.08 -0.07,-0.08 -0.08,-0.08 -0.08,-0.08 -0.08,-0.07 -0.08,-0.06 -0.09,-0.07 -0.09,-0.06 -0.1,-0.05 -0.09,-0.05 -0.1,-0.04 -0.11,-0.04 -0.1,-0.04 -0.11,-0.03 -0.11,-0.03 -0.11,-0.02 -0.11,-0.01 -0.11,-0.01 h -0.12 c -1.24,0 -2.25,1.01 -2.25,2.25 0,1.24 1.01,2.25 2.25,2.25 1.24,0 2.25,-1.01 2.25,-2.25 z"
       id="path10208"
       inkscape:connector-curvature="0"
       style="stroke-width:0.5625" /><path
       d="m 355.5,574.29 v -0.12 l -0.01,-0.11 -0.02,-0.11 -0.02,-0.11 -0.02,-0.11 -0.03,-0.11 -0.04,-0.1 -0.04,-0.11 -0.04,-0.1 -0.05,-0.09 -0.06,-0.1 -0.05,-0.09 -0.07,-0.09 -0.06,-0.08 -0.07,-0.08 -0.08,-0.08 -0.08,-0.08 -0.08,-0.07 -0.08,-0.06 -0.09,-0.07 -0.09,-0.06 -0.1,-0.05 -0.09,-0.05 -0.1,-0.04 -0.11,-0.04 -0.1,-0.04 -0.11,-0.03 -0.11,-0.03 -0.11,-0.02 -0.11,-0.01 -0.11,-0.01 h -0.12 c -1.24,0 -2.25,1.01 -2.25,2.25 0,1.24 1.01,2.25 2.25,2.25 1.24,0 2.25,-1.01 2.25,-2.25 z"
       id="path10210"
       inkscape:connector-curvature="0"
       style="fill:#000000;fill-rule:nonzero;stroke-width:0" /><path
       d="m 355.5,574.29 v -0.12 l -0.01,-0.11 -0.02,-0.11 -0.02,-0.11 -0.02,-0.11 -0.03,-0.11 -0.04,-0.1 -0.04,-0.11 -0.04,-0.1 -0.05,-0.09 -0.06,-0.1 -0.05,-0.09 -0.07,-0.09 -0.06,-0.08 -0.07,-0.08 -0.08,-0.08 -0.08,-0.08 -0.08,-0.07 -0.08,-0.06 -0.09,-0.07 -0.09,-0.06 -0.1,-0.05 -0.09,-0.05 -0.1,-0.04 -0.11,-0.04 -0.1,-0.04 -0.11,-0.03 -0.11,-0.03 -0.11,-0.02 -0.11,-0.01 -0.11,-0.01 h -0.12 c -1.24,0 -2.25,1.01 -2.25,2.25 0,1.24 1.01,2.25 2.25,2.25 1.24,0 2.25,-1.01 2.25,-2.25 z"
       id="path10212"
       inkscape:connector-curvature="0"
       style="stroke-width:0.5625" /><path
       d="m 405,569.79 v -0.12 l -0.01,-0.11 -0.02,-0.11 -0.02,-0.11 -0.02,-0.11 -0.03,-0.11 -0.04,-0.1 -0.04,-0.11 -0.04,-0.1 -0.05,-0.09 -0.06,-0.1 -0.05,-0.09 -0.07,-0.09 -0.06,-0.08 -0.07,-0.08 -0.08,-0.08 -0.08,-0.08 -0.08,-0.07 -0.08,-0.06 -0.09,-0.07 -0.09,-0.06 -0.1,-0.05 -0.09,-0.05 -0.1,-0.04 -0.11,-0.04 -0.1,-0.04 -0.11,-0.03 -0.11,-0.03 -0.11,-0.02 -0.11,-0.01 -0.11,-0.01 h -0.12 c -1.24,0 -2.25,1.01 -2.25,2.25 0,1.24 1.01,2.25 2.25,2.25 1.24,0 2.25,-1.01 2.25,-2.25 z"
       id="path10214"
       inkscape:connector-curvature="0"
       style="fill:#000000;fill-rule:nonzero;stroke-width:0" /><path
       d="m 405,569.79 v -0.12 l -0.01,-0.11 -0.02,-0.11 -0.02,-0.11 -0.02,-0.11 -0.03,-0.11 -0.04,-0.1 -0.04,-0.11 -0.04,-0.1 -0.05,-0.09 -0.06,-0.1 -0.05,-0.09 -0.07,-0.09 -0.06,-0.08 -0.07,-0.08 -0.08,-0.08 -0.08,-0.08 -0.08,-0.07 -0.08,-0.06 -0.09,-0.07 -0.09,-0.06 -0.1,-0.05 -0.09,-0.05 -0.1,-0.04 -0.11,-0.04 -0.1,-0.04 -0.11,-0.03 -0.11,-0.03 -0.11,-0.02 -0.11,-0.01 -0.11,-0.01 h -0.12 c -1.24,0 -2.25,1.01 -2.25,2.25 0,1.24 1.01,2.25 2.25,2.25 1.24,0 2.25,-1.01 2.25,-2.25 z"
       id="path10216"
       inkscape:connector-curvature="0"
       style="stroke-width:0.5625" /><polyline
       points="330.75,632.79 378,630.54 420.75,623.79 "
       id="polyline10218"
       style="stroke-width:0.5625" /><polyline
       points="198,648.54 150.75,632.79 198,610.29 "
       id="polyline10220"
       style="stroke-width:0.5625" /><line
       x1="198"
       y1="648.53998"
       x2="198"
       y2="610.28998"
       id="line10222"
       style="stroke-width:1.6875" /></g></svg>
