<?xml version="1.0" encoding="UTF-8" standalone="no"?>
<svg
   xmlns:dc="http://purl.org/dc/elements/1.1/"
   xmlns:cc="http://creativecommons.org/ns#"
   xmlns:rdf="http://www.w3.org/1999/02/22-rdf-syntax-ns#"
   xmlns:svg="http://www.w3.org/2000/svg"
   xmlns="http://www.w3.org/2000/svg"
   xmlns:sodipodi="http://sodipodi.sourceforge.net/DTD/sodipodi-0.dtd"
   xmlns:inkscape="http://www.inkscape.org/namespaces/inkscape"
   version="1.1"
   id="body"
   width="8in"
   height="8in"
   viewBox="0 0 1 1"
   preserveAspectRatio="none"
   inkscape:version="0.92.2 5c3e80d, 2017-08-06"
   sodipodi:docname="Euler03.svg">
  <metadata
     id="metadata5756">
    <rdf:RDF>
      <cc:Work
         rdf:about="">
        <dc:format>image/svg+xml</dc:format>
        <dc:type
           rdf:resource="http://purl.org/dc/dcmitype/StillImage" />
      </cc:Work>
    </rdf:RDF>
  </metadata>
  <defs
     id="defs5754" />
  <sodipodi:namedview
     pagecolor="#ffffff"
     bordercolor="#666666"
     borderopacity="1"
     objecttolerance="10"
     gridtolerance="10"
     guidetolerance="10"
     inkscape:pageopacity="0"
     inkscape:pageshadow="2"
     inkscape:window-width="1243"
     inkscape:window-height="957"
     id="namedview5752"
     showgrid="false"
     inkscape:zoom="1.3111111"
     inkscape:cx="360"
     inkscape:cy="360"
     inkscape:window-x="319"
     inkscape:window-y="114"
     inkscape:window-maximized="0"
     inkscape:current-layer="body" />
  <title
     id="title5464">SVG drawing</title>
  <desc
     id="desc5466">This was produced by version 4.4 of GNU libplot, a free library for exporting 2-D vector graphics.</desc>
  <g
     id="g2057"
     transform="matrix(0.5,0,0,0.5,0.2534412,0.238755)">
    <g
       style="font-style:normal;font-variant:normal;font-weight:normal;font-stretch:normal;letter-spacing:normal;word-spacing:normal;text-anchor:start;fill:none;stroke:#000000;stroke-width:1;stroke-linecap:butt;stroke-linejoin:miter;stroke-miterlimit:10.43299961;stroke-dasharray:none;stroke-dashoffset:0;stroke-opacity:1"
       word-spacing="normal"
       letter-spacing="normal"
       font-size-adjust="none"
       font-stretch="normal"
       font-weight="normal"
       font-variant="normal"
       font-style="normal"
       stroke-miterlimit="10.433"
       xml:space="preserve"
       transform="matrix(0.0017361,0,0,-0.0017361,0.00688559,1.4883475)"
       id="content"><path
         style="fill:#000000;fill-rule:nonzero;stroke-width:0"
         inkscape:connector-curvature="0"
         id="path5470"
         d="m 112.5,671.04 -0.01,-0.23 -0.01,-0.23 -0.03,-0.23 -0.04,-0.22 -0.05,-0.22 -0.06,-0.21 -0.07,-0.21 -0.08,-0.2 -0.09,-0.2 -0.1,-0.2 -0.11,-0.18 -0.12,-0.19 -0.12,-0.17 -0.14,-0.17 -0.14,-0.17 -0.15,-0.15 -0.15,-0.15 -0.17,-0.14 -0.17,-0.14 -0.17,-0.12 -0.19,-0.12 -0.19,-0.11 -0.19,-0.1 -0.2,-0.09 -0.2,-0.08 -0.21,-0.07 -0.22,-0.06 -0.21,-0.05 -0.22,-0.04 -0.23,-0.03 -0.23,-0.02 H 108 c -2.48,0 -4.5,2.01 -4.5,4.5 0,2.48 2.02,4.5 4.5,4.5 2.48,0 4.5,-2.02 4.5,-4.5 z" /><path
         style="stroke-width:0.5625"
         inkscape:connector-curvature="0"
         id="path5472"
         d="m 112.5,671.04 -0.01,-0.23 -0.01,-0.23 -0.03,-0.23 -0.04,-0.22 -0.05,-0.22 -0.06,-0.21 -0.07,-0.21 -0.08,-0.2 -0.09,-0.2 -0.1,-0.2 -0.11,-0.18 -0.12,-0.19 -0.12,-0.17 -0.14,-0.17 -0.14,-0.17 -0.15,-0.15 -0.15,-0.15 -0.17,-0.14 -0.17,-0.14 -0.17,-0.12 -0.19,-0.12 -0.19,-0.11 -0.19,-0.1 -0.2,-0.09 -0.2,-0.08 -0.21,-0.07 -0.22,-0.06 -0.21,-0.05 -0.22,-0.04 -0.23,-0.03 -0.23,-0.02 H 108 c -2.48,0 -4.5,2.01 -4.5,4.5 0,2.48 2.02,4.5 4.5,4.5 2.48,0 4.5,-2.02 4.5,-4.5 z" /><line
         style="stroke-width:1.6875"
         id="line5474"
         y2="621.53998"
         x2="317.25"
         y1="621.53998"
         x1="252" /><polygon
         style="fill:#ffffff;fill-rule:nonzero;stroke:#ffffff;stroke-width:0"
         id="polygon5476"
         points="317.25,618.73 317.25,624.35 324,621.54 " /><polygon
         style="fill:#000000;fill-rule:nonzero;stroke-width:0"
         id="polygon5478"
         points="317.25,618.73 317.25,624.35 324,621.54 " /><line
         style="stroke-width:1.6875"
         id="line5480"
         y2="594.53998"
         x2="258.75"
         y1="594.53998"
         x1="324" /><polygon
         style="fill:#ffffff;fill-rule:nonzero;stroke:#ffffff;stroke-width:0"
         id="polygon5482"
         points="258.75,597.35 258.75,591.73 252,594.54 " /><polygon
         style="fill:#000000;fill-rule:nonzero;stroke-width:0"
         id="polygon5484"
         points="258.75,597.35 258.75,591.73 252,594.54 " /><path
         style="fill:#000000;fill-rule:nonzero;stroke-width:0"
         inkscape:connector-curvature="0"
         id="path5486"
         d="m 184.5,671.04 -0.01,-0.23 -0.01,-0.23 -0.03,-0.23 -0.04,-0.22 -0.05,-0.22 -0.06,-0.21 -0.07,-0.21 -0.08,-0.2 -0.09,-0.2 -0.1,-0.2 -0.11,-0.18 -0.12,-0.19 -0.12,-0.17 -0.14,-0.17 -0.14,-0.17 -0.15,-0.15 -0.15,-0.15 -0.17,-0.14 -0.17,-0.14 -0.17,-0.12 -0.19,-0.12 -0.19,-0.11 -0.19,-0.1 -0.2,-0.09 -0.2,-0.08 -0.21,-0.07 -0.22,-0.06 -0.21,-0.05 -0.22,-0.04 -0.23,-0.03 -0.23,-0.02 H 180 c -2.48,0 -4.5,2.01 -4.5,4.5 0,2.48 2.02,4.5 4.5,4.5 2.48,0 4.5,-2.02 4.5,-4.5 z" /><path
         style="stroke-width:0.5625"
         inkscape:connector-curvature="0"
         id="path5488"
         d="m 184.5,671.04 -0.01,-0.23 -0.01,-0.23 -0.03,-0.23 -0.04,-0.22 -0.05,-0.22 -0.06,-0.21 -0.07,-0.21 -0.08,-0.2 -0.09,-0.2 -0.1,-0.2 -0.11,-0.18 -0.12,-0.19 -0.12,-0.17 -0.14,-0.17 -0.14,-0.17 -0.15,-0.15 -0.15,-0.15 -0.17,-0.14 -0.17,-0.14 -0.17,-0.12 -0.19,-0.12 -0.19,-0.11 -0.19,-0.1 -0.2,-0.09 -0.2,-0.08 -0.21,-0.07 -0.22,-0.06 -0.21,-0.05 -0.22,-0.04 -0.23,-0.03 -0.23,-0.02 H 180 c -2.48,0 -4.5,2.01 -4.5,4.5 0,2.48 2.02,4.5 4.5,4.5 2.48,0 4.5,-2.02 4.5,-4.5 z" /><path
         style="fill:#000000;fill-rule:nonzero;stroke-width:0"
         inkscape:connector-curvature="0"
         id="path5490"
         d="m 400.5,671.04 -0.01,-0.23 -0.01,-0.23 -0.03,-0.23 -0.04,-0.22 -0.05,-0.22 -0.06,-0.21 -0.07,-0.21 -0.08,-0.2 -0.09,-0.2 -0.1,-0.2 -0.11,-0.18 -0.12,-0.19 -0.12,-0.17 -0.14,-0.17 -0.14,-0.17 -0.15,-0.15 -0.15,-0.15 -0.17,-0.14 -0.17,-0.14 -0.17,-0.12 -0.19,-0.12 -0.19,-0.11 -0.19,-0.1 -0.2,-0.09 -0.2,-0.08 -0.21,-0.07 -0.22,-0.06 -0.21,-0.05 -0.22,-0.04 -0.23,-0.03 -0.23,-0.02 H 396 c -2.48,0 -4.5,2.01 -4.5,4.5 0,2.48 2.02,4.5 4.5,4.5 2.48,0 4.5,-2.02 4.5,-4.5 z" /><path
         style="stroke-width:0.5625"
         inkscape:connector-curvature="0"
         id="path5492"
         d="m 400.5,671.04 -0.01,-0.23 -0.01,-0.23 -0.03,-0.23 -0.04,-0.22 -0.05,-0.22 -0.06,-0.21 -0.07,-0.21 -0.08,-0.2 -0.09,-0.2 -0.1,-0.2 -0.11,-0.18 -0.12,-0.19 -0.12,-0.17 -0.14,-0.17 -0.14,-0.17 -0.15,-0.15 -0.15,-0.15 -0.17,-0.14 -0.17,-0.14 -0.17,-0.12 -0.19,-0.12 -0.19,-0.11 -0.19,-0.1 -0.2,-0.09 -0.2,-0.08 -0.21,-0.07 -0.22,-0.06 -0.21,-0.05 -0.22,-0.04 -0.23,-0.03 -0.23,-0.02 H 396 c -2.48,0 -4.5,2.01 -4.5,4.5 0,2.48 2.02,4.5 4.5,4.5 2.48,0 4.5,-2.02 4.5,-4.5 z" /><path
         style="fill:#000000;fill-rule:nonzero;stroke-width:0"
         inkscape:connector-curvature="0"
         id="path5494"
         d="m 472.5,671.04 -0.01,-0.23 -0.01,-0.23 -0.03,-0.23 -0.04,-0.22 -0.05,-0.22 -0.06,-0.21 -0.07,-0.21 -0.08,-0.2 -0.09,-0.2 -0.1,-0.2 -0.11,-0.18 -0.12,-0.19 -0.12,-0.17 -0.14,-0.17 -0.14,-0.17 -0.15,-0.15 -0.15,-0.15 -0.17,-0.14 -0.17,-0.14 -0.17,-0.12 -0.19,-0.12 -0.19,-0.11 -0.19,-0.1 -0.2,-0.09 -0.2,-0.08 -0.21,-0.07 -0.22,-0.06 -0.21,-0.05 -0.22,-0.04 -0.23,-0.03 -0.23,-0.02 H 468 c -2.48,0 -4.5,2.01 -4.5,4.5 0,2.48 2.02,4.5 4.5,4.5 2.48,0 4.5,-2.02 4.5,-4.5 z" /><path
         style="stroke-width:0.5625"
         inkscape:connector-curvature="0"
         id="path5496"
         d="m 472.5,671.04 -0.01,-0.23 -0.01,-0.23 -0.03,-0.23 -0.04,-0.22 -0.05,-0.22 -0.06,-0.21 -0.07,-0.21 -0.08,-0.2 -0.09,-0.2 -0.1,-0.2 -0.11,-0.18 -0.12,-0.19 -0.12,-0.17 -0.14,-0.17 -0.14,-0.17 -0.15,-0.15 -0.15,-0.15 -0.17,-0.14 -0.17,-0.14 -0.17,-0.12 -0.19,-0.12 -0.19,-0.11 -0.19,-0.1 -0.2,-0.09 -0.2,-0.08 -0.21,-0.07 -0.22,-0.06 -0.21,-0.05 -0.22,-0.04 -0.23,-0.03 -0.23,-0.02 H 468 c -2.48,0 -4.5,2.01 -4.5,4.5 0,2.48 2.02,4.5 4.5,4.5 2.48,0 4.5,-2.02 4.5,-4.5 z" /><line
         style="stroke-width:2.25"
         id="line5498"
         y2="671.03998"
         x2="468"
         y1="671.03998"
         x1="396" /><line
         style="stroke-width:0.5625"
         id="line5500"
         y2="680.03998"
         x2="436.5"
         y1="680.03998"
         x1="423" /><polygon
         style="fill:#ffffff;fill-rule:nonzero;stroke:#ffffff;stroke-width:0"
         id="polygon5502"
         points="436.5,678.35 436.5,681.73 441,680.04 " /><polygon
         style="fill:#000000;fill-rule:nonzero;stroke-width:0"
         id="polygon5504"
         points="436.5,678.35 436.5,681.73 441,680.04 " /><line
         style="stroke-width:0.5625"
         id="line5506"
         y2="662.03998"
         x2="441"
         y1="662.03998"
         x1="427.5" /><polygon
         style="fill:#ffffff;fill-rule:nonzero;stroke:#ffffff;stroke-width:0"
         id="polygon5508"
         points="427.5,663.73 427.5,660.35 423,662.04 " /><polygon
         style="fill:#000000;fill-rule:nonzero;stroke-width:0"
         id="polygon5510"
         points="427.5,663.73 427.5,660.35 423,662.04 " /><path
         style="fill:#000000;fill-rule:nonzero;stroke-width:0"
         inkscape:connector-curvature="0"
         id="path5512"
         d="m 112.5,608.04 -0.01,-0.23 -0.01,-0.23 -0.03,-0.23 -0.04,-0.22 -0.05,-0.22 -0.06,-0.21 -0.07,-0.21 -0.08,-0.2 -0.09,-0.2 -0.1,-0.2 -0.11,-0.18 -0.12,-0.19 -0.12,-0.17 -0.14,-0.17 -0.14,-0.17 -0.15,-0.15 -0.15,-0.15 -0.17,-0.14 -0.17,-0.14 -0.17,-0.12 -0.19,-0.12 -0.19,-0.11 -0.19,-0.1 -0.2,-0.09 -0.2,-0.08 -0.21,-0.07 -0.22,-0.06 -0.21,-0.05 -0.22,-0.04 -0.23,-0.03 -0.23,-0.02 H 108 c -2.48,0 -4.5,2.01 -4.5,4.5 0,2.48 2.02,4.5 4.5,4.5 2.48,0 4.5,-2.02 4.5,-4.5 z" /><path
         style="stroke-width:0.5625"
         inkscape:connector-curvature="0"
         id="path5514"
         d="m 112.5,608.04 -0.01,-0.23 -0.01,-0.23 -0.03,-0.23 -0.04,-0.22 -0.05,-0.22 -0.06,-0.21 -0.07,-0.21 -0.08,-0.2 -0.09,-0.2 -0.1,-0.2 -0.11,-0.18 -0.12,-0.19 -0.12,-0.17 -0.14,-0.17 -0.14,-0.17 -0.15,-0.15 -0.15,-0.15 -0.17,-0.14 -0.17,-0.14 -0.17,-0.12 -0.19,-0.12 -0.19,-0.11 -0.19,-0.1 -0.2,-0.09 -0.2,-0.08 -0.21,-0.07 -0.22,-0.06 -0.21,-0.05 -0.22,-0.04 -0.23,-0.03 -0.23,-0.02 H 108 c -2.48,0 -4.5,2.01 -4.5,4.5 0,2.48 2.02,4.5 4.5,4.5 2.48,0 4.5,-2.02 4.5,-4.5 z" /><path
         style="fill:#000000;fill-rule:nonzero;stroke-width:0"
         inkscape:connector-curvature="0"
         id="path5516"
         d="m 184.5,608.04 -0.01,-0.23 -0.01,-0.23 -0.03,-0.23 -0.04,-0.22 -0.05,-0.22 -0.06,-0.21 -0.07,-0.21 -0.08,-0.2 -0.09,-0.2 -0.1,-0.2 -0.11,-0.18 -0.12,-0.19 -0.12,-0.17 -0.14,-0.17 -0.14,-0.17 -0.15,-0.15 -0.15,-0.15 -0.17,-0.14 -0.17,-0.14 -0.17,-0.12 -0.19,-0.12 -0.19,-0.11 -0.19,-0.1 -0.2,-0.09 -0.2,-0.08 -0.21,-0.07 -0.22,-0.06 -0.21,-0.05 -0.22,-0.04 -0.23,-0.03 -0.23,-0.02 H 180 c -2.48,0 -4.5,2.01 -4.5,4.5 0,2.48 2.02,4.5 4.5,4.5 2.48,0 4.5,-2.02 4.5,-4.5 z" /><path
         style="stroke-width:0.5625"
         inkscape:connector-curvature="0"
         id="path5518"
         d="m 184.5,608.04 -0.01,-0.23 -0.01,-0.23 -0.03,-0.23 -0.04,-0.22 -0.05,-0.22 -0.06,-0.21 -0.07,-0.21 -0.08,-0.2 -0.09,-0.2 -0.1,-0.2 -0.11,-0.18 -0.12,-0.19 -0.12,-0.17 -0.14,-0.17 -0.14,-0.17 -0.15,-0.15 -0.15,-0.15 -0.17,-0.14 -0.17,-0.14 -0.17,-0.12 -0.19,-0.12 -0.19,-0.11 -0.19,-0.1 -0.2,-0.09 -0.2,-0.08 -0.21,-0.07 -0.22,-0.06 -0.21,-0.05 -0.22,-0.04 -0.23,-0.03 -0.23,-0.02 H 180 c -2.48,0 -4.5,2.01 -4.5,4.5 0,2.48 2.02,4.5 4.5,4.5 2.48,0 4.5,-2.02 4.5,-4.5 z" /><polyline
         style="stroke-width:1.125"
         id="polyline5520"
         points="72,644.04 108,608.04 72,572.04 " /><line
         style="stroke-width:0.5625"
         id="line5522"
         y2="622.46997"
         x2="100.32"
         y1="630.53998"
         x1="92.25" /><polygon
         style="fill:#ffffff;fill-rule:nonzero;stroke:#ffffff;stroke-width:0"
         id="polygon5524"
         points="99.125,621.28 101.51,623.66 103.5,619.29 " /><polygon
         style="fill:#000000;fill-rule:nonzero;stroke-width:0"
         id="polygon5526"
         points="99.125,621.28 101.51,623.66 103.5,619.29 " /><line
         style="stroke-width:0.5625"
         id="line5528"
         y2="622.85999"
         x2="86.433998"
         y1="614.78998"
         x1="94.5" /><polygon
         style="fill:#ffffff;fill-rule:nonzero;stroke:#ffffff;stroke-width:0"
         id="polygon5530"
         points="87.625,624.05 85.238,621.66 83.25,626.04 " /><polygon
         style="fill:#000000;fill-rule:nonzero;stroke-width:0"
         id="polygon5532"
         points="87.625,624.05 85.238,621.66 83.25,626.04 " /><line
         style="stroke-width:0.5625"
         id="line5534"
         y2="595.85999"
         x2="89.066002"
         y1="587.78998"
         x1="81" /><polygon
         style="fill:#ffffff;fill-rule:nonzero;stroke:#ffffff;stroke-width:0"
         id="polygon5536"
         points="90.262,594.66 87.875,597.05 92.25,599.04 " /><polygon
         style="fill:#000000;fill-rule:nonzero;stroke-width:0"
         id="polygon5538"
         points="90.262,594.66 87.875,597.05 92.25,599.04 " /><line
         style="stroke-width:0.5625"
         id="line5540"
         y2="586.46997"
         x2="93.183998"
         y1="594.53998"
         x1="101.25" /><polygon
         style="fill:#ffffff;fill-rule:nonzero;stroke:#ffffff;stroke-width:0"
         id="polygon5542"
         points="91.988,587.66 94.375,585.28 90,583.29 " /><polygon
         style="fill:#000000;fill-rule:nonzero;stroke-width:0"
         id="polygon5544"
         points="91.988,587.66 94.375,585.28 90,583.29 " /><path
         style="fill:#000000;fill-rule:nonzero;stroke-width:0"
         inkscape:connector-curvature="0"
         id="path5546"
         d="m 112.5,518.04 -0.01,-0.23 -0.01,-0.23 -0.03,-0.23 -0.04,-0.22 -0.05,-0.22 -0.06,-0.21 -0.07,-0.21 -0.08,-0.2 -0.09,-0.2 -0.1,-0.2 -0.11,-0.18 -0.12,-0.19 -0.12,-0.17 -0.14,-0.17 -0.14,-0.17 -0.15,-0.15 -0.15,-0.15 -0.17,-0.14 -0.17,-0.14 -0.17,-0.12 -0.19,-0.12 -0.19,-0.11 -0.19,-0.1 -0.2,-0.09 -0.2,-0.08 -0.21,-0.07 -0.22,-0.06 -0.21,-0.05 -0.22,-0.04 -0.23,-0.03 -0.23,-0.02 H 108 c -2.48,0 -4.5,2.01 -4.5,4.5 0,2.48 2.02,4.5 4.5,4.5 2.48,0 4.5,-2.02 4.5,-4.5 z" /><path
         style="stroke-width:0.5625"
         inkscape:connector-curvature="0"
         id="path5548"
         d="m 112.5,518.04 -0.01,-0.23 -0.01,-0.23 -0.03,-0.23 -0.04,-0.22 -0.05,-0.22 -0.06,-0.21 -0.07,-0.21 -0.08,-0.2 -0.09,-0.2 -0.1,-0.2 -0.11,-0.18 -0.12,-0.19 -0.12,-0.17 -0.14,-0.17 -0.14,-0.17 -0.15,-0.15 -0.15,-0.15 -0.17,-0.14 -0.17,-0.14 -0.17,-0.12 -0.19,-0.12 -0.19,-0.11 -0.19,-0.1 -0.2,-0.09 -0.2,-0.08 -0.21,-0.07 -0.22,-0.06 -0.21,-0.05 -0.22,-0.04 -0.23,-0.03 -0.23,-0.02 H 108 c -2.48,0 -4.5,2.01 -4.5,4.5 0,2.48 2.02,4.5 4.5,4.5 2.48,0 4.5,-2.02 4.5,-4.5 z" /><path
         style="fill:#000000;fill-rule:nonzero;stroke-width:0"
         inkscape:connector-curvature="0"
         id="path5550"
         d="m 184.5,518.04 -0.01,-0.23 -0.01,-0.23 -0.03,-0.23 -0.04,-0.22 -0.05,-0.22 -0.06,-0.21 -0.07,-0.21 -0.08,-0.2 -0.09,-0.2 -0.1,-0.2 -0.11,-0.18 -0.12,-0.19 -0.12,-0.17 -0.14,-0.17 -0.14,-0.17 -0.15,-0.15 -0.15,-0.15 -0.17,-0.14 -0.17,-0.14 -0.17,-0.12 -0.19,-0.12 -0.19,-0.11 -0.19,-0.1 -0.2,-0.09 -0.2,-0.08 -0.21,-0.07 -0.22,-0.06 -0.21,-0.05 -0.22,-0.04 -0.23,-0.03 -0.23,-0.02 H 180 c -2.48,0 -4.5,2.01 -4.5,4.5 0,2.48 2.02,4.5 4.5,4.5 2.48,0 4.5,-2.02 4.5,-4.5 z" /><path
         style="stroke-width:0.5625"
         inkscape:connector-curvature="0"
         id="path5552"
         d="m 184.5,518.04 -0.01,-0.23 -0.01,-0.23 -0.03,-0.23 -0.04,-0.22 -0.05,-0.22 -0.06,-0.21 -0.07,-0.21 -0.08,-0.2 -0.09,-0.2 -0.1,-0.2 -0.11,-0.18 -0.12,-0.19 -0.12,-0.17 -0.14,-0.17 -0.14,-0.17 -0.15,-0.15 -0.15,-0.15 -0.17,-0.14 -0.17,-0.14 -0.17,-0.12 -0.19,-0.12 -0.19,-0.11 -0.19,-0.1 -0.2,-0.09 -0.2,-0.08 -0.21,-0.07 -0.22,-0.06 -0.21,-0.05 -0.22,-0.04 -0.23,-0.03 -0.23,-0.02 H 180 c -2.48,0 -4.5,2.01 -4.5,4.5 0,2.48 2.02,4.5 4.5,4.5 2.48,0 4.5,-2.02 4.5,-4.5 z" /><polyline
         style="stroke-width:1.125"
         id="polyline5554"
         points="72,554.04 108,518.04 72,482.04 " /><polyline
         style="stroke-width:1.125"
         id="polyline5556"
         points="216,554.04 180,518.04 216,482.04 " /><line
         style="stroke-width:0.5625"
         id="line5558"
         y2="532.46997"
         x2="100.32"
         y1="540.53998"
         x1="92.25" /><polygon
         style="fill:#ffffff;fill-rule:nonzero;stroke:#ffffff;stroke-width:0"
         id="polygon5560"
         points="99.125,531.28 101.51,533.66 103.5,529.29 " /><polygon
         style="fill:#000000;fill-rule:nonzero;stroke-width:0"
         id="polygon5562"
         points="99.125,531.28 101.51,533.66 103.5,529.29 " /><line
         style="stroke-width:0.5625"
         id="line5564"
         y2="532.85999"
         x2="86.433998"
         y1="524.78998"
         x1="94.5" /><polygon
         style="fill:#ffffff;fill-rule:nonzero;stroke:#ffffff;stroke-width:0"
         id="polygon5566"
         points="87.625,534.05 85.238,531.66 83.25,536.04 " /><polygon
         style="fill:#000000;fill-rule:nonzero;stroke-width:0"
         id="polygon5568"
         points="87.625,534.05 85.238,531.66 83.25,536.04 " /><line
         style="stroke-width:0.5625"
         id="line5570"
         y2="505.85999"
         x2="89.066002"
         y1="497.79001"
         x1="81" /><polygon
         style="fill:#ffffff;fill-rule:nonzero;stroke:#ffffff;stroke-width:0"
         id="polygon5572"
         points="90.262,504.66 87.875,507.05 92.25,509.04 " /><polygon
         style="fill:#000000;fill-rule:nonzero;stroke-width:0"
         id="polygon5574"
         points="90.262,504.66 87.875,507.05 92.25,509.04 " /><line
         style="stroke-width:0.5625"
         id="line5576"
         y2="496.47"
         x2="93.183998"
         y1="504.54001"
         x1="101.25" /><polygon
         style="fill:#ffffff;fill-rule:nonzero;stroke:#ffffff;stroke-width:0"
         id="polygon5578"
         points="91.988,497.66 94.375,495.28 90,493.29 " /><polygon
         style="fill:#000000;fill-rule:nonzero;stroke-width:0"
         id="polygon5580"
         points="91.988,497.66 94.375,495.28 90,493.29 " /><line
         style="stroke-width:0.5625"
         id="line5582"
         y2="505.85999"
         x2="198.92999"
         y1="497.79001"
         x1="207" /><polygon
         style="fill:#ffffff;fill-rule:nonzero;stroke:#ffffff;stroke-width:0"
         id="polygon5584"
         points="200.12,507.05 197.74,504.66 195.75,509.04 " /><polygon
         style="fill:#000000;fill-rule:nonzero;stroke-width:0"
         id="polygon5586"
         points="200.12,507.05 197.74,504.66 195.75,509.04 " /><line
         style="stroke-width:0.5625"
         id="line5588"
         y2="541.85999"
         x2="197.07001"
         y1="533.78998"
         x1="189" /><polygon
         style="fill:#ffffff;fill-rule:nonzero;stroke:#ffffff;stroke-width:0"
         id="polygon5590"
         points="198.26,540.66 195.88,543.05 200.25,545.04 " /><polygon
         style="fill:#000000;fill-rule:nonzero;stroke-width:0"
         id="polygon5592"
         points="198.26,540.66 195.88,543.05 200.25,545.04 " /><line
         style="stroke-width:0.5625"
         id="line5594"
         y2="530.21997"
         x2="198.92999"
         y1="538.28998"
         x1="207" /><polygon
         style="fill:#ffffff;fill-rule:nonzero;stroke:#ffffff;stroke-width:0"
         id="polygon5596"
         points="197.74,531.41 200.12,529.03 195.75,527.04 " /><polygon
         style="fill:#000000;fill-rule:nonzero;stroke-width:0"
         id="polygon5598"
         points="197.74,531.41 200.12,529.03 195.75,527.04 " /><line
         style="stroke-width:0.5625"
         id="line5600"
         y2="494.22"
         x2="197.07001"
         y1="502.29001"
         x1="189" /><polygon
         style="fill:#ffffff;fill-rule:nonzero;stroke:#ffffff;stroke-width:0"
         id="polygon5602"
         points="195.88,493.03 198.26,495.41 200.25,491.04 " /><polygon
         style="fill:#000000;fill-rule:nonzero;stroke-width:0"
         id="polygon5604"
         points="195.88,493.03 198.26,495.41 200.25,491.04 " /><path
         style="fill:#000000;fill-rule:nonzero;stroke-width:0"
         inkscape:connector-curvature="0"
         id="path5606"
         d="m 400.5,608.04 -0.01,-0.23 -0.01,-0.23 -0.03,-0.23 -0.04,-0.22 -0.05,-0.22 -0.06,-0.21 -0.07,-0.21 -0.08,-0.2 -0.09,-0.2 -0.1,-0.2 -0.11,-0.18 -0.12,-0.19 -0.12,-0.17 -0.14,-0.17 -0.14,-0.17 -0.15,-0.15 -0.15,-0.15 -0.17,-0.14 -0.17,-0.14 -0.17,-0.12 -0.19,-0.12 -0.19,-0.11 -0.19,-0.1 -0.2,-0.09 -0.2,-0.08 -0.21,-0.07 -0.22,-0.06 -0.21,-0.05 -0.22,-0.04 -0.23,-0.03 -0.23,-0.02 H 396 c -2.48,0 -4.5,2.01 -4.5,4.5 0,2.48 2.02,4.5 4.5,4.5 2.48,0 4.5,-2.02 4.5,-4.5 z" /><path
         style="stroke-width:0.5625"
         inkscape:connector-curvature="0"
         id="path5608"
         d="m 400.5,608.04 -0.01,-0.23 -0.01,-0.23 -0.03,-0.23 -0.04,-0.22 -0.05,-0.22 -0.06,-0.21 -0.07,-0.21 -0.08,-0.2 -0.09,-0.2 -0.1,-0.2 -0.11,-0.18 -0.12,-0.19 -0.12,-0.17 -0.14,-0.17 -0.14,-0.17 -0.15,-0.15 -0.15,-0.15 -0.17,-0.14 -0.17,-0.14 -0.17,-0.12 -0.19,-0.12 -0.19,-0.11 -0.19,-0.1 -0.2,-0.09 -0.2,-0.08 -0.21,-0.07 -0.22,-0.06 -0.21,-0.05 -0.22,-0.04 -0.23,-0.03 -0.23,-0.02 H 396 c -2.48,0 -4.5,2.01 -4.5,4.5 0,2.48 2.02,4.5 4.5,4.5 2.48,0 4.5,-2.02 4.5,-4.5 z" /><path
         style="fill:#000000;fill-rule:nonzero;stroke-width:0"
         inkscape:connector-curvature="0"
         id="path5610"
         d="m 472.5,608.04 -0.01,-0.23 -0.01,-0.23 -0.03,-0.23 -0.04,-0.22 -0.05,-0.22 -0.06,-0.21 -0.07,-0.21 -0.08,-0.2 -0.09,-0.2 -0.1,-0.2 -0.11,-0.18 -0.12,-0.19 -0.12,-0.17 -0.14,-0.17 -0.14,-0.17 -0.15,-0.15 -0.15,-0.15 -0.17,-0.14 -0.17,-0.14 -0.17,-0.12 -0.19,-0.12 -0.19,-0.11 -0.19,-0.1 -0.2,-0.09 -0.2,-0.08 -0.21,-0.07 -0.22,-0.06 -0.21,-0.05 -0.22,-0.04 -0.23,-0.03 -0.23,-0.02 H 468 c -2.48,0 -4.5,2.01 -4.5,4.5 0,2.48 2.02,4.5 4.5,4.5 2.48,0 4.5,-2.02 4.5,-4.5 z" /><path
         style="stroke-width:0.5625"
         inkscape:connector-curvature="0"
         id="path5612"
         d="m 472.5,608.04 -0.01,-0.23 -0.01,-0.23 -0.03,-0.23 -0.04,-0.22 -0.05,-0.22 -0.06,-0.21 -0.07,-0.21 -0.08,-0.2 -0.09,-0.2 -0.1,-0.2 -0.11,-0.18 -0.12,-0.19 -0.12,-0.17 -0.14,-0.17 -0.14,-0.17 -0.15,-0.15 -0.15,-0.15 -0.17,-0.14 -0.17,-0.14 -0.17,-0.12 -0.19,-0.12 -0.19,-0.11 -0.19,-0.1 -0.2,-0.09 -0.2,-0.08 -0.21,-0.07 -0.22,-0.06 -0.21,-0.05 -0.22,-0.04 -0.23,-0.03 -0.23,-0.02 H 468 c -2.48,0 -4.5,2.01 -4.5,4.5 0,2.48 2.02,4.5 4.5,4.5 2.48,0 4.5,-2.02 4.5,-4.5 z" /><polyline
         style="stroke-width:1.125"
         id="polyline5614"
         points="360,644.04 396,608.04 360,572.04 " /><line
         style="stroke-width:0.5625"
         id="line5616"
         y2="622.46997"
         x2="388.32001"
         y1="630.53998"
         x1="380.25" /><polygon
         style="fill:#ffffff;fill-rule:nonzero;stroke:#ffffff;stroke-width:0"
         id="polygon5618"
         points="387.12,621.28 389.51,623.66 391.5,619.29 " /><polygon
         style="fill:#000000;fill-rule:nonzero;stroke-width:0"
         id="polygon5620"
         points="387.12,621.28 389.51,623.66 391.5,619.29 " /><line
         style="stroke-width:0.5625"
         id="line5622"
         y2="622.85999"
         x2="374.42999"
         y1="614.78998"
         x1="382.5" /><polygon
         style="fill:#ffffff;fill-rule:nonzero;stroke:#ffffff;stroke-width:0"
         id="polygon5624"
         points="375.62,624.05 373.24,621.66 371.25,626.04 " /><polygon
         style="fill:#000000;fill-rule:nonzero;stroke-width:0"
         id="polygon5626"
         points="375.62,624.05 373.24,621.66 371.25,626.04 " /><line
         style="stroke-width:0.5625"
         id="line5628"
         y2="595.85999"
         x2="377.07001"
         y1="587.78998"
         x1="369" /><polygon
         style="fill:#ffffff;fill-rule:nonzero;stroke:#ffffff;stroke-width:0"
         id="polygon5630"
         points="378.26,594.66 375.88,597.05 380.25,599.04 " /><polygon
         style="fill:#000000;fill-rule:nonzero;stroke-width:0"
         id="polygon5632"
         points="378.26,594.66 375.88,597.05 380.25,599.04 " /><line
         style="stroke-width:0.5625"
         id="line5634"
         y2="586.46997"
         x2="381.17999"
         y1="594.53998"
         x1="389.25" /><polygon
         style="fill:#ffffff;fill-rule:nonzero;stroke:#ffffff;stroke-width:0"
         id="polygon5636"
         points="379.99,587.66 382.38,585.28 378,583.29 " /><polygon
         style="fill:#000000;fill-rule:nonzero;stroke-width:0"
         id="polygon5638"
         points="379.99,587.66 382.38,585.28 378,583.29 " /><line
         style="stroke-width:2.25"
         id="line5640"
         y2="608.03998"
         x2="468"
         y1="608.03998"
         x1="396" /><line
         style="stroke-width:0.5625"
         id="line5642"
         y2="617.03998"
         x2="436.5"
         y1="617.03998"
         x1="423" /><polygon
         style="fill:#ffffff;fill-rule:nonzero;stroke:#ffffff;stroke-width:0"
         id="polygon5644"
         points="436.5,615.35 436.5,618.73 441,617.04 " /><polygon
         style="fill:#000000;fill-rule:nonzero;stroke-width:0"
         id="polygon5646"
         points="436.5,615.35 436.5,618.73 441,617.04 " /><line
         style="stroke-width:0.5625"
         id="line5648"
         y2="599.03998"
         x2="441"
         y1="599.03998"
         x1="427.5" /><polygon
         style="fill:#ffffff;fill-rule:nonzero;stroke:#ffffff;stroke-width:0"
         id="polygon5650"
         points="427.5,600.73 427.5,597.35 423,599.04 " /><polygon
         style="fill:#000000;fill-rule:nonzero;stroke-width:0"
         id="polygon5652"
         points="427.5,600.73 427.5,597.35 423,599.04 " /><path
         style="fill:#000000;fill-rule:nonzero;stroke-width:0"
         inkscape:connector-curvature="0"
         id="path5654"
         d="m 400.5,518.04 -0.01,-0.23 -0.01,-0.23 -0.03,-0.23 -0.04,-0.22 -0.05,-0.22 -0.06,-0.21 -0.07,-0.21 -0.08,-0.2 -0.09,-0.2 -0.1,-0.2 -0.11,-0.18 -0.12,-0.19 -0.12,-0.17 -0.14,-0.17 -0.14,-0.17 -0.15,-0.15 -0.15,-0.15 -0.17,-0.14 -0.17,-0.14 -0.17,-0.12 -0.19,-0.12 -0.19,-0.11 -0.19,-0.1 -0.2,-0.09 -0.2,-0.08 -0.21,-0.07 -0.22,-0.06 -0.21,-0.05 -0.22,-0.04 -0.23,-0.03 -0.23,-0.02 H 396 c -2.48,0 -4.5,2.01 -4.5,4.5 0,2.48 2.02,4.5 4.5,4.5 2.48,0 4.5,-2.02 4.5,-4.5 z" /><path
         style="stroke-width:0.5625"
         inkscape:connector-curvature="0"
         id="path5656"
         d="m 400.5,518.04 -0.01,-0.23 -0.01,-0.23 -0.03,-0.23 -0.04,-0.22 -0.05,-0.22 -0.06,-0.21 -0.07,-0.21 -0.08,-0.2 -0.09,-0.2 -0.1,-0.2 -0.11,-0.18 -0.12,-0.19 -0.12,-0.17 -0.14,-0.17 -0.14,-0.17 -0.15,-0.15 -0.15,-0.15 -0.17,-0.14 -0.17,-0.14 -0.17,-0.12 -0.19,-0.12 -0.19,-0.11 -0.19,-0.1 -0.2,-0.09 -0.2,-0.08 -0.21,-0.07 -0.22,-0.06 -0.21,-0.05 -0.22,-0.04 -0.23,-0.03 -0.23,-0.02 H 396 c -2.48,0 -4.5,2.01 -4.5,4.5 0,2.48 2.02,4.5 4.5,4.5 2.48,0 4.5,-2.02 4.5,-4.5 z" /><path
         style="fill:#000000;fill-rule:nonzero;stroke-width:0"
         inkscape:connector-curvature="0"
         id="path5658"
         d="m 472.5,518.04 -0.01,-0.23 -0.01,-0.23 -0.03,-0.23 -0.04,-0.22 -0.05,-0.22 -0.06,-0.21 -0.07,-0.21 -0.08,-0.2 -0.09,-0.2 -0.1,-0.2 -0.11,-0.18 -0.12,-0.19 -0.12,-0.17 -0.14,-0.17 -0.14,-0.17 -0.15,-0.15 -0.15,-0.15 -0.17,-0.14 -0.17,-0.14 -0.17,-0.12 -0.19,-0.12 -0.19,-0.11 -0.19,-0.1 -0.2,-0.09 -0.2,-0.08 -0.21,-0.07 -0.22,-0.06 -0.21,-0.05 -0.22,-0.04 -0.23,-0.03 -0.23,-0.02 H 468 c -2.48,0 -4.5,2.01 -4.5,4.5 0,2.48 2.02,4.5 4.5,4.5 2.48,0 4.5,-2.02 4.5,-4.5 z" /><path
         style="stroke-width:0.5625"
         inkscape:connector-curvature="0"
         id="path5660"
         d="m 472.5,518.04 -0.01,-0.23 -0.01,-0.23 -0.03,-0.23 -0.04,-0.22 -0.05,-0.22 -0.06,-0.21 -0.07,-0.21 -0.08,-0.2 -0.09,-0.2 -0.1,-0.2 -0.11,-0.18 -0.12,-0.19 -0.12,-0.17 -0.14,-0.17 -0.14,-0.17 -0.15,-0.15 -0.15,-0.15 -0.17,-0.14 -0.17,-0.14 -0.17,-0.12 -0.19,-0.12 -0.19,-0.11 -0.19,-0.1 -0.2,-0.09 -0.2,-0.08 -0.21,-0.07 -0.22,-0.06 -0.21,-0.05 -0.22,-0.04 -0.23,-0.03 -0.23,-0.02 H 468 c -2.48,0 -4.5,2.01 -4.5,4.5 0,2.48 2.02,4.5 4.5,4.5 2.48,0 4.5,-2.02 4.5,-4.5 z" /><polyline
         style="stroke-width:1.125"
         id="polyline5662"
         points="360,554.04 396,518.04 360,482.04 " /><polyline
         style="stroke-width:1.125"
         id="polyline5664"
         points="504,554.04 468,518.04 504,482.04 " /><line
         style="stroke-width:0.5625"
         id="line5666"
         y2="532.46997"
         x2="388.32001"
         y1="540.53998"
         x1="380.25" /><polygon
         style="fill:#ffffff;fill-rule:nonzero;stroke:#ffffff;stroke-width:0"
         id="polygon5668"
         points="387.12,531.28 389.51,533.66 391.5,529.29 " /><polygon
         style="fill:#000000;fill-rule:nonzero;stroke-width:0"
         id="polygon5670"
         points="387.12,531.28 389.51,533.66 391.5,529.29 " /><line
         style="stroke-width:0.5625"
         id="line5672"
         y2="532.85999"
         x2="374.42999"
         y1="524.78998"
         x1="382.5" /><polygon
         style="fill:#ffffff;fill-rule:nonzero;stroke:#ffffff;stroke-width:0"
         id="polygon5674"
         points="375.62,534.05 373.24,531.66 371.25,536.04 " /><polygon
         style="fill:#000000;fill-rule:nonzero;stroke-width:0"
         id="polygon5676"
         points="375.62,534.05 373.24,531.66 371.25,536.04 " /><line
         style="stroke-width:0.5625"
         id="line5678"
         y2="505.85999"
         x2="377.07001"
         y1="497.79001"
         x1="369" /><polygon
         style="fill:#ffffff;fill-rule:nonzero;stroke:#ffffff;stroke-width:0"
         id="polygon5680"
         points="378.26,504.66 375.88,507.05 380.25,509.04 " /><polygon
         style="fill:#000000;fill-rule:nonzero;stroke-width:0"
         id="polygon5682"
         points="378.26,504.66 375.88,507.05 380.25,509.04 " /><line
         style="stroke-width:0.5625"
         id="line5684"
         y2="496.47"
         x2="381.17999"
         y1="504.54001"
         x1="389.25" /><polygon
         style="fill:#ffffff;fill-rule:nonzero;stroke:#ffffff;stroke-width:0"
         id="polygon5686"
         points="379.99,497.66 382.38,495.28 378,493.29 " /><polygon
         style="fill:#000000;fill-rule:nonzero;stroke-width:0"
         id="polygon5688"
         points="379.99,497.66 382.38,495.28 378,493.29 " /><line
         style="stroke-width:0.5625"
         id="line5690"
         y2="505.85999"
         x2="486.92999"
         y1="497.79001"
         x1="495" /><polygon
         style="fill:#ffffff;fill-rule:nonzero;stroke:#ffffff;stroke-width:0"
         id="polygon5692"
         points="488.12,507.05 485.74,504.66 483.75,509.04 " /><polygon
         style="fill:#000000;fill-rule:nonzero;stroke-width:0"
         id="polygon5694"
         points="488.12,507.05 485.74,504.66 483.75,509.04 " /><line
         style="stroke-width:0.5625"
         id="line5696"
         y2="541.85999"
         x2="485.07001"
         y1="533.78998"
         x1="477" /><polygon
         style="fill:#ffffff;fill-rule:nonzero;stroke:#ffffff;stroke-width:0"
         id="polygon5698"
         points="486.26,540.66 483.88,543.05 488.25,545.04 " /><polygon
         style="fill:#000000;fill-rule:nonzero;stroke-width:0"
         id="polygon5700"
         points="486.26,540.66 483.88,543.05 488.25,545.04 " /><line
         style="stroke-width:0.5625"
         id="line5702"
         y2="530.21997"
         x2="486.92999"
         y1="538.28998"
         x1="495" /><polygon
         style="fill:#ffffff;fill-rule:nonzero;stroke:#ffffff;stroke-width:0"
         id="polygon5704"
         points="485.74,531.41 488.12,529.03 483.75,527.04 " /><polygon
         style="fill:#000000;fill-rule:nonzero;stroke-width:0"
         id="polygon5706"
         points="485.74,531.41 488.12,529.03 483.75,527.04 " /><line
         style="stroke-width:0.5625"
         id="line5708"
         y2="494.22"
         x2="485.07001"
         y1="502.29001"
         x1="477" /><polygon
         style="fill:#ffffff;fill-rule:nonzero;stroke:#ffffff;stroke-width:0"
         id="polygon5710"
         points="483.88,493.03 486.26,495.41 488.25,491.04 " /><polygon
         style="fill:#000000;fill-rule:nonzero;stroke-width:0"
         id="polygon5712"
         points="483.88,493.03 486.26,495.41 488.25,491.04 " /><line
         style="stroke-width:2.25"
         id="line5714"
         y2="518.03998"
         x2="468"
         y1="518.03998"
         x1="396" /><line
         style="stroke-width:0.5625"
         id="line5716"
         y2="527.03998"
         x2="436.5"
         y1="527.03998"
         x1="423" /><polygon
         style="fill:#ffffff;fill-rule:nonzero;stroke:#ffffff;stroke-width:0"
         id="polygon5718"
         points="436.5,525.35 436.5,528.73 441,527.04 " /><polygon
         style="fill:#000000;fill-rule:nonzero;stroke-width:0"
         id="polygon5720"
         points="436.5,525.35 436.5,528.73 441,527.04 " /><line
         style="stroke-width:0.5625"
         id="line5722"
         y2="509.04001"
         x2="441"
         y1="509.04001"
         x1="427.5" /><polygon
         style="fill:#ffffff;fill-rule:nonzero;stroke:#ffffff;stroke-width:0"
         id="polygon5724"
         points="427.5,510.73 427.5,507.35 423,509.04 " /><polygon
         style="fill:#000000;fill-rule:nonzero;stroke-width:0"
         id="polygon5726"
         points="427.5,510.73 427.5,507.35 423,509.04 " /><line
         style="stroke-width:1.6875"
         id="line5728"
         y2="680.03998"
         x2="317.25"
         y1="680.03998"
         x1="252" /><polygon
         style="fill:#ffffff;fill-rule:nonzero;stroke:#ffffff;stroke-width:0"
         id="polygon5730"
         points="317.25,677.23 317.25,682.85 324,680.04 " /><polygon
         style="fill:#000000;fill-rule:nonzero;stroke-width:0"
         id="polygon5732"
         points="317.25,677.23 317.25,682.85 324,680.04 " /><line
         style="stroke-width:1.6875"
         id="line5734"
         y2="662.03998"
         x2="258.75"
         y1="662.03998"
         x1="324" /><polygon
         style="fill:#ffffff;fill-rule:nonzero;stroke:#ffffff;stroke-width:0"
         id="polygon5736"
         points="258.75,664.85 258.75,659.23 252,662.04 " /><polygon
         style="fill:#000000;fill-rule:nonzero;stroke-width:0"
         id="polygon5738"
         points="258.75,664.85 258.75,659.23 252,662.04 " /><line
         style="stroke-width:1.6875"
         id="line5740"
         y2="531.53998"
         x2="317.25"
         y1="531.53998"
         x1="252" /><polygon
         style="fill:#ffffff;fill-rule:nonzero;stroke:#ffffff;stroke-width:0"
         id="polygon5742"
         points="317.25,528.73 317.25,534.35 324,531.54 " /><polygon
         style="fill:#000000;fill-rule:nonzero;stroke-width:0"
         id="polygon5744"
         points="317.25,528.73 317.25,534.35 324,531.54 " /><line
         style="stroke-width:1.6875"
         id="line5746"
         y2="504.54001"
         x2="258.75"
         y1="504.54001"
         x1="324" /><polygon
         style="fill:#ffffff;fill-rule:nonzero;stroke:#ffffff;stroke-width:0"
         id="polygon5748"
         points="258.75,507.35 258.75,501.73 252,504.54 " /><polygon
         style="fill:#000000;fill-rule:nonzero;stroke-width:0"
         id="polygon5750"
         points="258.75,507.35 258.75,501.73 252,504.54 " /></g>  </g>
</svg>
