<?xml version="1.0" encoding="UTF-8" standalone="no"?>
<svg
   xmlns:dc="http://purl.org/dc/elements/1.1/"
   xmlns:cc="http://creativecommons.org/ns#"
   xmlns:rdf="http://www.w3.org/1999/02/22-rdf-syntax-ns#"
   xmlns:svg="http://www.w3.org/2000/svg"
   xmlns="http://www.w3.org/2000/svg"
   xmlns:sodipodi="http://sodipodi.sourceforge.net/DTD/sodipodi-0.dtd"
   xmlns:inkscape="http://www.inkscape.org/namespaces/inkscape"
   version="1.1"
   id="body"
   width="8in"
   height="8in"
   viewBox="0 0 1 1"
   preserveAspectRatio="none"
   inkscape:version="0.48.2 r9819"
   sodipodi:docname="Euler04.svg">
  <metadata
     id="metadata6728">
    <rdf:RDF>
      <cc:Work
         rdf:about="">
        <dc:format>image/svg+xml</dc:format>
        <dc:type
           rdf:resource="http://purl.org/dc/dcmitype/StillImage" />
      </cc:Work>
    </rdf:RDF>
  </metadata>
  <defs
     id="defs6726" />
  <sodipodi:namedview
     pagecolor="#ffffff"
     bordercolor="#666666"
     borderopacity="1"
     objecttolerance="10"
     gridtolerance="10"
     guidetolerance="10"
     inkscape:pageopacity="0"
     inkscape:pageshadow="2"
     inkscape:window-width="855"
     inkscape:window-height="480"
     id="namedview6724"
     showgrid="false"
     inkscape:zoom="0.46354778"
     inkscape:cx="360"
     inkscape:cy="360"
     inkscape:window-x="497"
     inkscape:window-y="289"
     inkscape:window-maximized="0"
     inkscape:current-layer="body" />
  <title
     id="title6572">SVG drawing</title>
  <desc
     id="desc6574">This was produced by version 4.4 of GNU libplot, a free library for exporting 2-D vector graphics.</desc>
  <g
     id="content"
     transform="matrix(0.0017361,0,0,-0.0017361,0.02807203,1.5773305)"
     xml:space="preserve"
     stroke-miterlimit="10.433"
     font-style="normal"
     font-variant="normal"
     font-weight="normal"
     font-stretch="normal"
     font-size-adjust="none"
     letter-spacing="normal"
     word-spacing="normal"
     style="font-style:normal;font-variant:normal;font-weight:normal;font-stretch:normal;letter-spacing:normal;word-spacing:normal;text-anchor:start;fill:none;stroke:#000000;stroke-width:1;stroke-linecap:butt;stroke-linejoin:miter;stroke-miterlimit:10.43299961;stroke-opacity:1;stroke-dasharray:none;stroke-dashoffset:0">
<line
   x1="252"
   y1="639.53998"
   x2="317.25"
   y2="639.53998"
   id="line6578"
   style="stroke-width:1.6875" />
<polygon
   points="324,639.54 317.25,636.73 317.25,642.35 "
   id="polygon6580"
   style="fill:#ffffff;fill-rule:nonzero;stroke:#ffffff;stroke-width:0" />
<polygon
   points="324,639.54 317.25,636.73 317.25,642.35 "
   id="polygon6582"
   style="fill:#000000;fill-rule:nonzero;stroke-width:0" />
<line
   x1="324"
   y1="612.53998"
   x2="258.75"
   y2="612.53998"
   id="line6584"
   style="stroke-width:1.6875" />
<polygon
   points="252,612.54 258.75,615.35 258.75,609.73 "
   id="polygon6586"
   style="fill:#ffffff;fill-rule:nonzero;stroke:#ffffff;stroke-width:0" />
<polygon
   points="252,612.54 258.75,615.35 258.75,609.73 "
   id="polygon6588"
   style="fill:#000000;fill-rule:nonzero;stroke-width:0" />
<polygon
   points="108,680.04 108,572.04 216,572.04 216,680.04 "
   id="polygon6590"
   style="stroke-width:1.125" />
<path
   d="m 112.5,680.04 -0.01,-0.23 -0.01,-0.23 -0.03,-0.23 -0.04,-0.22 -0.05,-0.22 -0.06,-0.21 -0.07,-0.21 -0.08,-0.2 -0.09,-0.2 -0.1,-0.2 -0.11,-0.18 -0.12,-0.19 -0.12,-0.17 -0.14,-0.17 -0.14,-0.17 -0.15,-0.15 -0.15,-0.15 -0.17,-0.14 -0.17,-0.14 -0.17,-0.12 -0.19,-0.12 -0.19,-0.11 -0.19,-0.1 -0.2,-0.09 -0.2,-0.08 -0.21,-0.07 -0.22,-0.06 -0.21,-0.05 -0.22,-0.04 -0.23,-0.03 -0.23,-0.02 -0.23,0 c -2.48,0 -4.5,2.01 -4.5,4.5 0,2.48 2.02,4.5 4.5,4.5 2.48,0 4.5,-2.02 4.5,-4.5 z"
   id="path6592"
   inkscape:connector-curvature="0"
   style="fill:#000000;fill-rule:nonzero;stroke-width:0" />
<path
   d="m 112.5,680.04 -0.01,-0.23 -0.01,-0.23 -0.03,-0.23 -0.04,-0.22 -0.05,-0.22 -0.06,-0.21 -0.07,-0.21 -0.08,-0.2 -0.09,-0.2 -0.1,-0.2 -0.11,-0.18 -0.12,-0.19 -0.12,-0.17 -0.14,-0.17 -0.14,-0.17 -0.15,-0.15 -0.15,-0.15 -0.17,-0.14 -0.17,-0.14 -0.17,-0.12 -0.19,-0.12 -0.19,-0.11 -0.19,-0.1 -0.2,-0.09 -0.2,-0.08 -0.21,-0.07 -0.22,-0.06 -0.21,-0.05 -0.22,-0.04 -0.23,-0.03 -0.23,-0.02 -0.23,0 c -2.48,0 -4.5,2.01 -4.5,4.5 0,2.48 2.02,4.5 4.5,4.5 2.48,0 4.5,-2.02 4.5,-4.5 z"
   id="path6594"
   inkscape:connector-curvature="0"
   style="stroke-width:0.5625" />
<path
   d="m 220.5,680.04 -0.01,-0.23 -0.01,-0.23 -0.03,-0.23 -0.04,-0.22 -0.05,-0.22 -0.06,-0.21 -0.07,-0.21 -0.08,-0.2 -0.09,-0.2 -0.1,-0.2 -0.11,-0.18 -0.12,-0.19 -0.12,-0.17 -0.14,-0.17 -0.14,-0.17 -0.15,-0.15 -0.15,-0.15 -0.17,-0.14 -0.17,-0.14 -0.17,-0.12 -0.19,-0.12 -0.19,-0.11 -0.19,-0.1 -0.2,-0.09 -0.2,-0.08 -0.21,-0.07 -0.22,-0.06 -0.21,-0.05 -0.22,-0.04 -0.23,-0.03 -0.23,-0.02 -0.23,0 c -2.48,0 -4.5,2.01 -4.5,4.5 0,2.48 2.02,4.5 4.5,4.5 2.48,0 4.5,-2.02 4.5,-4.5 z"
   id="path6596"
   inkscape:connector-curvature="0"
   style="fill:#000000;fill-rule:nonzero;stroke-width:0" />
<path
   d="m 220.5,680.04 -0.01,-0.23 -0.01,-0.23 -0.03,-0.23 -0.04,-0.22 -0.05,-0.22 -0.06,-0.21 -0.07,-0.21 -0.08,-0.2 -0.09,-0.2 -0.1,-0.2 -0.11,-0.18 -0.12,-0.19 -0.12,-0.17 -0.14,-0.17 -0.14,-0.17 -0.15,-0.15 -0.15,-0.15 -0.17,-0.14 -0.17,-0.14 -0.17,-0.12 -0.19,-0.12 -0.19,-0.11 -0.19,-0.1 -0.2,-0.09 -0.2,-0.08 -0.21,-0.07 -0.22,-0.06 -0.21,-0.05 -0.22,-0.04 -0.23,-0.03 -0.23,-0.02 -0.23,0 c -2.48,0 -4.5,2.01 -4.5,4.5 0,2.48 2.02,4.5 4.5,4.5 2.48,0 4.5,-2.02 4.5,-4.5 z"
   id="path6598"
   inkscape:connector-curvature="0"
   style="stroke-width:0.5625" />
<path
   d="m 112.5,572.04 -0.01,-0.23 -0.01,-0.23 -0.03,-0.23 -0.04,-0.22 -0.05,-0.22 -0.06,-0.21 -0.07,-0.21 -0.08,-0.2 -0.09,-0.2 -0.1,-0.2 -0.11,-0.18 -0.12,-0.19 -0.12,-0.17 -0.14,-0.17 -0.14,-0.17 -0.15,-0.15 -0.15,-0.15 -0.17,-0.14 -0.17,-0.14 -0.17,-0.12 -0.19,-0.12 -0.19,-0.11 -0.19,-0.1 -0.2,-0.09 -0.2,-0.08 -0.21,-0.07 -0.22,-0.06 -0.21,-0.05 -0.22,-0.04 -0.23,-0.03 -0.23,-0.02 -0.23,0 c -2.48,0 -4.5,2.01 -4.5,4.5 0,2.48 2.02,4.5 4.5,4.5 2.48,0 4.5,-2.02 4.5,-4.5 z"
   id="path6600"
   inkscape:connector-curvature="0"
   style="fill:#000000;fill-rule:nonzero;stroke-width:0" />
<path
   d="m 112.5,572.04 -0.01,-0.23 -0.01,-0.23 -0.03,-0.23 -0.04,-0.22 -0.05,-0.22 -0.06,-0.21 -0.07,-0.21 -0.08,-0.2 -0.09,-0.2 -0.1,-0.2 -0.11,-0.18 -0.12,-0.19 -0.12,-0.17 -0.14,-0.17 -0.14,-0.17 -0.15,-0.15 -0.15,-0.15 -0.17,-0.14 -0.17,-0.14 -0.17,-0.12 -0.19,-0.12 -0.19,-0.11 -0.19,-0.1 -0.2,-0.09 -0.2,-0.08 -0.21,-0.07 -0.22,-0.06 -0.21,-0.05 -0.22,-0.04 -0.23,-0.03 -0.23,-0.02 -0.23,0 c -2.48,0 -4.5,2.01 -4.5,4.5 0,2.48 2.02,4.5 4.5,4.5 2.48,0 4.5,-2.02 4.5,-4.5 z"
   id="path6602"
   inkscape:connector-curvature="0"
   style="stroke-width:0.5625" />
<path
   d="m 220.5,572.04 -0.01,-0.23 -0.01,-0.23 -0.03,-0.23 -0.04,-0.22 -0.05,-0.22 -0.06,-0.21 -0.07,-0.21 -0.08,-0.2 -0.09,-0.2 -0.1,-0.2 -0.11,-0.18 -0.12,-0.19 -0.12,-0.17 -0.14,-0.17 -0.14,-0.17 -0.15,-0.15 -0.15,-0.15 -0.17,-0.14 -0.17,-0.14 -0.17,-0.12 -0.19,-0.12 -0.19,-0.11 -0.19,-0.1 -0.2,-0.09 -0.2,-0.08 -0.21,-0.07 -0.22,-0.06 -0.21,-0.05 -0.22,-0.04 -0.23,-0.03 -0.23,-0.02 -0.23,0 c -2.48,0 -4.5,2.01 -4.5,4.5 0,2.48 2.02,4.5 4.5,4.5 2.48,0 4.5,-2.02 4.5,-4.5 z"
   id="path6604"
   inkscape:connector-curvature="0"
   style="fill:#000000;fill-rule:nonzero;stroke-width:0" />
<path
   d="m 220.5,572.04 -0.01,-0.23 -0.01,-0.23 -0.03,-0.23 -0.04,-0.22 -0.05,-0.22 -0.06,-0.21 -0.07,-0.21 -0.08,-0.2 -0.09,-0.2 -0.1,-0.2 -0.11,-0.18 -0.12,-0.19 -0.12,-0.17 -0.14,-0.17 -0.14,-0.17 -0.15,-0.15 -0.15,-0.15 -0.17,-0.14 -0.17,-0.14 -0.17,-0.12 -0.19,-0.12 -0.19,-0.11 -0.19,-0.1 -0.2,-0.09 -0.2,-0.08 -0.21,-0.07 -0.22,-0.06 -0.21,-0.05 -0.22,-0.04 -0.23,-0.03 -0.23,-0.02 -0.23,0 c -2.48,0 -4.5,2.01 -4.5,4.5 0,2.48 2.02,4.5 4.5,4.5 2.48,0 4.5,-2.02 4.5,-4.5 z"
   id="path6606"
   inkscape:connector-curvature="0"
   style="stroke-width:0.5625" />
<line
   x1="103.5"
   y1="630.53998"
   x2="103.5"
   y2="617.03998"
   id="line6608"
   style="stroke-width:0.5625" />
<polygon
   points="103.5,635.04 105.19,630.54 101.81,630.54 "
   id="polygon6610"
   style="fill:#ffffff;fill-rule:nonzero;stroke:#ffffff;stroke-width:0" />
<polygon
   points="103.5,635.04 105.19,630.54 101.81,630.54 "
   id="polygon6612"
   style="fill:#000000;fill-rule:nonzero;stroke-width:0" />
<line
   x1="112.5"
   y1="635.03998"
   x2="112.5"
   y2="621.53998"
   id="line6614"
   style="stroke-width:0.5625" />
<polygon
   points="112.5,617.04 110.81,621.54 114.19,621.54 "
   id="polygon6616"
   style="fill:#ffffff;fill-rule:nonzero;stroke:#ffffff;stroke-width:0" />
<polygon
   points="112.5,617.04 110.81,621.54 114.19,621.54 "
   id="polygon6618"
   style="fill:#000000;fill-rule:nonzero;stroke-width:0" />
<line
   x1="211.5"
   y1="630.53998"
   x2="211.5"
   y2="617.03998"
   id="line6620"
   style="stroke-width:0.5625" />
<polygon
   points="211.5,635.04 213.19,630.54 209.81,630.54 "
   id="polygon6622"
   style="fill:#ffffff;fill-rule:nonzero;stroke:#ffffff;stroke-width:0" />
<polygon
   points="211.5,635.04 213.19,630.54 209.81,630.54 "
   id="polygon6624"
   style="fill:#000000;fill-rule:nonzero;stroke-width:0" />
<line
   x1="220.5"
   y1="635.03998"
   x2="220.5"
   y2="621.53998"
   id="line6626"
   style="stroke-width:0.5625" />
<polygon
   points="220.5,617.04 218.81,621.54 222.19,621.54 "
   id="polygon6628"
   style="fill:#ffffff;fill-rule:nonzero;stroke:#ffffff;stroke-width:0" />
<polygon
   points="220.5,617.04 218.81,621.54 222.19,621.54 "
   id="polygon6630"
   style="fill:#000000;fill-rule:nonzero;stroke-width:0" />
<line
   x1="153"
   y1="684.53998"
   x2="166.5"
   y2="684.53998"
   id="line6632"
   style="stroke-width:0.5625" />
<polygon
   points="171,684.54 166.5,682.85 166.5,686.23 "
   id="polygon6634"
   style="fill:#ffffff;fill-rule:nonzero;stroke:#ffffff;stroke-width:0" />
<polygon
   points="171,684.54 166.5,682.85 166.5,686.23 "
   id="polygon6636"
   style="fill:#000000;fill-rule:nonzero;stroke-width:0" />
<line
   x1="157.5"
   y1="675.53998"
   x2="171"
   y2="675.53998"
   id="line6638"
   style="stroke-width:0.5625" />
<polygon
   points="153,675.54 157.5,677.23 157.5,673.85 "
   id="polygon6640"
   style="fill:#ffffff;fill-rule:nonzero;stroke:#ffffff;stroke-width:0" />
<polygon
   points="153,675.54 157.5,677.23 157.5,673.85 "
   id="polygon6642"
   style="fill:#000000;fill-rule:nonzero;stroke-width:0" />
<line
   x1="153"
   y1="576.53998"
   x2="166.5"
   y2="576.53998"
   id="line6644"
   style="stroke-width:0.5625" />
<polygon
   points="171,576.54 166.5,574.85 166.5,578.23 "
   id="polygon6646"
   style="fill:#ffffff;fill-rule:nonzero;stroke:#ffffff;stroke-width:0" />
<polygon
   points="171,576.54 166.5,574.85 166.5,578.23 "
   id="polygon6648"
   style="fill:#000000;fill-rule:nonzero;stroke-width:0" />
<line
   x1="157.5"
   y1="567.53998"
   x2="171"
   y2="567.53998"
   id="line6650"
   style="stroke-width:0.5625" />
<polygon
   points="153,567.54 157.5,569.23 157.5,565.85 "
   id="polygon6652"
   style="fill:#ffffff;fill-rule:nonzero;stroke:#ffffff;stroke-width:0" />
<polygon
   points="153,567.54 157.5,569.23 157.5,565.85 "
   id="polygon6654"
   style="fill:#000000;fill-rule:nonzero;stroke-width:0" />
<polygon
   points="360,680.04 360,572.04 468,572.04 468,680.04 "
   id="polygon6656"
   style="fill:#ffffff;fill-rule:nonzero;stroke:#ffffff;stroke-width:0" />
<polygon
   points="360,680.04 360,572.04 468,572.04 468,680.04 "
   id="polygon6658"
   style="stroke-width:1.125" />
<path
   d="m 364.5,680.04 -0.01,-0.23 -0.01,-0.23 -0.03,-0.23 -0.04,-0.22 -0.05,-0.22 -0.06,-0.21 -0.07,-0.21 -0.08,-0.2 -0.09,-0.2 -0.1,-0.2 -0.11,-0.18 -0.12,-0.19 -0.12,-0.17 -0.14,-0.17 -0.14,-0.17 -0.15,-0.15 -0.15,-0.15 -0.17,-0.14 -0.17,-0.14 -0.17,-0.12 -0.19,-0.12 -0.19,-0.11 -0.19,-0.1 -0.2,-0.09 -0.2,-0.08 -0.21,-0.07 -0.22,-0.06 -0.21,-0.05 -0.22,-0.04 -0.23,-0.03 -0.23,-0.02 -0.23,0 c -2.48,0 -4.5,2.01 -4.5,4.5 0,2.48 2.02,4.5 4.5,4.5 2.48,0 4.5,-2.02 4.5,-4.5 z"
   id="path6660"
   inkscape:connector-curvature="0"
   style="fill:#000000;fill-rule:nonzero;stroke-width:0" />
<path
   d="m 364.5,680.04 -0.01,-0.23 -0.01,-0.23 -0.03,-0.23 -0.04,-0.22 -0.05,-0.22 -0.06,-0.21 -0.07,-0.21 -0.08,-0.2 -0.09,-0.2 -0.1,-0.2 -0.11,-0.18 -0.12,-0.19 -0.12,-0.17 -0.14,-0.17 -0.14,-0.17 -0.15,-0.15 -0.15,-0.15 -0.17,-0.14 -0.17,-0.14 -0.17,-0.12 -0.19,-0.12 -0.19,-0.11 -0.19,-0.1 -0.2,-0.09 -0.2,-0.08 -0.21,-0.07 -0.22,-0.06 -0.21,-0.05 -0.22,-0.04 -0.23,-0.03 -0.23,-0.02 -0.23,0 c -2.48,0 -4.5,2.01 -4.5,4.5 0,2.48 2.02,4.5 4.5,4.5 2.48,0 4.5,-2.02 4.5,-4.5 z"
   id="path6662"
   inkscape:connector-curvature="0"
   style="stroke-width:0.5625" />
<path
   d="m 472.5,680.04 -0.01,-0.23 -0.01,-0.23 -0.03,-0.23 -0.04,-0.22 -0.05,-0.22 -0.06,-0.21 -0.07,-0.21 -0.08,-0.2 -0.09,-0.2 -0.1,-0.2 -0.11,-0.18 -0.12,-0.19 -0.12,-0.17 -0.14,-0.17 -0.14,-0.17 -0.15,-0.15 -0.15,-0.15 -0.17,-0.14 -0.17,-0.14 -0.17,-0.12 -0.19,-0.12 -0.19,-0.11 -0.19,-0.1 -0.2,-0.09 -0.2,-0.08 -0.21,-0.07 -0.22,-0.06 -0.21,-0.05 -0.22,-0.04 -0.23,-0.03 -0.23,-0.02 -0.23,0 c -2.48,0 -4.5,2.01 -4.5,4.5 0,2.48 2.02,4.5 4.5,4.5 2.48,0 4.5,-2.02 4.5,-4.5 z"
   id="path6664"
   inkscape:connector-curvature="0"
   style="fill:#000000;fill-rule:nonzero;stroke-width:0" />
<path
   d="m 472.5,680.04 -0.01,-0.23 -0.01,-0.23 -0.03,-0.23 -0.04,-0.22 -0.05,-0.22 -0.06,-0.21 -0.07,-0.21 -0.08,-0.2 -0.09,-0.2 -0.1,-0.2 -0.11,-0.18 -0.12,-0.19 -0.12,-0.17 -0.14,-0.17 -0.14,-0.17 -0.15,-0.15 -0.15,-0.15 -0.17,-0.14 -0.17,-0.14 -0.17,-0.12 -0.19,-0.12 -0.19,-0.11 -0.19,-0.1 -0.2,-0.09 -0.2,-0.08 -0.21,-0.07 -0.22,-0.06 -0.21,-0.05 -0.22,-0.04 -0.23,-0.03 -0.23,-0.02 -0.23,0 c -2.48,0 -4.5,2.01 -4.5,4.5 0,2.48 2.02,4.5 4.5,4.5 2.48,0 4.5,-2.02 4.5,-4.5 z"
   id="path6666"
   inkscape:connector-curvature="0"
   style="stroke-width:0.5625" />
<path
   d="m 364.5,572.04 -0.01,-0.23 -0.01,-0.23 -0.03,-0.23 -0.04,-0.22 -0.05,-0.22 -0.06,-0.21 -0.07,-0.21 -0.08,-0.2 -0.09,-0.2 -0.1,-0.2 -0.11,-0.18 -0.12,-0.19 -0.12,-0.17 -0.14,-0.17 -0.14,-0.17 -0.15,-0.15 -0.15,-0.15 -0.17,-0.14 -0.17,-0.14 -0.17,-0.12 -0.19,-0.12 -0.19,-0.11 -0.19,-0.1 -0.2,-0.09 -0.2,-0.08 -0.21,-0.07 -0.22,-0.06 -0.21,-0.05 -0.22,-0.04 -0.23,-0.03 -0.23,-0.02 -0.23,0 c -2.48,0 -4.5,2.01 -4.5,4.5 0,2.48 2.02,4.5 4.5,4.5 2.48,0 4.5,-2.02 4.5,-4.5 z"
   id="path6668"
   inkscape:connector-curvature="0"
   style="fill:#000000;fill-rule:nonzero;stroke-width:0" />
<path
   d="m 364.5,572.04 -0.01,-0.23 -0.01,-0.23 -0.03,-0.23 -0.04,-0.22 -0.05,-0.22 -0.06,-0.21 -0.07,-0.21 -0.08,-0.2 -0.09,-0.2 -0.1,-0.2 -0.11,-0.18 -0.12,-0.19 -0.12,-0.17 -0.14,-0.17 -0.14,-0.17 -0.15,-0.15 -0.15,-0.15 -0.17,-0.14 -0.17,-0.14 -0.17,-0.12 -0.19,-0.12 -0.19,-0.11 -0.19,-0.1 -0.2,-0.09 -0.2,-0.08 -0.21,-0.07 -0.22,-0.06 -0.21,-0.05 -0.22,-0.04 -0.23,-0.03 -0.23,-0.02 -0.23,0 c -2.48,0 -4.5,2.01 -4.5,4.5 0,2.48 2.02,4.5 4.5,4.5 2.48,0 4.5,-2.02 4.5,-4.5 z"
   id="path6670"
   inkscape:connector-curvature="0"
   style="stroke-width:0.5625" />
<path
   d="m 472.5,572.04 -0.01,-0.23 -0.01,-0.23 -0.03,-0.23 -0.04,-0.22 -0.05,-0.22 -0.06,-0.21 -0.07,-0.21 -0.08,-0.2 -0.09,-0.2 -0.1,-0.2 -0.11,-0.18 -0.12,-0.19 -0.12,-0.17 -0.14,-0.17 -0.14,-0.17 -0.15,-0.15 -0.15,-0.15 -0.17,-0.14 -0.17,-0.14 -0.17,-0.12 -0.19,-0.12 -0.19,-0.11 -0.19,-0.1 -0.2,-0.09 -0.2,-0.08 -0.21,-0.07 -0.22,-0.06 -0.21,-0.05 -0.22,-0.04 -0.23,-0.03 -0.23,-0.02 -0.23,0 c -2.48,0 -4.5,2.01 -4.5,4.5 0,2.48 2.02,4.5 4.5,4.5 2.48,0 4.5,-2.02 4.5,-4.5 z"
   id="path6672"
   inkscape:connector-curvature="0"
   style="fill:#000000;fill-rule:nonzero;stroke-width:0" />
<path
   d="m 472.5,572.04 -0.01,-0.23 -0.01,-0.23 -0.03,-0.23 -0.04,-0.22 -0.05,-0.22 -0.06,-0.21 -0.07,-0.21 -0.08,-0.2 -0.09,-0.2 -0.1,-0.2 -0.11,-0.18 -0.12,-0.19 -0.12,-0.17 -0.14,-0.17 -0.14,-0.17 -0.15,-0.15 -0.15,-0.15 -0.17,-0.14 -0.17,-0.14 -0.17,-0.12 -0.19,-0.12 -0.19,-0.11 -0.19,-0.1 -0.2,-0.09 -0.2,-0.08 -0.21,-0.07 -0.22,-0.06 -0.21,-0.05 -0.22,-0.04 -0.23,-0.03 -0.23,-0.02 -0.23,0 c -2.48,0 -4.5,2.01 -4.5,4.5 0,2.48 2.02,4.5 4.5,4.5 2.48,0 4.5,-2.02 4.5,-4.5 z"
   id="path6674"
   inkscape:connector-curvature="0"
   style="stroke-width:0.5625" />
<line
   x1="355.5"
   y1="630.53998"
   x2="355.5"
   y2="617.03998"
   id="line6676"
   style="stroke-width:0.5625" />
<polygon
   points="355.5,635.04 357.19,630.54 353.81,630.54 "
   id="polygon6678"
   style="fill:#ffffff;fill-rule:nonzero;stroke:#ffffff;stroke-width:0" />
<polygon
   points="355.5,635.04 357.19,630.54 353.81,630.54 "
   id="polygon6680"
   style="fill:#000000;fill-rule:nonzero;stroke-width:0" />
<line
   x1="364.5"
   y1="635.03998"
   x2="364.5"
   y2="621.53998"
   id="line6682"
   style="stroke-width:0.5625" />
<polygon
   points="364.5,617.04 362.81,621.54 366.19,621.54 "
   id="polygon6684"
   style="fill:#ffffff;fill-rule:nonzero;stroke:#ffffff;stroke-width:0" />
<polygon
   points="364.5,617.04 362.81,621.54 366.19,621.54 "
   id="polygon6686"
   style="fill:#000000;fill-rule:nonzero;stroke-width:0" />
<line
   x1="463.5"
   y1="630.53998"
   x2="463.5"
   y2="617.03998"
   id="line6688"
   style="stroke-width:0.5625" />
<polygon
   points="463.5,635.04 465.19,630.54 461.81,630.54 "
   id="polygon6690"
   style="fill:#ffffff;fill-rule:nonzero;stroke:#ffffff;stroke-width:0" />
<polygon
   points="463.5,635.04 465.19,630.54 461.81,630.54 "
   id="polygon6692"
   style="fill:#000000;fill-rule:nonzero;stroke-width:0" />
<line
   x1="472.5"
   y1="635.03998"
   x2="472.5"
   y2="621.53998"
   id="line6694"
   style="stroke-width:0.5625" />
<polygon
   points="472.5,617.04 470.81,621.54 474.19,621.54 "
   id="polygon6696"
   style="fill:#ffffff;fill-rule:nonzero;stroke:#ffffff;stroke-width:0" />
<polygon
   points="472.5,617.04 470.81,621.54 474.19,621.54 "
   id="polygon6698"
   style="fill:#000000;fill-rule:nonzero;stroke-width:0" />
<line
   x1="405"
   y1="684.53998"
   x2="418.5"
   y2="684.53998"
   id="line6700"
   style="stroke-width:0.5625" />
<polygon
   points="423,684.54 418.5,682.85 418.5,686.23 "
   id="polygon6702"
   style="fill:#ffffff;fill-rule:nonzero;stroke:#ffffff;stroke-width:0" />
<polygon
   points="423,684.54 418.5,682.85 418.5,686.23 "
   id="polygon6704"
   style="fill:#000000;fill-rule:nonzero;stroke-width:0" />
<line
   x1="409.5"
   y1="675.53998"
   x2="423"
   y2="675.53998"
   id="line6706"
   style="stroke-width:0.5625" />
<polygon
   points="405,675.54 409.5,677.23 409.5,673.85 "
   id="polygon6708"
   style="fill:#ffffff;fill-rule:nonzero;stroke:#ffffff;stroke-width:0" />
<polygon
   points="405,675.54 409.5,677.23 409.5,673.85 "
   id="polygon6710"
   style="fill:#000000;fill-rule:nonzero;stroke-width:0" />
<line
   x1="405"
   y1="576.53998"
   x2="418.5"
   y2="576.53998"
   id="line6712"
   style="stroke-width:0.5625" />
<polygon
   points="423,576.54 418.5,574.85 418.5,578.23 "
   id="polygon6714"
   style="fill:#ffffff;fill-rule:nonzero;stroke:#ffffff;stroke-width:0" />
<polygon
   points="423,576.54 418.5,574.85 418.5,578.23 "
   id="polygon6716"
   style="fill:#000000;fill-rule:nonzero;stroke-width:0" />
<line
   x1="409.5"
   y1="567.53998"
   x2="423"
   y2="567.53998"
   id="line6718"
   style="stroke-width:0.5625" />
<polygon
   points="405,567.54 409.5,569.23 409.5,565.85 "
   id="polygon6720"
   style="fill:#ffffff;fill-rule:nonzero;stroke:#ffffff;stroke-width:0" />
<polygon
   points="405,567.54 409.5,569.23 409.5,565.85 "
   id="polygon6722"
   style="fill:#000000;fill-rule:nonzero;stroke-width:0" />
</g></svg>
