<?xml version="1.0" encoding="UTF-8" standalone="no"?>
<svg
   xmlns:dc="http://purl.org/dc/elements/1.1/"
   xmlns:cc="http://creativecommons.org/ns#"
   xmlns:rdf="http://www.w3.org/1999/02/22-rdf-syntax-ns#"
   xmlns:svg="http://www.w3.org/2000/svg"
   xmlns="http://www.w3.org/2000/svg"
   xmlns:sodipodi="http://sodipodi.sourceforge.net/DTD/sodipodi-0.dtd"
   xmlns:inkscape="http://www.inkscape.org/namespaces/inkscape"
   version="1.1"
   id="body"
   width="8in"
   height="8in"
   viewBox="0 0 1 1"
   preserveAspectRatio="none"
   inkscape:version="0.92.2 5c3e80d, 2017-08-06"
   sodipodi:docname="Euler01.svg">
  <metadata
     id="metadata3746">
    <rdf:RDF>
      <cc:Work
         rdf:about="">
        <dc:format>image/svg+xml</dc:format>
        <dc:type
           rdf:resource="http://purl.org/dc/dcmitype/StillImage" />
      </cc:Work>
    </rdf:RDF>
  </metadata>
  <defs
     id="defs3744" />
  <sodipodi:namedview
     pagecolor="#ffffff"
     bordercolor="#666666"
     borderopacity="1"
     objecttolerance="10"
     gridtolerance="10"
     guidetolerance="10"
     inkscape:pageopacity="0"
     inkscape:pageshadow="2"
     inkscape:window-width="1079"
     inkscape:window-height="819"
     id="namedview3742"
     showgrid="true"
     inkscape:zoom="0.62890625"
     inkscape:cx="384"
     inkscape:cy="384"
     inkscape:window-x="377"
     inkscape:window-y="82"
     inkscape:window-maximized="0"
     inkscape:current-layer="body">
    <inkscape:grid
       type="xygrid"
       id="grid3748" />
  </sodipodi:namedview>
  <title
     id="title3704">SVG drawing</title>
  <desc
     id="desc3706">This was produced by version 4.4 of GNU libplot, a free library for exporting 2-D vector graphics.</desc>
  <g
     id="g896"
     transform="matrix(0.5,0,0,0.5,0.25229228,0.2319359)">
    <line
       x1="0.32856029"
       y1="0.37793484"
       x2="0.32856029"
       y2="0.40918463"
       id="line3710"
       style="font-style:normal;font-variant:normal;font-weight:normal;font-stretch:normal;letter-spacing:normal;word-spacing:normal;text-anchor:start;fill:none;stroke:#000000;stroke-width:0.00097656;stroke-linecap:butt;stroke-linejoin:miter;stroke-miterlimit:10.43299961;stroke-dasharray:none;stroke-dashoffset:0;stroke-opacity:1" />
    <line
       x1="0.39399391"
       y1="0.40625063"
       x2="0.37189335"
       y2="0.42835116"
       id="line3712"
       style="font-style:normal;font-variant:normal;font-weight:normal;font-stretch:normal;letter-spacing:normal;word-spacing:normal;text-anchor:start;fill:none;stroke:#000000;stroke-width:0.00097656;stroke-linecap:butt;stroke-linejoin:miter;stroke-miterlimit:10.43299961;stroke-dasharray:none;stroke-dashoffset:0;stroke-opacity:1" />
    <line
       x1="0.2846196"
       y1="0.51562494"
       x2="0.26251906"
       y2="0.53772545"
       id="line3714"
       style="font-style:normal;font-variant:normal;font-weight:normal;font-stretch:normal;letter-spacing:normal;word-spacing:normal;text-anchor:start;fill:none;stroke:#000000;stroke-width:0.00097656;stroke-linecap:butt;stroke-linejoin:miter;stroke-miterlimit:10.43299961;stroke-dasharray:none;stroke-dashoffset:0;stroke-opacity:1" />
    <line
       x1="0.26312667"
       y1="0.40625063"
       x2="0.28522724"
       y2="0.42835116"
       id="line3716"
       style="font-style:normal;font-variant:normal;font-weight:normal;font-stretch:normal;letter-spacing:normal;word-spacing:normal;text-anchor:start;fill:none;stroke:#000000;stroke-width:0.00097656;stroke-linecap:butt;stroke-linejoin:miter;stroke-miterlimit:10.43299961;stroke-dasharray:none;stroke-dashoffset:0;stroke-opacity:1" />
    <line
       x1="0.37250099"
       y1="0.51562494"
       x2="0.39460152"
       y2="0.53772545"
       id="line3718"
       style="font-style:normal;font-variant:normal;font-weight:normal;font-stretch:normal;letter-spacing:normal;word-spacing:normal;text-anchor:start;fill:none;stroke:#000000;stroke-width:0.00097656;stroke-linecap:butt;stroke-linejoin:miter;stroke-miterlimit:10.43299961;stroke-dasharray:none;stroke-dashoffset:0;stroke-opacity:1" />
    <line
       x1="0.2348109"
       y1="0.47168425"
       x2="0.26606071"
       y2="0.47168425"
       id="line3720"
       style="font-style:normal;font-variant:normal;font-weight:normal;font-stretch:normal;letter-spacing:normal;word-spacing:normal;text-anchor:start;fill:none;stroke:#000000;stroke-width:0.00097656;stroke-linecap:butt;stroke-linejoin:miter;stroke-miterlimit:10.43299961;stroke-dasharray:none;stroke-dashoffset:0;stroke-opacity:1" />
    <line
       x1="0.32856029"
       y1="0.51855892"
       x2="0.32856029"
       y2="0.54980874"
       id="line3722"
       style="font-style:normal;font-variant:normal;font-weight:normal;font-stretch:normal;letter-spacing:normal;word-spacing:normal;text-anchor:start;fill:none;stroke:#000000;stroke-width:0.00097656;stroke-linecap:butt;stroke-linejoin:miter;stroke-miterlimit:10.43299961;stroke-dasharray:none;stroke-dashoffset:0;stroke-opacity:1" />
    <line
       x1="0.39105988"
       y1="0.47168425"
       x2="0.4223097"
       y2="0.47168425"
       id="line3724"
       style="font-style:normal;font-variant:normal;font-weight:normal;font-stretch:normal;letter-spacing:normal;word-spacing:normal;text-anchor:start;fill:none;stroke:#000000;stroke-width:0.00097656;stroke-linecap:butt;stroke-linejoin:miter;stroke-miterlimit:10.43299961;stroke-dasharray:none;stroke-dashoffset:0;stroke-opacity:1" />
    <path
       d="m 0.77386995,0.47168421 -1.736e-5,3.993e-4 -1.736e-5,3.993e-4 -5.209e-5,3.9931e-4 -6.944e-5,3.8194e-4 -8.68e-5,3.8194e-4 -1.0417e-4,3.6458e-4 -1.2153e-4,3.6458e-4 -1.3888e-4,3.4722e-4 -1.5625e-4,3.4722e-4 -1.7361e-4,3.4722e-4 -1.9098e-4,3.125e-4 -2.0833e-4,3.2986e-4 -2.0833e-4,2.9514e-4 -2.4305e-4,2.9513e-4 -2.4306e-4,2.9514e-4 -2.6041e-4,2.6041e-4 -2.6042e-4,2.6042e-4 -2.9513e-4,2.4305e-4 -2.9514e-4,2.4306e-4 -2.9514e-4,2.0833e-4 -3.2986e-4,2.0833e-4 -3.2986e-4,1.9097e-4 -3.2985e-4,1.7361e-4 -3.4722e-4,1.5625e-4 -3.4722e-4,1.3889e-4 -3.6459e-4,1.2153e-4 -3.8194e-4,1.0416e-4 -3.6458e-4,8.681e-5 -3.8194e-4,6.944e-5 -3.993e-4,5.208e-5 -3.9931e-4,3.473e-5 h -3.993e-4 c -0.004306,0 -0.007812,-0.00349 -0.007812,-0.007812 0,-0.004306 0.003507,-0.007812 0.007812,-0.007812 0.004306,0 0.007812,0.003507 0.007812,0.007812 z"
       id="path3726"
       inkscape:connector-curvature="0"
       style="font-style:normal;font-variant:normal;font-weight:normal;font-stretch:normal;letter-spacing:normal;word-spacing:normal;text-anchor:start;fill:#000000;fill-rule:nonzero;stroke:#000000;stroke-width:0;stroke-linecap:butt;stroke-linejoin:miter;stroke-miterlimit:10.43299961;stroke-dasharray:none;stroke-dashoffset:0;stroke-opacity:1" />
    <path
       d="m 0.77386995,0.47168421 -1.736e-5,3.993e-4 -1.736e-5,3.993e-4 -5.209e-5,3.9931e-4 -6.944e-5,3.8194e-4 -8.68e-5,3.8194e-4 -1.0417e-4,3.6458e-4 -1.2153e-4,3.6458e-4 -1.3888e-4,3.4722e-4 -1.5625e-4,3.4722e-4 -1.7361e-4,3.4722e-4 -1.9098e-4,3.125e-4 -2.0833e-4,3.2986e-4 -2.0833e-4,2.9514e-4 -2.4305e-4,2.9513e-4 -2.4306e-4,2.9514e-4 -2.6041e-4,2.6041e-4 -2.6042e-4,2.6042e-4 -2.9513e-4,2.4305e-4 -2.9514e-4,2.4306e-4 -2.9514e-4,2.0833e-4 -3.2986e-4,2.0833e-4 -3.2986e-4,1.9097e-4 -3.2985e-4,1.7361e-4 -3.4722e-4,1.5625e-4 -3.4722e-4,1.3889e-4 -3.6459e-4,1.2153e-4 -3.8194e-4,1.0416e-4 -3.6458e-4,8.681e-5 -3.8194e-4,6.944e-5 -3.993e-4,5.208e-5 -3.9931e-4,3.473e-5 h -3.993e-4 c -0.004306,0 -0.007812,-0.00349 -0.007812,-0.007812 0,-0.004306 0.003507,-0.007812 0.007812,-0.007812 0.004306,0 0.007812,0.003507 0.007812,0.007812 z"
       id="path3728"
       inkscape:connector-curvature="0"
       style="font-style:normal;font-variant:normal;font-weight:normal;font-stretch:normal;letter-spacing:normal;word-spacing:normal;text-anchor:start;fill:none;stroke:#000000;stroke-width:0.00097656;stroke-linecap:butt;stroke-linejoin:miter;stroke-miterlimit:10.43299961;stroke-dasharray:none;stroke-dashoffset:0;stroke-opacity:1" />
    <line
       x1="0.5160591"
       y1="0.4482469"
       x2="0.62933964"
       y2="0.4482469"
       id="line3730"
       style="font-style:normal;font-variant:normal;font-weight:normal;font-stretch:normal;letter-spacing:normal;word-spacing:normal;text-anchor:start;fill:none;stroke:#000000;stroke-width:0.00292967;stroke-linecap:butt;stroke-linejoin:miter;stroke-miterlimit:10.43299961;stroke-dasharray:none;stroke-dashoffset:0;stroke-opacity:1" />
    <polygon
       transform="matrix(0.0017361,0,0,-0.0017361,0.0785619,1.8085507)"
       points="317.25,786.35 324,783.54 317.25,780.73 "
       id="polygon3732"
       style="font-style:normal;font-variant:normal;font-weight:normal;font-stretch:normal;letter-spacing:normal;word-spacing:normal;text-anchor:start;fill:#ffffff;fill-rule:nonzero;stroke:#ffffff;stroke-width:0;stroke-linecap:butt;stroke-linejoin:miter;stroke-miterlimit:10.43299961;stroke-dasharray:none;stroke-dashoffset:0;stroke-opacity:1" />
    <polygon
       transform="matrix(0.0017361,0,0,-0.0017361,0.0785619,1.8085507)"
       points="317.25,786.35 324,783.54 317.25,780.73 "
       id="polygon3734"
       style="font-style:normal;font-variant:normal;font-weight:normal;font-stretch:normal;letter-spacing:normal;word-spacing:normal;text-anchor:start;fill:#000000;fill-rule:nonzero;stroke:#000000;stroke-width:0;stroke-linecap:butt;stroke-linejoin:miter;stroke-miterlimit:10.43299961;stroke-dasharray:none;stroke-dashoffset:0;stroke-opacity:1" />
    <line
       x1="0.64105833"
       y1="0.4951216"
       x2="0.52777779"
       y2="0.4951216"
       id="line3736"
       style="font-style:normal;font-variant:normal;font-weight:normal;font-stretch:normal;letter-spacing:normal;word-spacing:normal;text-anchor:start;fill:none;stroke:#000000;stroke-width:0.00292967;stroke-linecap:butt;stroke-linejoin:miter;stroke-miterlimit:10.43299961;stroke-dasharray:none;stroke-dashoffset:0;stroke-opacity:1" />
    <polygon
       transform="matrix(0.0017361,0,0,-0.0017361,0.0785619,1.8085507)"
       points="258.75,753.73 252,756.54 258.75,759.35 "
       id="polygon3738"
       style="font-style:normal;font-variant:normal;font-weight:normal;font-stretch:normal;letter-spacing:normal;word-spacing:normal;text-anchor:start;fill:#ffffff;fill-rule:nonzero;stroke:#ffffff;stroke-width:0;stroke-linecap:butt;stroke-linejoin:miter;stroke-miterlimit:10.43299961;stroke-dasharray:none;stroke-dashoffset:0;stroke-opacity:1" />
    <polygon
       transform="matrix(0.0017361,0,0,-0.0017361,0.0785619,1.8085507)"
       points="258.75,753.73 252,756.54 258.75,759.35 "
       id="polygon3740"
       style="font-style:normal;font-variant:normal;font-weight:normal;font-stretch:normal;letter-spacing:normal;word-spacing:normal;text-anchor:start;fill:#000000;fill-rule:nonzero;stroke:#000000;stroke-width:0;stroke-linecap:butt;stroke-linejoin:miter;stroke-miterlimit:10.43299961;stroke-dasharray:none;stroke-dashoffset:0;stroke-opacity:1" />
  </g>
</svg>
