<?xml version="1.0" encoding="UTF-8" standalone="no"?>
<svg
   xmlns:dc="http://purl.org/dc/elements/1.1/"
   xmlns:cc="http://creativecommons.org/ns#"
   xmlns:rdf="http://www.w3.org/1999/02/22-rdf-syntax-ns#"
   xmlns:svg="http://www.w3.org/2000/svg"
   xmlns="http://www.w3.org/2000/svg"
   xmlns:sodipodi="http://sodipodi.sourceforge.net/DTD/sodipodi-0.dtd"
   xmlns:inkscape="http://www.inkscape.org/namespaces/inkscape"
   version="1.1"
   id="body"
   width="8in"
   height="8in"
   viewBox="0 0 1 1"
   preserveAspectRatio="none"
   inkscape:version="0.48.2 r9819"
   sodipodi:docname="Euler07.svg">
  <metadata
     id="metadata9376">
    <rdf:RDF>
      <cc:Work
         rdf:about="">
        <dc:format>image/svg+xml</dc:format>
        <dc:type
           rdf:resource="http://purl.org/dc/dcmitype/StillImage" />
      </cc:Work>
    </rdf:RDF>
  </metadata>
  <defs
     id="defs9374" />
  <sodipodi:namedview
     pagecolor="#ffffff"
     bordercolor="#666666"
     borderopacity="1"
     objecttolerance="10"
     gridtolerance="10"
     guidetolerance="10"
     inkscape:pageopacity="0"
     inkscape:pageshadow="2"
     inkscape:window-width="1120"
     inkscape:window-height="863"
     id="namedview9372"
     showgrid="false"
     inkscape:zoom="0.32777778"
     inkscape:cx="360"
     inkscape:cy="360"
     inkscape:window-x="0"
     inkscape:window-y="0"
     inkscape:window-maximized="0"
     inkscape:current-layer="body" />
  <title
     id="title9302">SVG drawing</title>
  <desc
     id="desc9304">This was produced by version 4.4 of GNU libplot, a free library for exporting 2-D vector graphics.</desc>
  <g
     id="content"
     transform="matrix(0.0017361,0,0,-0.0017361,0.01536017,1.5730932)"
     xml:space="preserve"
     stroke-miterlimit="10.433"
     font-style="normal"
     font-variant="normal"
     font-weight="normal"
     font-stretch="normal"
     font-size-adjust="none"
     letter-spacing="normal"
     word-spacing="normal"
     style="font-style:normal;font-variant:normal;font-weight:normal;font-stretch:normal;letter-spacing:normal;word-spacing:normal;text-anchor:start;fill:none;stroke:#000000;stroke-width:1;stroke-linecap:butt;stroke-linejoin:miter;stroke-miterlimit:10.43299961;stroke-opacity:1;stroke-dasharray:none;stroke-dashoffset:0">
<line
   x1="252"
   y1="630.53998"
   x2="317.25"
   y2="630.53998"
   id="line9308"
   style="stroke-width:1.6875" />
<polygon
   points="324,630.54 317.25,627.73 317.25,633.35 "
   id="polygon9310"
   style="fill:#ffffff;fill-rule:nonzero;stroke:#ffffff;stroke-width:0" />
<polygon
   points="324,630.54 317.25,627.73 317.25,633.35 "
   id="polygon9312"
   style="fill:#000000;fill-rule:nonzero;stroke-width:0" />
<polygon
   points="220.5,574.29 240.75,659.79 180,698.04 108,648.54 144,572.04 "
   id="polygon9314"
   style="stroke-width:0.5625" />
<line
   x1="180"
   y1="698.03998"
   x2="180"
   y2="626.03998"
   id="line9316"
   style="stroke-width:0.5625" />
<line
   x1="108"
   y1="648.53998"
   x2="180"
   y2="626.03998"
   id="line9318"
   style="stroke-width:0.5625" />
<line
   x1="180"
   y1="626.03998"
   x2="144"
   y2="572.03998"
   id="line9320"
   style="stroke-width:0.5625" />
<line
   x1="180"
   y1="626.03998"
   x2="220.5"
   y2="574.28998"
   id="line9322"
   style="stroke-width:0.5625" />
<line
   x1="180"
   y1="626.03998"
   x2="240.75"
   y2="659.78998"
   id="line9324"
   style="stroke-width:0.5625" />
<path
   d="m 182.25,698.04 0,-0.12 -0.01,-0.11 -0.02,-0.11 -0.02,-0.11 -0.02,-0.11 -0.03,-0.11 -0.04,-0.1 -0.04,-0.11 -0.04,-0.1 -0.05,-0.09 -0.06,-0.1 -0.05,-0.09 -0.07,-0.09 -0.06,-0.08 -0.07,-0.08 -0.08,-0.08 -0.08,-0.08 -0.08,-0.07 -0.08,-0.06 -0.09,-0.07 -0.09,-0.06 -0.1,-0.05 -0.09,-0.05 -0.1,-0.04 -0.11,-0.04 -0.1,-0.04 -0.11,-0.03 -0.11,-0.03 -0.11,-0.02 -0.11,-0.01 -0.11,-0.01 -0.12,0 c -1.24,0 -2.25,1.01 -2.25,2.25 0,1.24 1.01,2.25 2.25,2.25 1.24,0 2.25,-1.01 2.25,-2.25 z"
   id="path9326"
   inkscape:connector-curvature="0"
   style="fill:#000000;fill-rule:nonzero;stroke-width:0" />
<path
   d="m 182.25,698.04 0,-0.12 -0.01,-0.11 -0.02,-0.11 -0.02,-0.11 -0.02,-0.11 -0.03,-0.11 -0.04,-0.1 -0.04,-0.11 -0.04,-0.1 -0.05,-0.09 -0.06,-0.1 -0.05,-0.09 -0.07,-0.09 -0.06,-0.08 -0.07,-0.08 -0.08,-0.08 -0.08,-0.08 -0.08,-0.07 -0.08,-0.06 -0.09,-0.07 -0.09,-0.06 -0.1,-0.05 -0.09,-0.05 -0.1,-0.04 -0.11,-0.04 -0.1,-0.04 -0.11,-0.03 -0.11,-0.03 -0.11,-0.02 -0.11,-0.01 -0.11,-0.01 -0.12,0 c -1.24,0 -2.25,1.01 -2.25,2.25 0,1.24 1.01,2.25 2.25,2.25 1.24,0 2.25,-1.01 2.25,-2.25 z"
   id="path9328"
   inkscape:connector-curvature="0"
   style="stroke-width:0.5625" />
<path
   d="m 110.25,648.54 0,-0.12 -0.01,-0.11 -0.02,-0.11 -0.02,-0.11 -0.02,-0.11 -0.03,-0.11 -0.04,-0.1 -0.04,-0.11 -0.04,-0.1 -0.05,-0.09 -0.06,-0.1 -0.05,-0.09 -0.07,-0.09 -0.06,-0.08 -0.07,-0.08 -0.08,-0.08 -0.08,-0.08 -0.08,-0.07 -0.08,-0.06 -0.09,-0.07 -0.09,-0.06 -0.1,-0.05 -0.09,-0.05 -0.1,-0.04 -0.11,-0.04 -0.1,-0.04 -0.11,-0.03 -0.11,-0.03 -0.11,-0.02 -0.11,-0.01 -0.11,-0.01 -0.12,0 c -1.24,0 -2.25,1.01 -2.25,2.25 0,1.24 1.01,2.25 2.25,2.25 1.24,0 2.25,-1.01 2.25,-2.25 z"
   id="path9330"
   inkscape:connector-curvature="0"
   style="fill:#000000;fill-rule:nonzero;stroke-width:0" />
<path
   d="m 110.25,648.54 0,-0.12 -0.01,-0.11 -0.02,-0.11 -0.02,-0.11 -0.02,-0.11 -0.03,-0.11 -0.04,-0.1 -0.04,-0.11 -0.04,-0.1 -0.05,-0.09 -0.06,-0.1 -0.05,-0.09 -0.07,-0.09 -0.06,-0.08 -0.07,-0.08 -0.08,-0.08 -0.08,-0.08 -0.08,-0.07 -0.08,-0.06 -0.09,-0.07 -0.09,-0.06 -0.1,-0.05 -0.09,-0.05 -0.1,-0.04 -0.11,-0.04 -0.1,-0.04 -0.11,-0.03 -0.11,-0.03 -0.11,-0.02 -0.11,-0.01 -0.11,-0.01 -0.12,0 c -1.24,0 -2.25,1.01 -2.25,2.25 0,1.24 1.01,2.25 2.25,2.25 1.24,0 2.25,-1.01 2.25,-2.25 z"
   id="path9332"
   inkscape:connector-curvature="0"
   style="stroke-width:0.5625" />
<path
   d="m 182.25,626.04 0,-0.12 -0.01,-0.11 -0.02,-0.11 -0.02,-0.11 -0.02,-0.11 -0.03,-0.11 -0.04,-0.1 -0.04,-0.11 -0.04,-0.1 -0.05,-0.09 -0.06,-0.1 -0.05,-0.09 -0.07,-0.09 -0.06,-0.08 -0.07,-0.08 -0.08,-0.08 -0.08,-0.08 -0.08,-0.07 -0.08,-0.06 -0.09,-0.07 -0.09,-0.06 -0.1,-0.05 -0.09,-0.05 -0.1,-0.04 -0.11,-0.04 -0.1,-0.04 -0.11,-0.03 -0.11,-0.03 -0.11,-0.02 -0.11,-0.01 -0.11,-0.01 -0.12,0 c -1.24,0 -2.25,1.01 -2.25,2.25 0,1.24 1.01,2.25 2.25,2.25 1.24,0 2.25,-1.01 2.25,-2.25 z"
   id="path9334"
   inkscape:connector-curvature="0"
   style="fill:#000000;fill-rule:nonzero;stroke-width:0" />
<path
   d="m 182.25,626.04 0,-0.12 -0.01,-0.11 -0.02,-0.11 -0.02,-0.11 -0.02,-0.11 -0.03,-0.11 -0.04,-0.1 -0.04,-0.11 -0.04,-0.1 -0.05,-0.09 -0.06,-0.1 -0.05,-0.09 -0.07,-0.09 -0.06,-0.08 -0.07,-0.08 -0.08,-0.08 -0.08,-0.08 -0.08,-0.07 -0.08,-0.06 -0.09,-0.07 -0.09,-0.06 -0.1,-0.05 -0.09,-0.05 -0.1,-0.04 -0.11,-0.04 -0.1,-0.04 -0.11,-0.03 -0.11,-0.03 -0.11,-0.02 -0.11,-0.01 -0.11,-0.01 -0.12,0 c -1.24,0 -2.25,1.01 -2.25,2.25 0,1.24 1.01,2.25 2.25,2.25 1.24,0 2.25,-1.01 2.25,-2.25 z"
   id="path9336"
   inkscape:connector-curvature="0"
   style="stroke-width:0.5625" />
<path
   d="m 146.25,572.04 0,-0.12 -0.01,-0.11 -0.02,-0.11 -0.02,-0.11 -0.02,-0.11 -0.03,-0.11 -0.04,-0.1 -0.04,-0.11 -0.04,-0.1 -0.05,-0.09 -0.06,-0.1 -0.05,-0.09 -0.07,-0.09 -0.06,-0.08 -0.07,-0.08 -0.08,-0.08 -0.08,-0.08 -0.08,-0.07 -0.08,-0.06 -0.09,-0.07 -0.09,-0.06 -0.1,-0.05 -0.09,-0.05 -0.1,-0.04 -0.11,-0.04 -0.1,-0.04 -0.11,-0.03 -0.11,-0.03 -0.11,-0.02 -0.11,-0.01 -0.11,-0.01 -0.12,0 c -1.24,0 -2.25,1.01 -2.25,2.25 0,1.24 1.01,2.25 2.25,2.25 1.24,0 2.25,-1.01 2.25,-2.25 z"
   id="path9338"
   inkscape:connector-curvature="0"
   style="fill:#000000;fill-rule:nonzero;stroke-width:0" />
<path
   d="m 146.25,572.04 0,-0.12 -0.01,-0.11 -0.02,-0.11 -0.02,-0.11 -0.02,-0.11 -0.03,-0.11 -0.04,-0.1 -0.04,-0.11 -0.04,-0.1 -0.05,-0.09 -0.06,-0.1 -0.05,-0.09 -0.07,-0.09 -0.06,-0.08 -0.07,-0.08 -0.08,-0.08 -0.08,-0.08 -0.08,-0.07 -0.08,-0.06 -0.09,-0.07 -0.09,-0.06 -0.1,-0.05 -0.09,-0.05 -0.1,-0.04 -0.11,-0.04 -0.1,-0.04 -0.11,-0.03 -0.11,-0.03 -0.11,-0.02 -0.11,-0.01 -0.11,-0.01 -0.12,0 c -1.24,0 -2.25,1.01 -2.25,2.25 0,1.24 1.01,2.25 2.25,2.25 1.24,0 2.25,-1.01 2.25,-2.25 z"
   id="path9340"
   inkscape:connector-curvature="0"
   style="stroke-width:0.5625" />
<path
   d="m 222.75,574.29 0,-0.12 -0.01,-0.11 -0.02,-0.11 -0.02,-0.11 -0.02,-0.11 -0.03,-0.11 -0.04,-0.1 -0.04,-0.11 -0.04,-0.1 -0.05,-0.09 -0.06,-0.1 -0.05,-0.09 -0.07,-0.09 -0.06,-0.08 -0.07,-0.08 -0.08,-0.08 -0.08,-0.08 -0.08,-0.07 -0.08,-0.06 -0.09,-0.07 -0.09,-0.06 -0.1,-0.05 -0.09,-0.05 -0.1,-0.04 -0.11,-0.04 -0.1,-0.04 -0.11,-0.03 -0.11,-0.03 -0.11,-0.02 -0.11,-0.01 -0.11,-0.01 -0.12,0 c -1.24,0 -2.25,1.01 -2.25,2.25 0,1.24 1.01,2.25 2.25,2.25 1.24,0 2.25,-1.01 2.25,-2.25 z"
   id="path9342"
   inkscape:connector-curvature="0"
   style="fill:#000000;fill-rule:nonzero;stroke-width:0" />
<path
   d="m 222.75,574.29 0,-0.12 -0.01,-0.11 -0.02,-0.11 -0.02,-0.11 -0.02,-0.11 -0.03,-0.11 -0.04,-0.1 -0.04,-0.11 -0.04,-0.1 -0.05,-0.09 -0.06,-0.1 -0.05,-0.09 -0.07,-0.09 -0.06,-0.08 -0.07,-0.08 -0.08,-0.08 -0.08,-0.08 -0.08,-0.07 -0.08,-0.06 -0.09,-0.07 -0.09,-0.06 -0.1,-0.05 -0.09,-0.05 -0.1,-0.04 -0.11,-0.04 -0.1,-0.04 -0.11,-0.03 -0.11,-0.03 -0.11,-0.02 -0.11,-0.01 -0.11,-0.01 -0.12,0 c -1.24,0 -2.25,1.01 -2.25,2.25 0,1.24 1.01,2.25 2.25,2.25 1.24,0 2.25,-1.01 2.25,-2.25 z"
   id="path9344"
   inkscape:connector-curvature="0"
   style="stroke-width:0.5625" />
<path
   d="m 243,659.79 0,-0.12 -0.01,-0.11 -0.02,-0.11 -0.02,-0.11 -0.02,-0.11 -0.03,-0.11 -0.04,-0.1 -0.04,-0.11 -0.04,-0.1 -0.05,-0.09 -0.06,-0.1 -0.05,-0.09 -0.07,-0.09 -0.06,-0.08 -0.07,-0.08 -0.08,-0.08 -0.08,-0.08 -0.08,-0.07 -0.08,-0.06 -0.09,-0.07 -0.09,-0.06 -0.1,-0.05 -0.09,-0.05 -0.1,-0.04 -0.11,-0.04 -0.1,-0.04 -0.11,-0.03 -0.11,-0.03 -0.11,-0.02 -0.11,-0.01 -0.11,-0.01 -0.12,0 c -1.24,0 -2.25,1.01 -2.25,2.25 0,1.24 1.01,2.25 2.25,2.25 1.24,0 2.25,-1.01 2.25,-2.25 z"
   id="path9346"
   inkscape:connector-curvature="0"
   style="fill:#000000;fill-rule:nonzero;stroke-width:0" />
<path
   d="m 243,659.79 0,-0.12 -0.01,-0.11 -0.02,-0.11 -0.02,-0.11 -0.02,-0.11 -0.03,-0.11 -0.04,-0.1 -0.04,-0.11 -0.04,-0.1 -0.05,-0.09 -0.06,-0.1 -0.05,-0.09 -0.07,-0.09 -0.06,-0.08 -0.07,-0.08 -0.08,-0.08 -0.08,-0.08 -0.08,-0.07 -0.08,-0.06 -0.09,-0.07 -0.09,-0.06 -0.1,-0.05 -0.09,-0.05 -0.1,-0.04 -0.11,-0.04 -0.1,-0.04 -0.11,-0.03 -0.11,-0.03 -0.11,-0.02 -0.11,-0.01 -0.11,-0.01 -0.12,0 c -1.24,0 -2.25,1.01 -2.25,2.25 0,1.24 1.01,2.25 2.25,2.25 1.24,0 2.25,-1.01 2.25,-2.25 z"
   id="path9348"
   inkscape:connector-curvature="0"
   style="stroke-width:0.5625" />
<polygon
   points="443.25,572.04 463.5,657.54 402.75,695.79 330.75,646.29 366.75,569.79 "
   id="polygon9350"
   style="stroke-width:0.5625" />
<path
   d="m 405,695.79 0,-0.12 -0.01,-0.11 -0.02,-0.11 -0.02,-0.11 -0.02,-0.11 -0.03,-0.11 -0.04,-0.1 -0.04,-0.11 -0.04,-0.1 -0.05,-0.09 -0.06,-0.1 -0.05,-0.09 -0.07,-0.09 -0.06,-0.08 -0.07,-0.08 -0.08,-0.08 -0.08,-0.08 -0.08,-0.07 -0.08,-0.06 -0.09,-0.07 -0.09,-0.06 -0.1,-0.05 -0.09,-0.05 -0.1,-0.04 -0.11,-0.04 -0.1,-0.04 -0.11,-0.03 -0.11,-0.03 -0.11,-0.02 -0.11,-0.01 -0.11,-0.01 -0.12,0 c -1.24,0 -2.25,1.01 -2.25,2.25 0,1.24 1.01,2.25 2.25,2.25 1.24,0 2.25,-1.01 2.25,-2.25 z"
   id="path9352"
   inkscape:connector-curvature="0"
   style="fill:#000000;fill-rule:nonzero;stroke-width:0" />
<path
   d="m 405,695.79 0,-0.12 -0.01,-0.11 -0.02,-0.11 -0.02,-0.11 -0.02,-0.11 -0.03,-0.11 -0.04,-0.1 -0.04,-0.11 -0.04,-0.1 -0.05,-0.09 -0.06,-0.1 -0.05,-0.09 -0.07,-0.09 -0.06,-0.08 -0.07,-0.08 -0.08,-0.08 -0.08,-0.08 -0.08,-0.07 -0.08,-0.06 -0.09,-0.07 -0.09,-0.06 -0.1,-0.05 -0.09,-0.05 -0.1,-0.04 -0.11,-0.04 -0.1,-0.04 -0.11,-0.03 -0.11,-0.03 -0.11,-0.02 -0.11,-0.01 -0.11,-0.01 -0.12,0 c -1.24,0 -2.25,1.01 -2.25,2.25 0,1.24 1.01,2.25 2.25,2.25 1.24,0 2.25,-1.01 2.25,-2.25 z"
   id="path9354"
   inkscape:connector-curvature="0"
   style="stroke-width:0.5625" />
<path
   d="m 333,646.29 0,-0.12 -0.01,-0.11 -0.02,-0.11 -0.02,-0.11 -0.02,-0.11 -0.03,-0.11 -0.04,-0.1 -0.04,-0.11 -0.04,-0.1 -0.05,-0.09 -0.06,-0.1 -0.05,-0.09 -0.07,-0.09 -0.06,-0.08 -0.07,-0.08 -0.08,-0.08 -0.08,-0.08 -0.08,-0.07 -0.08,-0.06 -0.09,-0.07 -0.09,-0.06 -0.1,-0.05 -0.09,-0.05 -0.1,-0.04 -0.11,-0.04 -0.1,-0.04 -0.11,-0.03 -0.11,-0.03 -0.11,-0.02 -0.11,-0.01 -0.11,-0.01 -0.12,0 c -1.24,0 -2.25,1.01 -2.25,2.25 0,1.24 1.01,2.25 2.25,2.25 1.24,0 2.25,-1.01 2.25,-2.25 z"
   id="path9356"
   inkscape:connector-curvature="0"
   style="fill:#000000;fill-rule:nonzero;stroke-width:0" />
<path
   d="m 333,646.29 0,-0.12 -0.01,-0.11 -0.02,-0.11 -0.02,-0.11 -0.02,-0.11 -0.03,-0.11 -0.04,-0.1 -0.04,-0.11 -0.04,-0.1 -0.05,-0.09 -0.06,-0.1 -0.05,-0.09 -0.07,-0.09 -0.06,-0.08 -0.07,-0.08 -0.08,-0.08 -0.08,-0.08 -0.08,-0.07 -0.08,-0.06 -0.09,-0.07 -0.09,-0.06 -0.1,-0.05 -0.09,-0.05 -0.1,-0.04 -0.11,-0.04 -0.1,-0.04 -0.11,-0.03 -0.11,-0.03 -0.11,-0.02 -0.11,-0.01 -0.11,-0.01 -0.12,0 c -1.24,0 -2.25,1.01 -2.25,2.25 0,1.24 1.01,2.25 2.25,2.25 1.24,0 2.25,-1.01 2.25,-2.25 z"
   id="path9358"
   inkscape:connector-curvature="0"
   style="stroke-width:0.5625" />
<path
   d="m 369,569.79 0,-0.12 -0.01,-0.11 -0.02,-0.11 -0.02,-0.11 -0.02,-0.11 -0.03,-0.11 -0.04,-0.1 -0.04,-0.11 -0.04,-0.1 -0.05,-0.09 -0.06,-0.1 -0.05,-0.09 -0.07,-0.09 -0.06,-0.08 -0.07,-0.08 -0.08,-0.08 -0.08,-0.08 -0.08,-0.07 -0.08,-0.06 -0.09,-0.07 -0.09,-0.06 -0.1,-0.05 -0.09,-0.05 -0.1,-0.04 -0.11,-0.04 -0.1,-0.04 -0.11,-0.03 -0.11,-0.03 -0.11,-0.02 -0.11,-0.01 -0.11,-0.01 -0.12,0 c -1.24,0 -2.25,1.01 -2.25,2.25 0,1.24 1.01,2.25 2.25,2.25 1.24,0 2.25,-1.01 2.25,-2.25 z"
   id="path9360"
   inkscape:connector-curvature="0"
   style="fill:#000000;fill-rule:nonzero;stroke-width:0" />
<path
   d="m 369,569.79 0,-0.12 -0.01,-0.11 -0.02,-0.11 -0.02,-0.11 -0.02,-0.11 -0.03,-0.11 -0.04,-0.1 -0.04,-0.11 -0.04,-0.1 -0.05,-0.09 -0.06,-0.1 -0.05,-0.09 -0.07,-0.09 -0.06,-0.08 -0.07,-0.08 -0.08,-0.08 -0.08,-0.08 -0.08,-0.07 -0.08,-0.06 -0.09,-0.07 -0.09,-0.06 -0.1,-0.05 -0.09,-0.05 -0.1,-0.04 -0.11,-0.04 -0.1,-0.04 -0.11,-0.03 -0.11,-0.03 -0.11,-0.02 -0.11,-0.01 -0.11,-0.01 -0.12,0 c -1.24,0 -2.25,1.01 -2.25,2.25 0,1.24 1.01,2.25 2.25,2.25 1.24,0 2.25,-1.01 2.25,-2.25 z"
   id="path9362"
   inkscape:connector-curvature="0"
   style="stroke-width:0.5625" />
<path
   d="m 445.5,572.04 0,-0.12 -0.01,-0.11 -0.02,-0.11 -0.02,-0.11 -0.02,-0.11 -0.03,-0.11 -0.04,-0.1 -0.04,-0.11 -0.04,-0.1 -0.05,-0.09 -0.06,-0.1 -0.05,-0.09 -0.07,-0.09 -0.06,-0.08 -0.07,-0.08 -0.08,-0.08 -0.08,-0.08 -0.08,-0.07 -0.08,-0.06 -0.09,-0.07 -0.09,-0.06 -0.1,-0.05 -0.09,-0.05 -0.1,-0.04 -0.11,-0.04 -0.1,-0.04 -0.11,-0.03 -0.11,-0.03 -0.11,-0.02 -0.11,-0.01 -0.11,-0.01 -0.12,0 c -1.24,0 -2.25,1.01 -2.25,2.25 0,1.24 1.01,2.25 2.25,2.25 1.24,0 2.25,-1.01 2.25,-2.25 z"
   id="path9364"
   inkscape:connector-curvature="0"
   style="fill:#000000;fill-rule:nonzero;stroke-width:0" />
<path
   d="m 445.5,572.04 0,-0.12 -0.01,-0.11 -0.02,-0.11 -0.02,-0.11 -0.02,-0.11 -0.03,-0.11 -0.04,-0.1 -0.04,-0.11 -0.04,-0.1 -0.05,-0.09 -0.06,-0.1 -0.05,-0.09 -0.07,-0.09 -0.06,-0.08 -0.07,-0.08 -0.08,-0.08 -0.08,-0.08 -0.08,-0.07 -0.08,-0.06 -0.09,-0.07 -0.09,-0.06 -0.1,-0.05 -0.09,-0.05 -0.1,-0.04 -0.11,-0.04 -0.1,-0.04 -0.11,-0.03 -0.11,-0.03 -0.11,-0.02 -0.11,-0.01 -0.11,-0.01 -0.12,0 c -1.24,0 -2.25,1.01 -2.25,2.25 0,1.24 1.01,2.25 2.25,2.25 1.24,0 2.25,-1.01 2.25,-2.25 z"
   id="path9366"
   inkscape:connector-curvature="0"
   style="stroke-width:0.5625" />
<path
   d="m 465.75,657.54 0,-0.12 -0.01,-0.11 -0.02,-0.11 -0.02,-0.11 -0.02,-0.11 -0.03,-0.11 -0.04,-0.1 -0.04,-0.11 -0.04,-0.1 -0.05,-0.09 -0.06,-0.1 -0.05,-0.09 -0.07,-0.09 -0.06,-0.08 -0.07,-0.08 -0.08,-0.08 -0.08,-0.08 -0.08,-0.07 -0.08,-0.06 -0.09,-0.07 -0.09,-0.06 -0.1,-0.05 -0.09,-0.05 -0.1,-0.04 -0.11,-0.04 -0.1,-0.04 -0.11,-0.03 -0.11,-0.03 -0.11,-0.02 -0.11,-0.01 -0.11,-0.01 -0.12,0 c -1.24,0 -2.25,1.01 -2.25,2.25 0,1.24 1.01,2.25 2.25,2.25 1.24,0 2.25,-1.01 2.25,-2.25 z"
   id="path9368"
   inkscape:connector-curvature="0"
   style="fill:#000000;fill-rule:nonzero;stroke-width:0" />
<path
   d="m 465.75,657.54 0,-0.12 -0.01,-0.11 -0.02,-0.11 -0.02,-0.11 -0.02,-0.11 -0.03,-0.11 -0.04,-0.1 -0.04,-0.11 -0.04,-0.1 -0.05,-0.09 -0.06,-0.1 -0.05,-0.09 -0.07,-0.09 -0.06,-0.08 -0.07,-0.08 -0.08,-0.08 -0.08,-0.08 -0.08,-0.07 -0.08,-0.06 -0.09,-0.07 -0.09,-0.06 -0.1,-0.05 -0.09,-0.05 -0.1,-0.04 -0.11,-0.04 -0.1,-0.04 -0.11,-0.03 -0.11,-0.03 -0.11,-0.02 -0.11,-0.01 -0.11,-0.01 -0.12,0 c -1.24,0 -2.25,1.01 -2.25,2.25 0,1.24 1.01,2.25 2.25,2.25 1.24,0 2.25,-1.01 2.25,-2.25 z"
   id="path9370"
   inkscape:connector-curvature="0"
   style="stroke-width:0.5625" />
</g></svg>
