<?xml version="1.0" encoding="UTF-8" standalone="no"?>
<svg
   xmlns:dc="http://purl.org/dc/elements/1.1/"
   xmlns:cc="http://creativecommons.org/ns#"
   xmlns:rdf="http://www.w3.org/1999/02/22-rdf-syntax-ns#"
   xmlns:svg="http://www.w3.org/2000/svg"
   xmlns="http://www.w3.org/2000/svg"
   xmlns:sodipodi="http://sodipodi.sourceforge.net/DTD/sodipodi-0.dtd"
   xmlns:inkscape="http://www.inkscape.org/namespaces/inkscape"
   version="1.1"
   id="body"
   width="8in"
   height="8in"
   viewBox="0 0 1 1"
   preserveAspectRatio="none"
   inkscape:version="0.48.2 r9819"
   sodipodi:docname="Euler06.svg">
  <metadata
     id="metadata8568">
    <rdf:RDF>
      <cc:Work
         rdf:about="">
        <dc:format>image/svg+xml</dc:format>
        <dc:type
           rdf:resource="http://purl.org/dc/dcmitype/StillImage" />
      </cc:Work>
    </rdf:RDF>
  </metadata>
  <defs
     id="defs8566" />
  <sodipodi:namedview
     pagecolor="#ffffff"
     bordercolor="#666666"
     borderopacity="1"
     objecttolerance="10"
     gridtolerance="10"
     guidetolerance="10"
     inkscape:pageopacity="0"
     inkscape:pageshadow="2"
     inkscape:window-width="855"
     inkscape:window-height="480"
     id="namedview8564"
     showgrid="false"
     inkscape:zoom="0.32777778"
     inkscape:cx="360"
     inkscape:cy="360"
     inkscape:window-x="404"
     inkscape:window-y="246"
     inkscape:window-maximized="0"
     inkscape:current-layer="body" />
  <title
     id="title8486">SVG drawing</title>
  <desc
     id="desc8488">This was produced by version 4.4 of GNU libplot, a free library for exporting 2-D vector graphics.</desc>
  <g
     id="content"
     transform="matrix(0.0017361,0,0,-0.0017361,0.01959746,1.5561441)"
     xml:space="preserve"
     stroke-miterlimit="10.433"
     font-style="normal"
     font-variant="normal"
     font-weight="normal"
     font-stretch="normal"
     font-size-adjust="none"
     letter-spacing="normal"
     word-spacing="normal"
     style="font-style:normal;font-variant:normal;font-weight:normal;font-stretch:normal;letter-spacing:normal;word-spacing:normal;text-anchor:start;fill:none;stroke:#000000;stroke-width:1;stroke-linecap:butt;stroke-linejoin:miter;stroke-miterlimit:10.43299961;stroke-opacity:1;stroke-dasharray:none;stroke-dashoffset:0">
<line
   x1="252"
   y1="639.53998"
   x2="317.25"
   y2="639.53998"
   id="line8492"
   style="stroke-width:1.6875" />
<polygon
   points="324,639.54 317.25,636.73 317.25,642.35 "
   id="polygon8494"
   style="fill:#ffffff;fill-rule:nonzero;stroke:#ffffff;stroke-width:0" />
<polygon
   points="324,639.54 317.25,636.73 317.25,642.35 "
   id="polygon8496"
   style="fill:#000000;fill-rule:nonzero;stroke-width:0" />
<line
   x1="324"
   y1="612.53998"
   x2="258.75"
   y2="612.53998"
   id="line8498"
   style="stroke-width:1.6875" />
<polygon
   points="252,612.54 258.75,615.35 258.75,609.73 "
   id="polygon8500"
   style="fill:#ffffff;fill-rule:nonzero;stroke:#ffffff;stroke-width:0" />
<polygon
   points="252,612.54 258.75,615.35 258.75,609.73 "
   id="polygon8502"
   style="fill:#000000;fill-rule:nonzero;stroke-width:0" />
<path
   d="m 112.5,626.04 -0.01,-0.23 -0.01,-0.23 -0.03,-0.23 -0.04,-0.22 -0.05,-0.22 -0.06,-0.21 -0.07,-0.21 -0.08,-0.2 -0.09,-0.2 -0.1,-0.2 -0.11,-0.18 -0.12,-0.19 -0.12,-0.17 -0.14,-0.17 -0.14,-0.17 -0.15,-0.15 -0.15,-0.15 -0.17,-0.14 -0.17,-0.14 -0.17,-0.12 -0.19,-0.12 -0.19,-0.11 -0.19,-0.1 -0.2,-0.09 -0.2,-0.08 -0.21,-0.07 -0.22,-0.06 -0.21,-0.05 -0.22,-0.04 -0.23,-0.03 -0.23,-0.02 -0.23,0 c -2.48,0 -4.5,2.01 -4.5,4.5 0,2.48 2.02,4.5 4.5,4.5 2.48,0 4.5,-2.02 4.5,-4.5 z"
   id="path8504"
   inkscape:connector-curvature="0"
   style="fill:#000000;fill-rule:nonzero;stroke-width:0" />
<path
   d="m 112.5,626.04 -0.01,-0.23 -0.01,-0.23 -0.03,-0.23 -0.04,-0.22 -0.05,-0.22 -0.06,-0.21 -0.07,-0.21 -0.08,-0.2 -0.09,-0.2 -0.1,-0.2 -0.11,-0.18 -0.12,-0.19 -0.12,-0.17 -0.14,-0.17 -0.14,-0.17 -0.15,-0.15 -0.15,-0.15 -0.17,-0.14 -0.17,-0.14 -0.17,-0.12 -0.19,-0.12 -0.19,-0.11 -0.19,-0.1 -0.2,-0.09 -0.2,-0.08 -0.21,-0.07 -0.22,-0.06 -0.21,-0.05 -0.22,-0.04 -0.23,-0.03 -0.23,-0.02 -0.23,0 c -2.48,0 -4.5,2.01 -4.5,4.5 0,2.48 2.02,4.5 4.5,4.5 2.48,0 4.5,-2.02 4.5,-4.5 z"
   id="path8506"
   inkscape:connector-curvature="0"
   style="stroke-width:0.5625" />
<path
   d="m 220.5,626.04 -0.01,-0.23 -0.01,-0.23 -0.03,-0.23 -0.04,-0.22 -0.05,-0.22 -0.06,-0.21 -0.07,-0.21 -0.08,-0.2 -0.09,-0.2 -0.1,-0.2 -0.11,-0.18 -0.12,-0.19 -0.12,-0.17 -0.14,-0.17 -0.14,-0.17 -0.15,-0.15 -0.15,-0.15 -0.17,-0.14 -0.17,-0.14 -0.17,-0.12 -0.19,-0.12 -0.19,-0.11 -0.19,-0.1 -0.2,-0.09 -0.2,-0.08 -0.21,-0.07 -0.22,-0.06 -0.21,-0.05 -0.22,-0.04 -0.23,-0.03 -0.23,-0.02 -0.23,0 c -2.48,0 -4.5,2.01 -4.5,4.5 0,2.48 2.02,4.5 4.5,4.5 2.48,0 4.5,-2.02 4.5,-4.5 z"
   id="path8508"
   inkscape:connector-curvature="0"
   style="fill:#000000;fill-rule:nonzero;stroke-width:0" />
<path
   d="m 220.5,626.04 -0.01,-0.23 -0.01,-0.23 -0.03,-0.23 -0.04,-0.22 -0.05,-0.22 -0.06,-0.21 -0.07,-0.21 -0.08,-0.2 -0.09,-0.2 -0.1,-0.2 -0.11,-0.18 -0.12,-0.19 -0.12,-0.17 -0.14,-0.17 -0.14,-0.17 -0.15,-0.15 -0.15,-0.15 -0.17,-0.14 -0.17,-0.14 -0.17,-0.12 -0.19,-0.12 -0.19,-0.11 -0.19,-0.1 -0.2,-0.09 -0.2,-0.08 -0.21,-0.07 -0.22,-0.06 -0.21,-0.05 -0.22,-0.04 -0.23,-0.03 -0.23,-0.02 -0.23,0 c -2.48,0 -4.5,2.01 -4.5,4.5 0,2.48 2.02,4.5 4.5,4.5 2.48,0 4.5,-2.02 4.5,-4.5 z"
   id="path8510"
   inkscape:connector-curvature="0"
   style="stroke-width:0.5625" />
<line
   x1="153"
   y1="630.53998"
   x2="166.5"
   y2="630.53998"
   id="line8512"
   style="stroke-width:0.5625" />
<polygon
   points="171,630.54 166.5,628.85 166.5,632.23 "
   id="polygon8514"
   style="fill:#ffffff;fill-rule:nonzero;stroke:#ffffff;stroke-width:0" />
<polygon
   points="171,630.54 166.5,628.85 166.5,632.23 "
   id="polygon8516"
   style="fill:#000000;fill-rule:nonzero;stroke-width:0" />
<line
   x1="157.5"
   y1="621.53998"
   x2="171"
   y2="621.53998"
   id="line8518"
   style="stroke-width:0.5625" />
<polygon
   points="153,621.54 157.5,623.23 157.5,619.85 "
   id="polygon8520"
   style="fill:#ffffff;fill-rule:nonzero;stroke:#ffffff;stroke-width:0" />
<polygon
   points="153,621.54 157.5,623.23 157.5,619.85 "
   id="polygon8522"
   style="fill:#000000;fill-rule:nonzero;stroke-width:0" />
<line
   x1="108"
   y1="626.03998"
   x2="216"
   y2="626.03998"
   id="line8524"
   style="stroke-width:0.5625" />
<path
   d="m 364.5,626.04 -0.01,-0.23 -0.01,-0.23 -0.03,-0.23 -0.04,-0.22 -0.05,-0.22 -0.06,-0.21 -0.07,-0.21 -0.08,-0.2 -0.09,-0.2 -0.1,-0.2 -0.11,-0.18 -0.12,-0.19 -0.12,-0.17 -0.14,-0.17 -0.14,-0.17 -0.15,-0.15 -0.15,-0.15 -0.17,-0.14 -0.17,-0.14 -0.17,-0.12 -0.19,-0.12 -0.19,-0.11 -0.19,-0.1 -0.2,-0.09 -0.2,-0.08 -0.21,-0.07 -0.22,-0.06 -0.21,-0.05 -0.22,-0.04 -0.23,-0.03 -0.23,-0.02 -0.23,0 c -2.48,0 -4.5,2.01 -4.5,4.5 0,2.48 2.02,4.5 4.5,4.5 2.48,0 4.5,-2.02 4.5,-4.5 z"
   id="path8526"
   inkscape:connector-curvature="0"
   style="fill:#000000;fill-rule:nonzero;stroke-width:0" />
<path
   d="m 364.5,626.04 -0.01,-0.23 -0.01,-0.23 -0.03,-0.23 -0.04,-0.22 -0.05,-0.22 -0.06,-0.21 -0.07,-0.21 -0.08,-0.2 -0.09,-0.2 -0.1,-0.2 -0.11,-0.18 -0.12,-0.19 -0.12,-0.17 -0.14,-0.17 -0.14,-0.17 -0.15,-0.15 -0.15,-0.15 -0.17,-0.14 -0.17,-0.14 -0.17,-0.12 -0.19,-0.12 -0.19,-0.11 -0.19,-0.1 -0.2,-0.09 -0.2,-0.08 -0.21,-0.07 -0.22,-0.06 -0.21,-0.05 -0.22,-0.04 -0.23,-0.03 -0.23,-0.02 -0.23,0 c -2.48,0 -4.5,2.01 -4.5,4.5 0,2.48 2.02,4.5 4.5,4.5 2.48,0 4.5,-2.02 4.5,-4.5 z"
   id="path8528"
   inkscape:connector-curvature="0"
   style="stroke-width:0.5625" />
<path
   d="m 472.5,626.04 -0.01,-0.23 -0.01,-0.23 -0.03,-0.23 -0.04,-0.22 -0.05,-0.22 -0.06,-0.21 -0.07,-0.21 -0.08,-0.2 -0.09,-0.2 -0.1,-0.2 -0.11,-0.18 -0.12,-0.19 -0.12,-0.17 -0.14,-0.17 -0.14,-0.17 -0.15,-0.15 -0.15,-0.15 -0.17,-0.14 -0.17,-0.14 -0.17,-0.12 -0.19,-0.12 -0.19,-0.11 -0.19,-0.1 -0.2,-0.09 -0.2,-0.08 -0.21,-0.07 -0.22,-0.06 -0.21,-0.05 -0.22,-0.04 -0.23,-0.03 -0.23,-0.02 -0.23,0 c -2.48,0 -4.5,2.01 -4.5,4.5 0,2.48 2.02,4.5 4.5,4.5 2.48,0 4.5,-2.02 4.5,-4.5 z"
   id="path8530"
   inkscape:connector-curvature="0"
   style="fill:#000000;fill-rule:nonzero;stroke-width:0" />
<path
   d="m 472.5,626.04 -0.01,-0.23 -0.01,-0.23 -0.03,-0.23 -0.04,-0.22 -0.05,-0.22 -0.06,-0.21 -0.07,-0.21 -0.08,-0.2 -0.09,-0.2 -0.1,-0.2 -0.11,-0.18 -0.12,-0.19 -0.12,-0.17 -0.14,-0.17 -0.14,-0.17 -0.15,-0.15 -0.15,-0.15 -0.17,-0.14 -0.17,-0.14 -0.17,-0.12 -0.19,-0.12 -0.19,-0.11 -0.19,-0.1 -0.2,-0.09 -0.2,-0.08 -0.21,-0.07 -0.22,-0.06 -0.21,-0.05 -0.22,-0.04 -0.23,-0.03 -0.23,-0.02 -0.23,0 c -2.48,0 -4.5,2.01 -4.5,4.5 0,2.48 2.02,4.5 4.5,4.5 2.48,0 4.5,-2.02 4.5,-4.5 z"
   id="path8532"
   inkscape:connector-curvature="0"
   style="stroke-width:0.5625" />
<line
   x1="360"
   y1="626.03998"
   x2="468"
   y2="626.03998"
   id="line8534"
   style="stroke-width:0.5625" />
<line
   x1="378"
   y1="630.53998"
   x2="391.5"
   y2="630.53998"
   id="line8536"
   style="stroke-width:0.5625" />
<polygon
   points="396,630.54 391.5,628.85 391.5,632.23 "
   id="polygon8538"
   style="fill:#ffffff;fill-rule:nonzero;stroke:#ffffff;stroke-width:0" />
<polygon
   points="396,630.54 391.5,628.85 391.5,632.23 "
   id="polygon8540"
   style="fill:#000000;fill-rule:nonzero;stroke-width:0" />
<line
   x1="382.5"
   y1="621.53998"
   x2="396"
   y2="621.53998"
   id="line8542"
   style="stroke-width:0.5625" />
<polygon
   points="378,621.54 382.5,623.23 382.5,619.85 "
   id="polygon8544"
   style="fill:#ffffff;fill-rule:nonzero;stroke:#ffffff;stroke-width:0" />
<polygon
   points="378,621.54 382.5,623.23 382.5,619.85 "
   id="polygon8546"
   style="fill:#000000;fill-rule:nonzero;stroke-width:0" />
<line
   x1="432"
   y1="630.53998"
   x2="445.5"
   y2="630.53998"
   id="line8548"
   style="stroke-width:0.5625" />
<polygon
   points="450,630.54 445.5,628.85 445.5,632.23 "
   id="polygon8550"
   style="fill:#ffffff;fill-rule:nonzero;stroke:#ffffff;stroke-width:0" />
<polygon
   points="450,630.54 445.5,628.85 445.5,632.23 "
   id="polygon8552"
   style="fill:#000000;fill-rule:nonzero;stroke-width:0" />
<line
   x1="436.5"
   y1="621.53998"
   x2="450"
   y2="621.53998"
   id="line8554"
   style="stroke-width:0.5625" />
<polygon
   points="432,621.54 436.5,623.23 436.5,619.85 "
   id="polygon8556"
   style="fill:#ffffff;fill-rule:nonzero;stroke:#ffffff;stroke-width:0" />
<polygon
   points="432,621.54 436.5,623.23 436.5,619.85 "
   id="polygon8558"
   style="fill:#000000;fill-rule:nonzero;stroke-width:0" />
<path
   d="m 418.5,626.04 -0.01,-0.23 -0.01,-0.23 -0.03,-0.23 -0.04,-0.22 -0.05,-0.22 -0.06,-0.21 -0.07,-0.21 -0.08,-0.2 -0.09,-0.2 -0.1,-0.2 -0.11,-0.18 -0.12,-0.19 -0.12,-0.17 -0.14,-0.17 -0.14,-0.17 -0.15,-0.15 -0.15,-0.15 -0.17,-0.14 -0.17,-0.14 -0.17,-0.12 -0.19,-0.12 -0.19,-0.11 -0.19,-0.1 -0.2,-0.09 -0.2,-0.08 -0.21,-0.07 -0.22,-0.06 -0.21,-0.05 -0.22,-0.04 -0.23,-0.03 -0.23,-0.02 -0.23,0 c -2.48,0 -4.5,2.01 -4.5,4.5 0,2.48 2.02,4.5 4.5,4.5 2.48,0 4.5,-2.02 4.5,-4.5 z"
   id="path8560"
   inkscape:connector-curvature="0"
   style="fill:#000000;fill-rule:nonzero;stroke-width:0" />
<path
   d="m 418.5,626.04 -0.01,-0.23 -0.01,-0.23 -0.03,-0.23 -0.04,-0.22 -0.05,-0.22 -0.06,-0.21 -0.07,-0.21 -0.08,-0.2 -0.09,-0.2 -0.1,-0.2 -0.11,-0.18 -0.12,-0.19 -0.12,-0.17 -0.14,-0.17 -0.14,-0.17 -0.15,-0.15 -0.15,-0.15 -0.17,-0.14 -0.17,-0.14 -0.17,-0.12 -0.19,-0.12 -0.19,-0.11 -0.19,-0.1 -0.2,-0.09 -0.2,-0.08 -0.21,-0.07 -0.22,-0.06 -0.21,-0.05 -0.22,-0.04 -0.23,-0.03 -0.23,-0.02 -0.23,0 c -2.48,0 -4.5,2.01 -4.5,4.5 0,2.48 2.02,4.5 4.5,4.5 2.48,0 4.5,-2.02 4.5,-4.5 z"
   id="path8562"
   inkscape:connector-curvature="0"
   style="stroke-width:0.5625" />
</g></svg>
